{"glyphs":{"0":{"ha":764,"x_min":43,"x_max":754,"o":"m 335 -14 q 224 4 276 -14 q 131 63 171 22 q 67 172 90 104 q 43 338 43 239 q 69 575 43 456 q 148 791 96 694 q 279 948 200 888 q 465 1008 358 1008 q 578 990 525 1008 q 670 930 631 972 q 732 817 710 888 q 754 644 754 747 q 728 410 754 528 q 649 199 701 293 q 518 45 597 104 q 335 -14 439 -14 m 213 314 q 223 225 213 261 q 251 167 233 189 q 293 135 269 144 q 343 125 317 125 q 421 149 386 125 q 483 215 456 174 q 529 312 510 257 q 561 426 549 367 q 579 548 574 486 q 585 665 585 610 q 575 766 585 726 q 548 828 565 806 q 508 860 531 851 q 460 869 485 869 q 351 817 397 869 q 274 684 304 765 q 228 504 243 603 q 213 314 213 406 z "},"1":{"ha":764,"x_min":128,"x_max":665,"o":"m 454 0 l 281 0 l 451 800 l 128 596 l 165 774 l 513 996 l 665 996 l 454 0 z "},"2":{"ha":764,"x_min":-19,"x_max":746,"o":"m 624 0 l -19 0 l 17 161 q 288 331 182 254 q 454 472 393 407 q 538 597 515 538 q 561 715 561 656 q 513 831 561 793 q 399 869 465 869 q 263 838 325 869 q 140 750 200 806 l 175 918 q 286 985 224 961 q 439 1008 349 1008 q 565 990 508 1008 q 661 935 621 971 q 724 847 701 899 q 746 731 746 796 q 714 573 746 647 q 616 427 682 499 q 450 285 550 356 q 213 142 350 215 l 654 142 l 624 0 z "},"3":{"ha":764,"x_min":14,"x_max":728,"o":"m 679 301 q 655 178 679 235 q 584 78 631 121 q 469 10 538 35 q 311 -14 400 -14 q 131 17 204 -14 q 14 86 58 47 l 46 226 q 90 192 65 210 q 148 159 115 174 q 221 135 181 144 q 310 125 261 125 q 397 139 360 125 q 458 178 433 153 q 493 236 482 203 q 504 308 504 269 q 462 415 504 378 q 326 451 419 451 l 228 451 l 256 585 l 350 585 q 506 628 458 585 q 553 738 553 671 q 513 837 553 804 q 410 869 472 869 q 274 840 338 869 q 163 771 211 811 l 196 928 q 308 989 247 969 q 444 1008 369 1008 q 560 991 508 1008 q 650 941 613 974 q 708 863 688 908 q 728 764 728 818 q 711 670 728 713 q 666 596 694 628 q 599 543 638 564 q 515 515 560 522 q 633 444 586 496 q 679 301 679 393 z "},"4":{"ha":764,"x_min":-4,"x_max":744,"o":"m 579 224 l 532 0 l 361 0 l 408 224 l -4 224 l 25 349 l 553 996 l 744 996 l 610 363 l 728 363 l 697 224 l 579 224 m 439 363 l 526 775 l 188 363 l 439 363 z "},"5":{"ha":764,"x_min":25,"x_max":761,"o":"m 699 347 q 672 202 699 268 q 596 88 646 136 q 474 13 546 40 q 313 -14 403 -14 q 135 15 206 -14 q 25 75 64 43 l 54 222 q 99 188 74 206 q 155 157 124 171 q 225 134 186 143 q 310 125 264 125 q 404 141 364 125 q 471 185 444 157 q 510 251 497 213 q 522 333 522 289 q 364 499 522 499 q 277 482 311 499 q 226 446 243 465 l 110 446 l 228 996 l 761 996 l 735 849 l 343 849 l 290 606 q 347 628 314 619 q 425 636 381 636 q 532 618 482 636 q 619 565 582 600 q 677 474 656 529 q 699 347 699 419 z "},"6":{"ha":764,"x_min":29,"x_max":757,"o":"m 728 388 q 698 226 728 300 q 616 99 668 153 q 494 16 564 46 q 343 -14 424 -14 q 110 74 190 -14 q 29 329 29 163 q 58 576 29 454 q 150 794 88 699 q 310 950 213 890 q 543 1010 407 1010 q 669 994 618 1010 q 757 954 721 978 l 735 807 q 636 854 689 839 q 529 869 583 869 q 417 847 467 869 q 331 783 368 824 q 267 685 293 742 q 226 560 242 628 q 457 668 319 668 q 565 651 515 668 q 651 599 615 633 q 708 511 688 564 q 728 388 728 458 m 351 125 q 431 144 394 125 q 493 195 467 163 q 534 273 519 228 q 549 371 549 318 q 507 492 549 453 q 410 532 465 532 q 324 512 361 532 q 260 458 286 492 q 221 381 235 425 q 207 288 207 336 q 247 167 207 208 q 351 125 288 125 z "},"7":{"ha":764,"x_min":14,"x_max":803,"o":"m 201 0 l 14 0 l 579 850 l 115 850 l 147 996 l 803 996 l 779 883 l 201 0 z "},"8":{"ha":764,"x_min":21,"x_max":754,"o":"m 713 285 q 685 163 713 218 q 608 69 657 108 q 494 8 560 29 q 353 -14 428 -14 q 221 5 282 -14 q 115 58 160 24 q 46 143 71 93 q 21 256 21 193 q 84 431 21 357 q 260 532 147 504 q 165 610 201 560 q 129 733 129 660 q 155 845 129 794 q 225 932 181 896 q 328 988 269 968 q 456 1008 388 1008 q 570 993 515 1008 q 665 947 625 978 q 730 869 706 915 q 754 760 754 822 q 699 609 754 675 q 550 515 644 543 q 614 481 585 501 q 665 431 643 460 q 700 367 688 403 q 713 285 713 331 m 299 715 q 336 619 299 650 q 429 588 374 588 q 538 629 496 588 q 579 739 579 671 q 568 799 579 774 q 538 840 557 824 q 497 863 519 856 q 449 869 474 869 q 340 826 382 869 q 299 715 299 782 m 201 278 q 214 210 201 239 q 248 163 226 182 q 299 135 269 144 q 360 125 328 125 q 489 176 439 125 q 539 310 539 226 q 526 378 539 349 q 492 426 514 407 q 443 453 471 444 q 385 463 415 463 q 309 448 343 463 q 251 408 275 433 q 214 349 226 383 q 201 278 201 315 z "},"9":{"ha":764,"x_min":39,"x_max":774,"o":"m 774 646 q 745 407 774 525 q 656 195 717 289 q 499 44 594 101 q 268 -14 403 -14 q 131 2 185 -14 q 39 42 76 18 l 64 188 q 156 144 103 161 q 271 126 208 126 q 385 149 335 126 q 473 214 435 172 q 537 313 511 256 q 578 440 563 371 q 486 360 542 388 q 357 332 431 332 q 245 350 297 332 q 154 404 193 368 q 93 495 115 440 q 71 624 71 550 q 102 781 71 710 q 185 903 133 853 q 306 982 238 954 q 447 1010 374 1010 q 580 988 519 1010 q 683 922 640 967 q 750 809 726 878 q 774 646 774 740 m 447 869 q 367 852 403 869 q 307 804 332 835 q 268 731 282 774 q 254 636 254 688 q 294 512 254 557 q 397 467 335 467 q 482 486 444 467 q 545 538 519 506 q 584 613 571 571 q 597 701 597 656 q 558 823 597 776 q 447 869 519 869 z "},"\"":{"ha":613,"x_min":161,"x_max":669,"o":"m 243 996 l 421 996 l 304 685 l 161 685 l 243 996 m 492 996 l 669 996 l 553 685 l 410 685 l 492 996 z "},"#":{"ha":897,"x_min":36,"x_max":951,"o":"m 504 267 l 326 267 l 246 0 l 106 0 l 186 267 l 36 267 l 67 404 l 228 404 l 293 618 l 147 618 l 178 756 l 335 756 l 408 996 l 549 996 l 475 756 l 653 756 l 726 996 l 867 996 l 793 756 l 951 756 l 921 618 l 751 618 l 686 404 l 839 404 l 810 267 l 644 267 l 564 0 l 424 0 l 504 267 m 546 404 l 611 618 l 433 618 l 368 404 l 546 404 z "},"$":{"ha":764,"x_min":-12,"x_max":765,"o":"m 693 296 q 670 172 693 226 q 605 78 647 118 q 503 16 563 39 q 372 -12 444 -7 l 332 -208 l 174 -208 l 217 -4 q 78 40 133 10 q -12 101 22 69 l 24 235 q 83 194 49 214 q 157 158 117 174 q 244 134 197 143 q 340 125 290 125 q 476 165 431 125 q 522 275 522 204 q 512 332 522 308 q 481 374 501 356 q 427 408 460 393 q 350 439 394 422 q 265 476 306 456 q 193 526 225 496 q 142 599 161 556 q 124 707 124 642 q 146 824 124 771 q 208 915 168 876 q 303 976 249 953 q 425 1006 358 999 l 464 1182 l 619 1182 l 581 1000 q 692 969 647 989 q 765 929 738 949 l 731 794 q 617 851 682 831 q 482 871 553 871 q 338 831 385 871 q 292 726 292 792 q 303 671 292 693 q 337 632 315 649 q 388 602 358 615 q 454 575 418 589 q 543 538 500 557 q 619 488 586 518 q 673 411 653 457 q 693 296 693 365 z "},"%":{"ha":903,"x_min":-3,"x_max":940,"o":"m -3 -11 l 817 1006 l 940 1006 l 124 -11 l -3 -11 m 215 490 q 153 501 182 490 q 101 536 124 513 q 66 597 79 560 q 53 685 53 633 q 70 799 53 743 q 120 900 88 856 q 197 972 153 944 q 296 1000 242 1000 q 358 988 329 1000 q 410 953 388 976 q 447 892 433 929 q 460 804 460 856 q 442 690 460 746 q 393 589 425 633 q 316 517 361 544 q 215 490 271 490 m 282 893 q 236 874 256 893 q 203 826 217 856 q 183 760 190 797 q 176 689 176 724 q 191 617 176 638 q 229 596 206 596 q 276 615 256 596 q 309 663 296 633 q 329 728 322 692 q 336 800 336 764 q 322 872 336 851 q 282 893 307 893 m 636 -8 q 574 3 603 -8 q 522 38 544 14 q 487 99 500 63 q 474 188 474 136 q 491 301 474 244 q 541 401 508 357 q 618 474 574 446 q 717 501 663 501 q 779 490 750 501 q 831 456 808 479 q 867 395 854 432 q 881 307 881 358 q 863 192 881 249 q 814 91 846 136 q 737 19 782 46 q 636 -8 692 -8 m 703 394 q 657 376 676 394 q 624 328 638 357 q 604 263 611 299 q 597 190 597 226 q 612 119 597 139 q 651 99 626 99 q 697 117 678 99 q 730 165 717 136 q 750 231 743 194 q 757 304 757 268 q 742 374 757 354 q 703 394 728 394 z "},"&":{"ha":1049,"x_min":31,"x_max":974,"o":"m 864 0 q 763 16 811 0 q 665 68 714 32 q 536 8 607 31 q 381 -14 465 -14 q 237 5 301 -14 q 126 58 172 24 q 56 143 81 93 q 31 257 31 193 q 49 355 31 311 q 99 433 67 399 q 175 492 132 467 q 268 536 218 518 q 219 633 235 588 q 204 729 204 679 q 223 835 204 785 q 279 924 242 886 q 372 985 317 963 q 501 1008 428 1008 q 619 991 567 1008 q 707 942 671 974 q 763 867 743 911 q 782 768 782 822 q 762 672 782 714 q 706 595 742 629 q 622 535 671 561 q 517 488 574 508 l 635 340 q 665 304 650 321 q 693 272 679 288 q 758 381 732 322 q 797 497 783 439 l 928 440 q 876 308 910 376 q 790 179 843 240 q 924 138 850 138 q 949 138 935 138 q 974 142 963 139 l 949 15 q 916 5 938 10 q 864 0 894 0 m 372 744 q 390 660 372 697 q 439 586 408 624 q 571 658 526 618 q 615 763 615 697 q 586 847 615 815 q 501 879 557 879 q 404 841 436 879 q 372 744 372 803 m 199 271 q 255 160 199 194 q 401 125 311 125 q 488 135 447 125 q 563 163 528 144 q 467 275 518 210 l 340 438 q 240 374 281 413 q 199 271 199 336 z "},"'":{"ha":364,"x_min":161,"x_max":421,"o":"m 243 996 l 421 996 l 304 685 l 161 685 l 243 996 z "},"(":{"ha":536,"x_min":103,"x_max":638,"o":"m 236 -193 q 185 -102 210 -151 q 142 6 161 -53 q 113 135 124 65 q 103 286 103 204 q 193 712 104 514 q 453 1050 282 910 l 638 1050 q 486 901 554 985 q 369 717 418 817 q 294 507 321 618 q 267 275 267 396 q 276 131 267 197 q 304 6 286 64 q 347 -102 322 -53 q 399 -193 371 -151 l 236 -193 z "},")":{"ha":536,"x_min":-69,"x_max":465,"o":"m 332 1050 q 383 959 358 1008 q 426 851 407 910 q 455 722 444 792 q 465 571 465 653 q 375 145 464 343 q 115 -193 286 -53 l -69 -193 q 82 -44 14 -128 q 199 140 150 40 q 274 350 247 239 q 301 582 301 461 q 292 726 301 660 q 264 851 282 793 q 222 959 246 910 q 169 1050 197 1008 l 332 1050 z "},"*":{"ha":640,"x_min":133,"x_max":661,"o":"m 440 467 l 381 644 l 263 497 l 158 608 l 308 722 l 133 788 l 206 925 l 356 817 l 367 1006 l 517 978 l 461 800 l 642 851 l 661 697 l 474 693 l 575 535 l 440 467 z "},"+":{"ha":764,"x_min":40,"x_max":747,"o":"m 449 406 l 388 114 l 250 114 l 313 406 l 40 406 l 68 531 l 339 531 l 400 824 l 538 824 l 476 531 l 747 531 l 721 406 l 449 406 z "},",":{"ha":357,"x_min":-29,"x_max":240,"o":"m -29 -154 q 44 -83 13 -122 q 90 3 75 -43 q 37 44 54 15 q 19 104 19 72 q 49 183 19 151 q 129 214 79 214 q 210 181 179 214 q 240 92 240 147 q 227 18 240 54 q 193 -49 214 -18 q 146 -108 172 -81 q 93 -154 119 -135 l -29 -154 z "},"-":{"ha":488,"x_min":81,"x_max":438,"o":"m 113 497 l 438 497 l 407 356 l 81 356 l 113 497 z "},".":{"ha":358,"x_min":18,"x_max":243,"o":"m 131 -11 q 50 22 82 -11 q 18 103 18 56 q 50 184 18 151 q 131 217 82 217 q 211 184 179 217 q 243 103 243 151 q 211 22 243 56 q 131 -11 179 -11 z "},"/":{"ha":585,"x_min":-106,"x_max":742,"o":"m -106 -167 l 586 1050 l 742 1050 l 51 -167 l -106 -167 z "},":":{"ha":364,"x_min":18,"x_max":347,"o":"m 131 -11 q 50 22 82 -11 q 18 103 18 56 q 50 184 18 151 q 131 217 82 217 q 211 184 179 217 q 243 103 243 151 q 211 22 243 56 q 131 -11 179 -11 m 235 472 q 154 506 186 472 q 122 586 122 539 q 154 667 122 635 q 235 700 186 700 q 315 667 283 700 q 347 586 347 635 q 315 506 347 539 q 235 472 283 472 z "},"<":{"ha":764,"x_min":89,"x_max":765,"o":"m 89 392 l 122 546 l 765 815 l 733 667 l 246 461 l 647 256 l 617 121 l 89 392 z "},"=":{"ha":763,"x_min":10,"x_max":778,"o":"m 71 551 l 97 676 l 778 676 l 751 551 l 71 551 m 10 260 l 35 385 l 715 385 l 689 260 l 10 260 z "},">":{"ha":764,"x_min":31,"x_max":707,"o":"m 63 271 l 550 476 l 150 682 l 178 815 l 707 546 l 674 392 l 31 121 l 63 271 z "},"?":{"ha":640,"x_min":114,"x_max":675,"o":"m 675 756 q 650 639 675 686 q 588 558 625 592 q 506 499 550 524 q 422 449 461 474 q 354 396 382 425 q 321 325 326 367 l 318 296 l 163 296 l 167 331 q 199 440 172 397 q 263 511 226 482 q 341 561 300 540 q 417 606 382 582 q 476 661 453 629 q 499 744 499 693 q 460 838 499 803 q 332 872 421 872 q 244 863 290 872 q 161 839 197 854 l 188 975 q 272 999 222 990 q 371 1008 321 1008 q 600 939 525 1008 q 675 756 675 869 m 226 -11 q 147 22 181 -11 q 114 103 114 56 q 147 184 114 151 q 226 217 181 217 q 308 184 275 217 q 340 103 340 151 q 308 22 340 56 q 226 -11 275 -11 z "},"@":{"ha":1400,"x_min":68,"x_max":1389,"o":"m 1026 -196 q 974 -214 1007 -204 q 900 -232 942 -224 q 809 -245 858 -240 q 707 -250 760 -250 q 457 -212 574 -250 q 253 -98 340 -174 q 117 90 167 -22 q 68 349 68 201 q 119 615 68 494 q 263 824 171 736 q 481 959 354 911 q 757 1007 607 1007 q 1003 970 888 1007 q 1203 865 1118 933 q 1339 697 1289 796 q 1389 475 1389 599 q 1367 319 1389 393 q 1301 188 1344 244 q 1195 97 1258 131 q 1051 64 1132 64 q 966 76 1001 64 q 906 108 931 88 q 866 156 881 129 q 844 214 851 183 q 749 101 808 139 q 617 64 689 64 q 531 79 572 64 q 456 128 489 94 q 402 215 422 161 q 382 346 382 268 q 404 477 382 414 q 466 589 426 540 q 560 667 506 638 q 682 697 615 697 q 797 663 749 697 q 868 554 844 629 l 913 658 l 1035 658 l 985 331 q 983 271 981 299 q 995 222 985 243 q 1025 188 1006 200 q 1076 175 1044 175 q 1148 196 1115 175 q 1203 254 1181 217 q 1239 343 1226 292 q 1251 456 1251 394 q 1215 645 1251 563 q 1111 784 1178 728 q 953 869 1044 840 q 754 897 863 897 q 538 860 638 897 q 363 753 438 822 q 247 584 289 683 q 204 361 204 485 q 241 142 204 236 q 346 -15 278 47 q 509 -109 414 -78 q 721 -140 604 -140 q 913 -120 835 -140 q 1026 -81 990 -100 l 1026 -196 m 538 338 q 549 261 538 292 q 578 213 560 231 q 619 187 596 194 q 665 179 642 179 q 740 199 707 179 q 797 251 774 218 q 831 328 819 285 q 843 418 843 371 q 832 494 843 464 q 803 544 821 525 q 762 571 785 563 q 715 579 739 579 q 638 558 671 579 q 583 502 606 536 q 549 424 560 468 q 538 338 538 381 z "},"A":{"ha":963,"x_min":-56,"x_max":864,"o":"m 506 996 l 726 996 l 864 0 l 690 0 l 656 257 l 254 257 l 110 0 l -56 0 l 506 996 m 636 403 l 579 835 l 336 403 l 636 403 z "},"B":{"ha":899,"x_min":28,"x_max":858,"o":"m 240 996 l 550 996 q 782 937 706 996 q 858 765 858 878 q 794 597 858 657 q 629 514 731 538 q 776 439 724 494 q 829 288 829 383 q 799 161 829 215 q 714 72 768 107 q 586 18 660 36 q 426 0 513 0 l 28 0 l 240 996 m 383 849 l 328 586 l 479 586 q 558 594 521 586 q 621 621 594 603 q 663 667 647 639 q 678 735 678 694 q 639 823 678 797 q 526 849 600 849 l 383 849 m 296 439 l 235 147 l 449 147 q 597 181 543 147 q 650 297 650 215 q 601 406 650 372 q 454 439 553 439 l 296 439 z "},"C":{"ha":906,"x_min":69,"x_max":918,"o":"m 529 -14 q 349 15 433 -14 q 203 100 265 43 q 106 241 142 157 q 69 436 69 325 q 108 649 69 546 q 219 833 146 753 q 399 960 292 913 q 646 1008 507 1008 q 810 988 740 1008 q 918 942 879 968 l 883 793 q 778 842 842 824 q 639 861 714 861 q 467 826 539 861 q 347 732 394 790 q 277 599 300 674 q 254 447 254 525 q 276 305 254 364 q 338 208 299 246 q 433 151 378 169 q 556 133 489 133 q 683 149 618 133 q 807 200 749 165 l 775 50 q 669 3 735 21 q 529 -14 604 -14 z "},"D":{"ha":1004,"x_min":28,"x_max":978,"o":"m 240 996 l 547 996 q 717 973 639 996 q 853 901 796 950 q 944 773 911 851 q 978 582 978 694 q 940 362 978 467 q 829 176 903 257 q 647 48 756 96 q 396 0 539 0 l 28 0 l 240 996 m 383 849 l 235 147 l 413 147 q 575 181 504 147 q 694 272 646 214 q 769 407 743 329 q 794 574 794 485 q 776 704 794 651 q 722 789 757 757 q 640 835 688 821 q 533 849 592 849 l 383 849 z "},"E":{"ha":817,"x_min":28,"x_max":869,"o":"m 240 996 l 869 996 l 836 849 l 383 849 l 328 589 l 710 589 l 679 442 l 297 442 l 235 147 l 696 147 l 663 0 l 28 0 l 240 996 z "},"F":{"ha":776,"x_min":28,"x_max":860,"o":"m 240 996 l 860 996 l 829 849 l 383 849 l 322 560 l 697 560 l 665 413 l 290 413 l 203 0 l 28 0 l 240 996 z "},"G":{"ha":1018,"x_min":69,"x_max":1015,"o":"m 999 424 q 940 231 982 313 q 836 94 899 149 q 694 13 774 40 q 525 -14 615 -14 q 344 16 428 -14 q 200 103 261 46 q 104 246 139 161 q 69 440 69 331 q 106 653 69 550 q 213 835 142 756 q 390 961 285 914 q 632 1008 494 1008 q 748 999 696 1008 q 840 974 800 989 q 910 942 881 960 q 958 907 940 924 l 925 754 q 807 828 882 794 q 629 861 732 861 q 458 826 529 861 q 341 733 386 790 q 275 601 296 675 q 254 447 254 526 q 275 306 254 365 q 333 208 296 247 q 422 151 371 169 q 535 133 474 133 q 718 194 646 133 q 815 386 790 254 l 504 386 l 540 533 l 1015 533 l 999 424 l 999 424 z "},"H":{"ha":1010,"x_min":28,"x_max":1043,"o":"m 746 422 l 293 422 l 203 0 l 28 0 l 240 996 l 415 996 l 324 568 l 776 568 l 868 996 l 1043 996 l 831 0 l 656 0 l 746 422 z "},"I":{"ha":383,"x_min":28,"x_max":415,"o":"m 415 996 l 203 0 l 28 0 l 240 996 l 415 996 z "},"J":{"ha":543,"x_min":-35,"x_max":585,"o":"m 585 996 l 424 243 q 321 57 400 128 q 111 -14 242 -14 q -35 15 25 -14 l -6 157 q 103 133 46 133 q 208 169 174 133 q 257 274 243 204 l 411 996 l 585 996 z "},"K":{"ha":903,"x_min":28,"x_max":1007,"o":"m 396 422 l 293 422 l 203 0 l 28 0 l 240 996 l 415 996 l 324 568 l 433 568 l 814 996 l 1007 996 l 550 483 l 806 0 l 619 0 l 396 422 z "},"L":{"ha":774,"x_min":28,"x_max":674,"o":"m 642 0 l 28 0 l 240 996 l 415 996 l 235 147 l 674 147 l 642 0 z "},"M":{"ha":1207,"x_min":28,"x_max":1240,"o":"m 1011 746 l 628 153 l 474 153 l 347 760 l 185 0 l 28 0 l 240 996 l 460 996 l 590 346 l 1008 996 l 1240 996 l 1029 0 l 853 0 l 1011 746 z "},"N":{"ha":1019,"x_min":28,"x_max":1053,"o":"m 842 0 l 632 0 l 356 792 l 186 0 l 28 0 l 240 996 l 451 996 l 728 206 l 896 996 l 1053 996 l 842 0 z "},"O":{"ha":1031,"x_min":69,"x_max":1018,"o":"m 503 -14 q 327 17 407 -14 q 190 108 247 49 q 101 251 133 167 q 69 442 69 336 q 108 665 69 561 q 215 844 146 768 q 378 965 283 921 q 583 1008 472 1008 q 760 977 681 1008 q 897 887 840 946 q 986 744 954 828 q 1018 554 1018 660 q 979 330 1018 433 q 872 150 940 226 q 708 30 803 74 q 503 -14 614 -14 m 254 443 q 274 306 254 364 q 328 209 293 247 q 410 152 363 171 q 514 133 458 133 q 647 167 588 133 q 749 258 707 200 q 813 391 790 315 q 835 553 835 467 q 815 690 835 632 q 761 787 796 749 q 678 843 726 825 q 575 861 631 861 q 442 828 501 861 q 340 737 382 794 q 276 603 299 679 q 254 443 254 528 z "},"P":{"ha":854,"x_min":28,"x_max":888,"o":"m 240 996 l 547 996 q 688 978 625 996 q 796 924 751 960 q 864 835 840 889 q 888 710 888 782 q 856 563 888 628 q 770 453 825 497 q 639 385 715 408 q 472 361 563 361 l 279 361 l 203 0 l 28 0 l 240 996 m 383 849 l 311 508 l 504 508 q 651 559 599 508 q 704 700 704 610 q 692 772 704 743 q 656 817 679 800 q 600 842 633 835 q 526 849 567 849 l 383 849 z "},"Q":{"ha":1035,"x_min":69,"x_max":1018,"o":"m 903 -207 q 633 -117 763 -167 q 408 -26 504 -67 q 268 49 331 8 q 162 146 206 90 q 94 274 118 201 q 69 442 69 346 q 108 665 69 561 q 215 844 146 768 q 378 965 283 921 q 583 1008 472 1008 q 760 977 681 1008 q 897 887 840 946 q 986 744 954 828 q 1018 554 1018 660 q 994 378 1018 463 q 921 222 969 293 q 800 100 872 151 q 631 25 728 49 q 803 -17 718 0 q 957 -43 888 -33 l 903 -207 m 254 443 q 274 306 254 364 q 328 209 293 247 q 410 152 363 171 q 514 133 458 133 q 647 167 588 133 q 749 258 707 200 q 813 391 790 315 q 835 553 835 467 q 815 690 835 632 q 761 787 796 749 q 678 843 726 825 q 575 861 631 861 q 442 828 501 861 q 340 737 382 794 q 276 603 299 679 q 254 443 254 528 z "},"R":{"ha":904,"x_min":28,"x_max":897,"o":"m 240 996 l 564 996 q 813 928 728 996 q 897 724 897 861 q 822 516 897 596 q 625 407 747 436 l 792 0 l 608 0 l 450 392 l 286 392 l 203 0 l 28 0 l 240 996 m 383 849 l 317 533 l 506 533 q 661 578 604 533 q 718 710 718 622 q 672 818 718 788 q 538 849 625 849 l 383 849 z "},"S":{"ha":832,"x_min":21,"x_max":817,"o":"m 388 -14 q 261 -3 319 -14 q 156 26 203 8 q 74 67 108 44 q 21 111 40 89 l 51 256 q 114 208 76 231 q 197 169 151 186 q 292 143 242 153 q 394 133 343 133 q 544 172 499 133 q 590 278 590 211 q 578 334 590 311 q 541 374 565 357 q 481 404 517 390 q 400 435 446 418 q 303 472 351 451 q 217 522 256 492 q 156 599 179 553 q 132 713 132 644 q 158 835 132 781 q 233 928 185 889 q 351 988 282 967 q 508 1008 421 1008 q 614 1000 565 1008 q 702 979 663 992 q 771 951 742 967 q 817 922 800 936 l 786 779 q 664 840 738 819 q 508 861 590 861 q 351 825 400 861 q 303 732 303 789 q 319 674 303 697 q 361 635 335 651 q 422 606 388 618 q 496 579 457 593 q 594 541 546 563 q 680 488 642 519 q 742 408 718 456 q 765 290 765 360 q 738 160 765 217 q 661 65 711 103 q 542 6 611 26 q 388 -14 472 -14 z "},"T":{"ha":839,"x_min":136,"x_max":939,"o":"m 611 849 l 429 0 l 253 0 l 435 849 l 136 849 l 168 996 l 939 996 l 907 849 l 611 849 z "},"U":{"ha":943,"x_min":71,"x_max":1004,"o":"m 219 996 l 394 996 l 265 388 q 260 274 251 322 q 297 195 269 226 q 366 149 324 164 q 460 133 408 133 q 625 192 564 133 q 714 378 686 251 l 846 996 l 1004 996 l 867 354 q 726 81 829 176 q 450 -14 624 -14 q 289 11 364 -14 q 163 89 214 36 q 92 223 113 142 q 96 417 71 304 l 219 996 z "},"V":{"ha":946,"x_min":146,"x_max":1064,"o":"m 511 0 l 282 0 l 146 996 l 322 996 l 431 158 l 893 996 l 1064 996 l 511 0 z "},"W":{"ha":1349,"x_min":163,"x_max":1453,"o":"m 1029 0 l 796 0 l 754 740 l 399 0 l 163 0 l 165 996 l 339 996 l 329 183 l 721 996 l 894 996 l 947 181 l 1289 996 l 1453 996 l 1029 0 z "},"X":{"ha":885,"x_min":-65,"x_max":993,"o":"m 442 383 l 125 0 l -65 0 l 376 519 l 168 996 l 354 996 l 514 635 l 804 996 l 993 996 l 576 499 l 793 0 l 606 0 l 442 383 z "},"Y":{"ha":849,"x_min":149,"x_max":974,"o":"m 526 411 l 439 0 l 263 0 l 353 425 l 149 996 l 333 996 l 474 572 l 794 996 l 974 996 l 526 411 z "},"Z":{"ha":854,"x_min":-22,"x_max":914,"o":"m 717 0 l -22 0 l 6 129 l 661 849 l 160 849 l 192 996 l 914 996 l 886 865 l 231 147 l 749 147 l 717 0 z "},"[":{"ha":608,"x_min":19,"x_max":710,"o":"m 285 1050 l 710 1050 l 682 921 l 417 921 l 207 -62 l 471 -62 l 444 -193 l 19 -193 l 285 1050 z "},"\\":{"ha":578,"x_min":143,"x_max":460,"o":"m 143 1050 l 290 1050 l 460 -167 l 311 -167 l 143 1050 z "},"]":{"ha":608,"x_min":-60,"x_max":631,"o":"m 365 -193 l -60 -193 l -32 -64 l 233 -64 l 443 919 l 179 919 l 206 1050 l 631 1050 l 365 -193 z "},"^":{"ha":610,"x_min":83,"x_max":646,"o":"m 418 871 l 219 636 l 83 636 l 357 996 l 526 996 l 646 636 l 515 636 l 418 871 z "},"_":{"ha":556,"x_min":-125,"x_max":489,"o":"m -96 -49 l 489 -49 l 460 -181 l -125 -181 l -96 -49 z "},"`":{"ha":628,"x_min":264,"x_max":574,"o":"m 449 817 l 264 1036 l 453 1036 l 574 817 l 449 817 z "},"a":{"ha":740,"x_min":17,"x_max":693,"o":"m 436 0 q 438 49 436 17 q 444 114 439 81 q 409 67 429 90 q 363 26 389 44 q 303 -3 336 8 q 228 -14 269 -14 q 149 -3 188 -14 q 82 33 111 8 q 35 95 53 57 q 17 186 17 133 q 110 368 17 306 q 378 431 203 431 l 508 431 q 511 515 518 482 q 484 566 504 547 q 432 592 464 585 q 361 599 400 599 q 244 587 303 599 q 135 551 185 575 l 163 686 q 271 722 211 710 q 397 735 331 735 q 527 718 468 735 q 625 664 586 701 q 678 565 664 626 q 674 414 693 503 l 610 117 q 604 90 607 106 q 599 57 601 74 q 594 25 596 40 q 592 0 592 10 l 436 0 m 289 111 q 368 131 335 111 q 424 176 401 150 q 458 228 446 201 q 475 269 471 254 l 488 326 l 363 326 q 229 293 271 326 q 188 204 188 260 q 216 133 188 156 q 289 111 244 111 z "},"b":{"ha":847,"x_min":14,"x_max":808,"o":"m 808 425 q 779 247 808 328 q 700 108 750 167 q 582 18 650 50 q 436 -14 514 -14 q 289 26 347 -14 q 206 138 231 67 l 171 0 l 14 0 l 226 996 l 393 996 l 315 635 q 409 708 356 681 q 529 735 463 735 q 733 654 657 735 q 808 425 808 574 m 417 124 q 507 147 467 124 q 575 208 547 169 q 617 298 603 246 q 632 408 632 350 q 588 554 632 508 q 471 600 543 600 q 378 577 418 600 q 312 515 339 554 q 271 423 285 475 q 257 314 257 371 q 301 171 256 218 q 417 124 346 124 z "},"c":{"ha":690,"x_min":43,"x_max":667,"o":"m 394 -14 q 257 8 321 -14 q 145 72 193 29 q 70 178 97 114 q 43 326 43 242 q 73 489 43 414 q 157 619 103 564 q 287 704 211 674 q 456 735 363 735 q 581 719 528 735 q 667 679 635 703 l 638 547 q 556 585 597 572 q 465 599 515 599 q 355 578 401 599 q 277 522 308 557 q 231 439 246 486 q 215 338 215 392 q 233 238 215 279 q 279 172 250 197 q 347 134 308 146 q 431 122 386 122 q 513 131 471 122 q 596 161 556 140 l 567 22 q 394 -14 494 -14 z "},"d":{"ha":847,"x_min":43,"x_max":896,"o":"m 546 99 q 447 17 503 47 q 318 -14 390 -14 q 211 6 261 -14 q 124 66 161 26 q 65 165 86 106 q 43 306 43 225 q 70 472 43 393 q 145 608 97 550 q 260 701 193 667 q 410 735 328 735 q 556 696 497 735 q 642 588 614 657 l 729 996 l 896 996 l 683 0 l 531 0 l 546 99 m 594 415 q 550 553 594 507 q 433 599 506 599 q 341 576 381 599 q 274 515 301 554 q 233 426 247 476 q 219 319 219 375 q 267 168 219 214 q 383 122 314 122 q 482 149 442 122 q 547 217 522 175 q 583 310 572 258 q 594 415 594 363 z "},"e":{"ha":772,"x_min":43,"x_max":733,"o":"m 625 26 q 542 -1 593 13 q 417 -14 492 -14 q 263 8 332 -14 q 145 71 194 29 q 69 176 96 113 q 43 322 43 239 q 72 486 43 411 q 153 617 101 561 q 278 703 206 672 q 438 735 350 735 q 577 708 514 735 q 679 628 640 681 q 726 497 718 575 q 697 315 733 418 l 213 315 q 276 168 218 214 q 440 122 335 122 q 559 135 504 122 q 654 164 614 149 l 625 26 m 426 606 q 297 559 349 606 q 226 438 246 513 l 565 438 q 563 514 571 482 q 535 566 554 546 q 488 596 517 586 q 426 606 460 606 z "},"f":{"ha":553,"x_min":38,"x_max":658,"o":"m 360 588 l 206 -176 l 38 -176 l 192 588 l 107 588 l 135 721 l 219 721 l 222 736 q 326 941 250 874 q 539 1008 401 1008 q 606 1006 571 1008 q 658 996 640 1003 l 628 861 q 589 869 617 865 q 533 872 561 872 q 437 842 469 872 q 389 736 404 813 l 386 721 l 586 721 l 558 588 l 360 588 z "},"g":{"ha":839,"x_min":-10,"x_max":835,"o":"m 696 110 q 649 -42 679 25 q 569 -154 618 -108 q 448 -224 519 -200 q 275 -249 376 -249 q 101 -224 171 -249 q -10 -167 32 -199 l 19 -32 q 130 -89 65 -65 q 276 -112 194 -112 q 375 -100 333 -112 q 447 -61 417 -87 q 497 8 478 -35 q 529 110 517 50 l 532 119 q 442 54 493 79 q 322 29 390 29 q 213 49 264 29 q 125 107 163 68 q 66 204 88 146 q 44 339 44 263 q 72 493 44 421 q 147 619 99 565 q 260 703 194 672 q 407 735 326 735 q 555 696 496 735 q 639 592 614 657 l 643 606 q 659 666 649 631 q 678 721 669 701 l 835 721 q 818 665 828 701 q 803 606 808 629 l 696 110 m 382 160 q 475 184 436 160 q 539 247 514 208 q 576 334 564 286 q 588 428 588 382 q 544 556 588 513 q 431 599 501 599 q 340 578 379 599 q 275 522 301 557 q 235 441 249 488 q 222 344 222 394 q 267 203 222 246 q 382 160 313 160 z "},"h":{"ha":808,"x_min":14,"x_max":763,"o":"m 474 599 q 411 590 439 599 q 360 567 383 582 q 319 534 338 553 q 288 496 301 515 l 181 0 l 14 0 l 228 1003 l 394 1003 l 338 732 l 306 606 l 308 606 q 407 698 349 661 q 549 735 465 735 q 647 717 603 735 q 718 662 690 699 q 754 570 746 625 q 747 443 763 515 l 653 0 l 485 0 l 579 444 q 585 519 589 489 q 565 566 581 549 q 526 591 550 583 q 474 599 503 599 z "},"i":{"ha":344,"x_min":14,"x_max":386,"o":"m 283 807 q 210 838 240 807 q 181 913 181 869 q 210 988 181 957 q 283 1018 240 1018 q 356 988 326 1018 q 386 913 386 957 q 356 838 386 869 q 283 807 326 807 m 335 721 l 182 0 l 14 0 l 168 721 l 335 721 z "},"j":{"ha":360,"x_min":-217,"x_max":403,"o":"m 299 807 q 226 838 257 807 q 196 913 196 869 q 226 988 196 957 q 299 1018 257 1018 q 373 988 343 1018 q 403 913 403 957 q 373 838 403 869 q 299 807 343 807 m 193 -24 q 103 -197 169 -135 q -85 -260 36 -260 q -153 -253 -118 -260 q -217 -231 -189 -247 l -187 -100 q -145 -117 -169 -111 q -89 -124 -121 -124 q -6 -92 -31 -124 q 29 -3 18 -61 l 185 721 l 351 721 l 193 -24 z "},"k":{"ha":731,"x_min":14,"x_max":796,"o":"m 311 294 l 243 294 l 181 0 l 14 0 l 226 996 l 393 996 l 272 428 l 338 428 l 610 721 l 796 721 l 457 357 l 653 0 l 472 0 l 311 294 z "},"l":{"ha":343,"x_min":14,"x_max":393,"o":"m 393 996 l 181 0 l 14 0 l 226 996 l 393 996 z "},"m":{"ha":1225,"x_min":14,"x_max":1181,"o":"m 181 0 l 14 0 l 167 721 l 325 721 l 306 606 l 308 606 q 399 698 344 661 q 533 735 454 735 q 661 696 610 735 q 726 576 713 657 q 834 695 769 656 q 978 735 899 735 q 1070 717 1029 735 q 1138 663 1111 699 q 1172 572 1164 626 q 1165 444 1181 518 l 1069 0 l 901 0 l 997 444 q 1003 519 1007 489 q 985 566 999 549 q 950 591 972 583 q 903 599 928 599 q 806 572 849 599 q 733 501 764 546 l 625 0 l 457 0 l 553 444 q 558 519 563 489 q 541 566 554 549 q 506 591 528 583 q 458 599 485 599 q 358 569 397 599 q 288 496 318 539 l 181 0 z "},"n":{"ha":808,"x_min":14,"x_max":763,"o":"m 474 599 q 411 590 439 599 q 360 567 383 582 q 319 534 338 553 q 288 496 301 515 l 181 0 l 14 0 l 167 721 l 325 721 l 306 606 l 308 606 q 408 698 349 661 q 549 735 467 735 q 647 717 603 735 q 718 662 690 699 q 754 570 746 625 q 747 443 763 515 l 653 0 l 485 0 l 579 444 q 585 519 589 489 q 565 566 581 549 q 526 591 550 583 q 474 599 503 599 z "},"o":{"ha":801,"x_min":43,"x_max":763,"o":"m 375 -14 q 242 10 303 -14 q 137 76 181 33 q 68 181 93 119 q 43 321 43 243 q 69 475 43 400 q 146 608 96 550 q 268 700 196 665 q 431 735 340 735 q 564 711 503 735 q 669 644 625 688 q 738 538 713 600 q 763 399 763 476 q 736 245 763 319 q 660 113 710 171 q 538 21 610 56 q 375 -14 465 -14 m 217 324 q 263 171 217 219 q 379 122 308 122 q 469 145 431 122 q 535 206 508 168 q 575 293 561 243 q 589 397 589 343 q 543 551 589 503 q 426 599 497 599 q 336 576 375 599 q 271 515 297 553 q 231 428 244 478 q 217 324 217 378 z "},"p":{"ha":847,"x_min":-40,"x_max":808,"o":"m 446 -14 q 298 26 358 -14 q 210 133 238 65 l 128 -246 l -40 -246 l 167 721 l 321 721 l 308 631 q 405 707 349 679 q 532 735 461 735 q 645 714 594 735 q 732 653 696 693 q 788 555 768 614 q 808 419 808 496 q 781 247 808 326 q 703 110 753 168 q 588 19 654 51 q 446 -14 522 -14 m 257 317 q 302 172 257 219 q 418 124 347 124 q 510 147 469 124 q 577 209 550 169 q 618 299 604 249 q 632 407 632 350 q 588 553 632 507 q 471 600 543 600 q 378 577 418 600 q 312 515 339 554 q 271 425 285 476 q 257 317 257 374 z "},"q":{"ha":850,"x_min":43,"x_max":844,"o":"m 632 -246 l 464 -246 l 535 85 q 442 13 494 40 q 321 -14 389 -14 q 212 6 263 -14 q 124 67 161 26 q 65 167 86 107 q 43 307 43 228 q 69 472 43 394 q 144 608 96 550 q 259 701 192 667 q 410 735 326 735 q 560 694 501 735 q 646 579 619 653 l 653 606 q 669 666 660 631 q 689 721 679 701 l 844 721 q 828 665 838 701 q 814 606 818 629 l 632 -246 m 594 407 q 550 551 594 504 q 433 599 506 599 q 341 576 381 599 q 274 516 301 554 q 233 428 247 478 q 219 322 219 378 q 265 170 219 218 q 382 122 311 122 q 479 149 439 122 q 545 216 519 175 q 583 308 571 257 q 594 407 594 358 z "},"r":{"ha":531,"x_min":14,"x_max":565,"o":"m 529 560 q 383 544 446 572 q 279 458 319 517 l 181 0 l 14 0 l 167 721 l 321 721 l 299 572 l 301 572 q 349 639 322 608 q 410 691 376 669 q 482 724 443 713 q 565 735 521 736 l 529 560 l 529 560 z "},"s":{"ha":656,"x_min":11,"x_max":622,"o":"m 589 217 q 517 47 589 108 q 306 -14 444 -14 q 203 -5 250 -14 q 120 18 157 4 q 56 49 83 32 q 11 82 28 65 l 40 214 q 155 150 83 178 q 311 122 226 122 q 372 128 349 122 q 409 146 396 135 q 428 170 422 157 q 433 199 433 183 q 421 241 433 225 q 388 267 408 257 q 340 285 367 278 q 285 300 313 292 q 211 326 247 311 q 147 363 175 340 q 101 421 118 386 q 83 507 83 456 q 105 606 83 564 q 165 677 126 649 q 256 720 203 706 q 371 735 308 735 q 528 710 464 735 q 622 664 592 686 l 594 535 q 499 579 554 560 q 371 599 444 599 q 273 581 307 599 q 239 525 239 564 q 250 488 239 501 q 280 464 261 474 q 323 447 299 454 q 375 432 347 440 q 451 408 413 421 q 519 372 489 394 q 569 312 550 349 q 589 217 589 275 z "},"t":{"ha":536,"x_min":67,"x_max":561,"o":"m 414 17 q 281 -14 361 -14 q 114 56 161 -14 q 92 240 67 125 l 167 588 l 83 588 l 111 721 l 196 721 l 228 872 l 394 872 l 363 721 l 561 721 l 532 588 l 333 588 l 260 239 q 267 149 246 176 q 339 122 289 122 q 392 128 365 122 q 440 149 419 135 l 414 17 l 414 17 z "},"u":{"ha":797,"x_min":50,"x_max":788,"o":"m 339 122 q 443 153 401 122 q 514 226 485 183 l 619 721 l 788 721 l 633 0 l 481 0 l 494 115 l 492 115 q 397 24 451 61 q 260 -14 342 -14 q 165 4 207 -14 q 95 58 122 22 q 59 148 68 94 q 65 272 50 201 l 160 721 l 329 721 l 235 281 q 249 160 217 197 q 339 122 281 122 z "},"v":{"ha":724,"x_min":86,"x_max":793,"o":"m 394 0 l 174 0 l 86 721 l 257 721 l 321 150 l 629 721 l 793 721 l 394 0 z "},"w":{"ha":1117,"x_min":113,"x_max":1161,"o":"m 853 0 l 617 0 l 590 511 l 344 0 l 114 0 l 113 721 l 279 721 l 271 142 l 551 721 l 728 721 l 761 135 l 1006 721 l 1161 721 l 853 0 z "},"x":{"ha":717,"x_min":-67,"x_max":768,"o":"m 332 256 l 111 0 l -67 0 l 267 379 l 113 721 l 292 721 l 397 488 l 590 721 l 768 721 l 463 364 l 631 0 l 451 0 l 332 256 z "},"y":{"ha":749,"x_min":-71,"x_max":800,"o":"m 397 -12 q 326 -121 363 -75 q 247 -198 289 -167 q 155 -244 204 -229 q 46 -260 106 -260 q -18 -256 13 -260 q -71 -240 -49 -251 l -40 -104 q 7 -119 -19 -115 q 63 -124 33 -124 q 147 -103 111 -124 q 215 -44 183 -83 l 92 721 l 264 721 l 340 163 l 639 721 l 800 721 l 397 -12 l 397 -12 z "},"z":{"ha":661,"x_min":-28,"x_max":689,"o":"m 538 0 l -28 0 l -4 114 l 447 589 l 110 589 l 138 721 l 689 721 l 667 614 l 210 133 l 565 133 l 538 0 z "},"{":{"ha":582,"x_min":61,"x_max":676,"o":"m 421 -192 q 368 -197 392 -194 q 321 -199 344 -199 q 162 -156 215 -199 q 108 -32 108 -112 q 120 51 108 11 q 146 126 132 90 q 172 197 160 163 q 183 264 183 231 q 154 329 183 304 q 61 361 125 354 l 88 490 q 174 508 139 494 q 229 542 208 521 q 260 591 250 563 q 274 653 271 619 q 278 745 281 694 q 286 850 276 796 q 374 995 304 942 q 567 1049 444 1049 q 619 1046 592 1049 q 676 1039 646 1043 l 650 914 q 607 922 626 921 q 569 924 588 924 q 476 892 507 924 q 438 819 446 860 q 429 731 428 775 q 422 643 431 688 q 408 579 418 611 q 374 518 397 547 q 314 465 351 489 q 218 424 276 440 q 315 361 289 400 q 340 268 342 322 q 330 199 340 232 q 306 133 319 165 q 283 69 293 100 q 272 4 272 38 q 297 -54 272 -33 q 375 -75 321 -75 q 446 -67 404 -75 l 421 -192 l 421 -192 z "},"|":{"ha":425,"x_min":147,"x_max":299,"o":"m 299 1050 l 299 -167 l 147 -167 l 147 1050 l 299 1050 z "},"}":{"ha":582,"x_min":-71,"x_max":544,"o":"m 185 1049 q 238 1053 214 1051 q 285 1056 261 1056 q 444 1012 390 1056 q 497 889 497 969 q 485 806 497 846 q 460 731 474 767 q 434 660 446 694 q 422 593 422 626 q 451 528 422 553 q 544 496 481 503 l 518 367 q 432 349 467 363 q 376 315 397 336 q 345 266 356 294 q 332 204 335 238 q 327 112 325 163 q 319 7 329 61 q 231 -138 301 -85 q 39 -192 161 -192 q -13 -189 14 -192 q -71 -182 -40 -186 l -44 -57 q -1 -65 -21 -64 q 36 -67 18 -67 q 129 -35 99 -67 q 168 38 160 -3 q 176 126 178 82 q 183 214 175 169 q 198 278 188 246 q 231 339 208 310 q 292 392 254 368 q 388 433 329 417 q 290 496 317 457 q 265 589 264 535 q 276 658 265 625 q 299 724 286 692 q 323 788 313 757 q 333 853 333 819 q 309 911 333 890 q 231 932 285 932 q 160 924 201 932 l 185 1049 l 185 1049 z "},"~":{"ha":860,"x_min":53,"x_max":833,"o":"m 54 332 q 69 434 53 386 q 119 518 86 482 q 199 576 151 554 q 308 597 247 597 q 405 579 364 597 q 478 540 446 561 q 540 500 511 518 q 603 482 569 482 q 671 512 647 482 q 701 607 694 542 l 832 607 q 819 505 833 553 q 774 421 804 457 q 697 363 743 385 q 590 342 651 342 q 491 360 532 342 q 417 399 450 378 q 355 439 383 421 q 293 457 326 457 q 222 430 253 457 q 185 332 192 403 l 54 332 l 54 332 z "}," ":{"ha":278,"x_min":0,"x_max":0,"o":""},"¡":{"ha":354,"x_min":-40,"x_max":343,"o":"m -40 -265 l 128 428 l 261 428 l 132 -265 l -40 -265 m 231 735 q 311 701 279 735 q 343 621 343 668 q 310 540 343 572 q 229 507 278 507 q 149 540 181 507 q 118 621 118 572 q 150 701 118 668 q 231 735 182 735 z "},"¢":{"ha":764,"x_min":79,"x_max":703,"o":"m 431 -14 l 428 -14 l 388 -203 l 238 -203 l 282 11 q 181 71 225 32 q 106 178 133 114 q 79 326 79 242 q 109 489 79 414 q 193 619 139 564 q 322 704 247 674 q 435 732 375 725 l 472 907 l 622 907 l 585 726 q 617 718 601 724 q 703 679 671 703 l 674 547 q 592 585 633 572 q 501 599 551 599 q 391 578 438 599 q 313 522 344 557 q 267 439 282 486 q 251 338 251 392 q 269 238 251 279 q 315 172 286 197 q 383 134 344 146 q 467 122 422 122 q 549 131 507 122 q 632 161 592 140 l 603 22 q 431 -14 531 -14 z "},"£":{"ha":764,"x_min":-6,"x_max":778,"o":"m 647 0 l -6 0 l 17 92 q 156 226 118 153 q 197 386 194 300 l 63 386 l 92 517 l 190 517 q 185 576 188 546 q 182 640 182 606 q 208 793 182 725 q 283 909 233 861 q 406 983 333 957 q 574 1008 479 1008 q 700 995 647 1008 q 778 967 753 982 l 749 833 q 673 860 721 849 q 575 871 625 871 q 474 856 515 871 q 406 811 432 840 q 369 741 381 782 q 357 649 357 700 q 358 581 357 613 q 363 517 360 549 l 594 517 l 565 386 l 361 386 q 326 259 354 324 q 226 136 299 194 l 678 136 l 647 0 z "},"¥":{"ha":764,"x_min":31,"x_max":872,"o":"m 411 186 l 372 0 l 203 0 l 243 186 l 31 186 l 57 303 l 268 303 l 288 396 l 76 396 l 100 513 l 281 513 l 126 996 l 304 996 l 419 600 l 708 996 l 872 996 l 517 513 l 692 513 l 668 396 l 456 396 l 436 303 l 649 303 l 622 186 l 411 186 z "},"§":{"ha":801,"x_min":-49,"x_max":822,"o":"m 632 13 q 603 -110 632 -57 q 524 -199 574 -162 q 406 -253 474 -235 q 261 -272 339 -272 q 159 -264 207 -272 q 71 -242 111 -256 q 0 -212 31 -229 q -49 -181 -31 -196 l -21 -47 q 29 -81 -1 -64 q 98 -110 60 -97 q 181 -132 136 -124 q 271 -140 225 -140 q 413 -106 363 -140 q 464 -12 464 -72 q 416 72 464 44 q 285 128 368 100 q 194 165 236 144 q 119 215 151 186 q 69 280 88 243 q 50 367 50 317 q 108 513 50 457 q 257 585 167 569 q 179 746 179 646 q 203 851 179 803 q 272 935 226 900 q 385 991 318 971 q 538 1011 451 1011 q 717 986 644 1011 q 822 938 790 961 l 793 804 q 678 860 749 840 q 529 879 608 879 q 388 847 429 879 q 346 767 346 815 q 358 718 346 739 q 392 682 369 697 q 445 654 414 667 q 515 629 476 642 q 607 593 563 614 q 685 543 651 572 q 738 475 718 514 q 758 386 758 436 q 702 241 758 296 q 556 169 646 186 q 613 103 593 142 q 632 13 632 65 m 213 394 q 233 332 213 358 q 287 288 254 306 q 360 263 319 271 q 442 254 401 254 q 560 284 524 254 q 597 358 597 314 q 576 421 597 394 q 523 465 556 447 q 449 490 490 482 q 368 499 408 499 q 249 469 285 499 q 213 394 213 439 z "},"¨":{"ha":628,"x_min":186,"x_max":706,"o":"m 289 810 q 215 840 244 810 q 186 911 186 869 q 215 985 186 956 q 289 1014 244 1014 q 364 985 333 1014 q 394 911 394 956 q 364 840 394 869 q 289 810 333 810 m 601 810 q 527 840 557 810 q 497 911 497 869 q 527 985 497 956 q 601 1014 557 1014 q 676 985 646 1014 q 706 911 706 956 q 676 840 706 869 q 601 810 646 810 z "},"©":{"ha":1253,"x_min":68,"x_max":1207,"o":"m 638 -140 q 413 -97 517 -140 q 233 23 310 -54 q 112 206 156 100 q 68 440 68 313 q 112 671 68 565 q 233 853 156 776 q 413 972 310 929 q 638 1015 517 1015 q 863 972 758 1015 q 1043 853 967 929 q 1163 671 1119 776 q 1207 440 1207 565 q 1163 206 1207 313 q 1043 23 1119 100 q 863 -97 967 -54 q 638 -140 758 -140 m 638 -40 q 825 -5 740 -40 q 970 94 910 31 q 1063 247 1031 158 q 1096 440 1096 335 q 1063 632 1096 544 q 970 783 1031 719 q 825 881 910 846 q 638 917 740 917 q 450 881 535 917 q 305 783 365 846 q 211 632 244 719 q 178 440 178 544 q 211 247 178 335 q 305 94 244 158 q 450 -5 365 31 q 638 -40 535 -40 m 669 139 q 447 218 529 139 q 364 438 364 297 q 444 657 364 579 q 668 735 524 735 q 765 724 725 735 q 829 697 806 713 l 829 575 q 760 605 800 594 q 675 615 719 615 q 507 438 507 615 q 681 260 507 260 q 760 270 722 260 q 829 304 797 281 l 829 182 q 768 153 808 167 q 669 139 728 139 z "},"ª":{"ha":653,"x_min":97,"x_max":693,"o":"m 464 456 q 465 496 464 469 q 472 553 467 522 q 400 476 446 511 q 282 442 354 442 q 214 452 247 442 q 155 484 181 463 q 113 538 129 506 q 97 617 97 571 q 176 774 97 717 q 410 831 254 831 l 528 831 q 531 899 536 872 q 507 942 525 926 q 460 965 489 958 q 396 971 432 971 q 289 958 338 971 q 199 926 240 946 l 222 1047 q 316 1080 263 1067 q 436 1093 369 1093 q 555 1077 503 1093 q 640 1027 607 1061 q 683 939 672 993 q 676 808 693 885 l 622 556 q 617 533 619 547 q 612 505 614 519 q 608 477 610 490 q 606 456 606 464 l 464 456 m 339 551 q 403 566 375 551 q 450 600 431 581 q 481 641 469 619 q 496 678 492 663 l 497 683 l 497 686 l 508 736 l 404 736 q 288 707 324 736 q 251 632 251 678 q 275 572 251 592 q 339 551 299 551 z "},"«":{"ha":721,"x_min":57,"x_max":733,"o":"m 519 361 l 624 89 l 467 89 l 358 374 l 564 651 l 733 651 l 519 361 m 221 361 l 325 89 l 167 89 l 57 374 l 263 651 l 435 651 l 221 361 z "},"¬":{"ha":814,"x_min":65,"x_max":772,"o":"m 686 128 l 549 128 l 608 406 l 65 406 l 93 531 l 772 531 l 751 431 l 686 128 z "},"®":{"ha":1253,"x_min":68,"x_max":1207,"o":"m 638 -140 q 413 -97 517 -140 q 233 23 310 -54 q 112 206 156 100 q 68 440 68 313 q 112 671 68 565 q 233 853 156 776 q 413 972 310 929 q 638 1015 517 1015 q 863 972 758 1015 q 1043 853 967 929 q 1163 671 1119 776 q 1207 440 1207 565 q 1163 206 1207 313 q 1043 23 1119 100 q 863 -97 967 -54 q 638 -140 758 -140 m 638 -40 q 825 -5 740 -40 q 970 94 910 31 q 1063 247 1031 158 q 1096 440 1096 335 q 1063 632 1096 544 q 970 783 1031 719 q 825 881 910 846 q 638 917 740 917 q 450 881 535 917 q 305 783 365 846 q 211 632 244 719 q 178 440 178 544 q 211 247 178 335 q 305 94 244 158 q 450 -5 365 31 q 638 -40 535 -40 m 422 729 l 633 729 q 812 685 751 729 q 872 546 872 642 q 844 440 872 479 q 765 382 815 400 l 897 149 l 747 149 l 628 360 l 557 360 l 557 149 l 422 149 l 422 729 m 557 618 l 557 467 l 635 467 q 709 483 683 467 q 735 543 735 500 q 709 601 735 585 q 633 618 683 618 l 557 618 z "},"¯":{"ha":628,"x_min":214,"x_max":671,"o":"m 240 961 l 671 961 l 646 840 l 214 840 l 240 961 z "},"°":{"ha":643,"x_min":101,"x_max":543,"o":"m 321 569 q 233 586 274 569 q 164 633 193 603 q 118 703 135 663 q 101 793 101 744 q 118 883 101 842 q 164 953 135 924 q 233 999 193 982 q 321 1015 274 1015 q 409 999 368 1015 q 480 953 450 982 q 526 883 510 924 q 543 793 543 842 q 526 703 543 744 q 480 633 510 663 q 409 586 450 603 q 321 569 368 569 m 321 672 q 404 706 374 672 q 435 793 435 739 q 404 881 435 847 q 321 914 374 914 q 239 881 269 914 q 208 793 208 847 q 239 706 208 739 q 321 672 269 672 z "},"±":{"ha":764,"x_min":-44,"x_max":753,"o":"m 456 419 l 408 196 l 269 196 l 317 419 l 46 419 l 72 544 l 344 544 l 403 824 l 540 824 l 482 544 l 753 544 l 726 419 l 456 419 m -44 0 l -17 125 l 664 125 l 636 0 l -44 0 z "},"´":{"ha":628,"x_min":307,"x_max":657,"o":"m 467 1036 l 657 1036 l 436 817 l 307 817 l 467 1036 z "},"¶":{"ha":892,"x_min":108,"x_max":921,"o":"m 108 658 q 139 802 108 739 q 223 908 169 865 q 350 974 276 951 q 510 996 424 996 l 699 996 l 433 -257 l 293 -257 l 428 381 l 406 381 q 287 399 342 381 q 192 452 232 417 q 131 539 153 488 q 108 658 108 590 m 654 -257 l 514 -257 l 782 996 l 921 996 l 654 -257 z "},"·":{"ha":357,"x_min":69,"x_max":294,"o":"m 182 254 q 101 288 133 254 q 69 368 69 321 q 101 449 69 417 q 182 482 133 482 q 263 449 231 482 q 294 368 294 417 q 263 288 294 321 q 182 254 231 254 z "},"¸":{"ha":628,"x_min":74,"x_max":392,"o":"m 392 28 l 251 -260 l 74 -260 l 264 28 l 392 28 z "},"º":{"ha":696,"x_min":115,"x_max":746,"o":"m 403 442 q 286 462 339 442 q 195 519 233 482 q 136 610 157 557 q 115 731 115 664 q 140 869 115 803 q 210 985 165 935 q 319 1064 256 1035 q 458 1093 382 1093 q 574 1073 521 1093 q 665 1015 626 1053 q 724 924 703 978 q 746 804 746 871 q 721 666 746 732 q 651 550 696 600 q 542 471 606 500 q 403 442 479 442 m 271 732 q 309 604 271 644 q 406 564 347 564 q 483 583 449 564 q 540 633 517 601 q 576 708 564 665 q 589 801 589 751 q 551 931 589 890 q 453 971 514 971 q 376 951 410 971 q 319 899 343 932 q 283 824 296 867 q 271 732 271 781 z "},"»":{"ha":721,"x_min":-17,"x_max":663,"o":"m 457 89 l 285 89 l 499 379 l 396 651 l 553 651 l 663 367 l 457 89 m 154 89 l -17 89 l 197 379 l 94 651 l 251 651 l 360 367 l 154 89 z "},"¿":{"ha":640,"x_min":-1,"x_max":560,"o":"m -1 -29 q 24 88 -1 40 q 86 169 49 135 q 168 228 124 203 q 252 277 213 253 q 319 331 292 301 q 353 401 347 360 l 356 431 l 511 431 l 507 396 q 474 287 501 329 q 410 215 447 244 q 333 165 374 186 q 256 121 292 144 q 198 65 221 97 q 175 -18 175 33 q 214 -111 175 -76 q 342 -146 253 -146 q 430 -137 383 -146 q 513 -112 476 -128 l 486 -249 q 402 -273 451 -264 q 303 -282 353 -282 q 74 -212 149 -282 q -1 -29 -1 -143 m 447 737 q 526 704 493 737 q 560 624 560 671 q 526 542 560 575 q 447 510 493 510 q 366 542 399 510 q 333 624 333 575 q 366 704 333 671 q 447 737 399 737 z "},"À":{"ha":963,"x_min":-56,"x_max":864,"o":"m 506 996 l 726 996 l 864 0 l 690 0 l 656 257 l 254 257 l 110 0 l -56 0 l 506 996 m 636 403 l 579 835 l 336 403 l 636 403 m 568 1078 l 363 1267 l 579 1267 l 713 1078 l 568 1078 z "},"Á":{"ha":963,"x_min":-56,"x_max":911,"o":"m 506 996 l 726 996 l 864 0 l 690 0 l 656 257 l 254 257 l 110 0 l -56 0 l 506 996 m 636 403 l 579 835 l 336 403 l 636 403 m 693 1267 l 911 1267 l 690 1078 l 539 1078 l 693 1267 z "},"Â":{"ha":963,"x_min":-56,"x_max":864,"o":"m 506 996 l 726 996 l 864 0 l 690 0 l 656 257 l 254 257 l 110 0 l -56 0 l 506 996 m 636 403 l 579 835 l 336 403 l 636 403 m 636 1179 l 510 1071 l 374 1071 l 564 1276 l 742 1276 l 844 1071 l 714 1071 l 636 1179 z "},"Ã":{"ha":963,"x_min":-56,"x_max":892,"o":"m 506 996 l 726 996 l 864 0 l 690 0 l 656 257 l 254 257 l 110 0 l -56 0 l 506 996 m 636 403 l 579 835 l 336 403 l 636 403 m 343 1076 q 353 1163 340 1124 q 389 1228 365 1201 q 446 1269 413 1254 q 519 1283 479 1283 q 581 1274 554 1283 q 630 1252 607 1264 q 674 1231 653 1240 q 719 1221 694 1221 q 763 1238 747 1221 q 783 1292 779 1254 l 890 1292 q 849 1138 892 1192 q 726 1085 806 1085 q 664 1094 690 1085 q 615 1116 638 1104 q 569 1138 592 1128 q 521 1147 547 1147 q 474 1132 493 1147 q 450 1076 454 1117 l 343 1076 l 343 1076 z "},"Ä":{"ha":963,"x_min":-56,"x_max":890,"o":"m 506 996 l 726 996 l 864 0 l 690 0 l 656 257 l 254 257 l 110 0 l -56 0 l 506 996 m 636 403 l 579 835 l 336 403 l 636 403 m 453 1082 q 378 1112 408 1082 q 349 1183 349 1142 q 378 1256 349 1226 q 453 1286 408 1286 q 528 1256 499 1286 q 558 1183 558 1226 q 528 1112 558 1142 q 453 1082 499 1082 m 785 1082 q 710 1112 740 1082 q 681 1183 681 1142 q 710 1256 681 1226 q 785 1286 740 1286 q 860 1256 829 1286 q 890 1183 890 1226 q 860 1112 890 1142 q 785 1082 829 1082 z "},"Å":{"ha":963,"x_min":-56,"x_max":864,"o":"m 506 996 l 726 996 l 864 0 l 690 0 l 656 257 l 254 257 l 110 0 l -56 0 l 506 996 m 636 403 l 579 835 l 336 403 l 636 403 m 639 1051 q 520 1097 567 1051 q 474 1217 474 1143 q 487 1284 474 1253 q 523 1338 500 1315 q 577 1374 546 1361 q 644 1386 608 1386 q 764 1340 717 1386 q 811 1221 811 1293 q 763 1099 811 1146 q 639 1051 714 1051 m 642 1146 q 694 1167 674 1146 q 714 1219 714 1188 q 694 1272 714 1251 q 642 1292 674 1292 q 591 1271 610 1292 q 572 1218 572 1250 q 591 1166 572 1186 q 642 1146 610 1146 z "},"Æ":{"ha":1369,"x_min":-53,"x_max":1424,"o":"m 1217 0 l 582 0 l 646 301 l 340 301 l 122 0 l -53 0 l 671 996 l 1424 996 l 1392 851 l 939 851 l 882 588 l 1264 588 l 1233 443 l 851 443 l 788 144 l 1249 144 l 1217 0 m 676 446 l 774 899 l 446 446 l 676 446 z "},"Ç":{"ha":901,"x_min":69,"x_max":918,"o":"m 529 -14 q 349 15 433 -14 q 203 100 265 43 q 106 241 142 157 q 69 436 69 325 q 108 649 69 546 q 219 833 146 753 q 399 960 292 913 q 646 1008 507 1008 q 810 988 740 1008 q 918 942 879 968 l 883 793 q 778 842 842 824 q 639 861 714 861 q 467 826 539 861 q 347 732 394 790 q 277 599 300 674 q 254 447 254 525 q 276 305 254 364 q 338 208 299 246 q 433 151 378 169 q 556 133 489 133 q 683 149 618 133 q 807 200 749 165 l 775 50 q 669 3 735 21 q 529 -14 604 -14 m 564 28 l 424 -260 l 246 -260 l 436 28 l 564 28 z "},"È":{"ha":817,"x_min":28,"x_max":869,"o":"m 240 996 l 869 996 l 836 849 l 383 849 l 328 589 l 710 589 l 679 442 l 297 442 l 235 147 l 696 147 l 663 0 l 28 0 l 240 996 m 524 1078 l 318 1267 l 535 1267 l 668 1078 l 524 1078 z "},"É":{"ha":817,"x_min":28,"x_max":869,"o":"m 240 996 l 869 996 l 836 849 l 383 849 l 328 589 l 710 589 l 679 442 l 297 442 l 235 147 l 696 147 l 663 0 l 28 0 l 240 996 m 611 1267 l 829 1267 l 608 1078 l 457 1078 l 611 1267 z "},"Ê":{"ha":817,"x_min":28,"x_max":869,"o":"m 240 996 l 869 996 l 836 849 l 383 849 l 328 589 l 710 589 l 679 442 l 297 442 l 235 147 l 696 147 l 663 0 l 28 0 l 240 996 m 590 1179 l 464 1071 l 328 1071 l 518 1276 l 696 1276 l 799 1071 l 668 1071 l 590 1179 z "},"Ë":{"ha":817,"x_min":28,"x_max":869,"o":"m 240 996 l 869 996 l 836 849 l 383 849 l 328 589 l 710 589 l 679 442 l 297 442 l 235 147 l 696 147 l 663 0 l 28 0 l 240 996 m 414 1082 q 340 1112 369 1082 q 310 1183 310 1142 q 340 1256 310 1226 q 414 1286 369 1286 q 490 1256 460 1286 q 519 1183 519 1226 q 490 1112 519 1142 q 414 1082 460 1082 m 746 1082 q 672 1112 701 1082 q 642 1183 642 1142 q 672 1256 642 1226 q 746 1286 701 1286 q 821 1256 790 1286 q 851 1183 851 1226 q 821 1112 851 1142 q 746 1082 790 1082 z "},"Ì":{"ha":383,"x_min":28,"x_max":417,"o":"m 415 996 l 203 0 l 28 0 l 240 996 l 415 996 m 272 1078 l 67 1267 l 283 1267 l 417 1078 l 272 1078 z "},"Í":{"ha":383,"x_min":28,"x_max":628,"o":"m 415 996 l 203 0 l 28 0 l 240 996 l 415 996 m 410 1267 l 628 1267 l 407 1078 l 256 1078 l 410 1267 z "},"Î":{"ha":383,"x_min":28,"x_max":560,"o":"m 415 996 l 203 0 l 28 0 l 240 996 l 415 996 m 351 1179 l 225 1071 l 89 1071 l 279 1276 l 457 1276 l 560 1071 l 429 1071 l 351 1179 z "},"Ï":{"ha":383,"x_min":28,"x_max":608,"o":"m 415 996 l 203 0 l 28 0 l 240 996 l 415 996 m 171 1082 q 97 1112 126 1082 q 67 1183 67 1142 q 97 1256 67 1226 q 171 1286 126 1286 q 247 1256 217 1286 q 276 1183 276 1226 q 247 1112 276 1142 q 171 1082 217 1082 m 503 1082 q 428 1112 458 1082 q 399 1183 399 1142 q 428 1256 399 1226 q 503 1286 458 1286 q 578 1256 547 1286 q 608 1183 608 1226 q 578 1112 608 1142 q 503 1082 547 1082 z "},"Ñ":{"ha":1019,"x_min":28,"x_max":1053,"o":"m 842 0 l 632 0 l 356 792 l 186 0 l 28 0 l 240 996 l 451 996 l 728 206 l 896 996 l 1053 996 l 842 0 m 401 1076 q 411 1163 399 1124 q 447 1228 424 1201 q 504 1269 471 1254 q 578 1283 538 1283 q 639 1274 613 1283 q 688 1252 665 1264 q 732 1231 711 1240 q 778 1221 753 1221 q 822 1238 806 1221 q 842 1292 838 1254 l 949 1292 q 907 1138 950 1192 q 785 1085 864 1085 q 722 1094 749 1085 q 673 1116 696 1104 q 628 1138 650 1128 q 579 1147 606 1147 q 532 1132 551 1147 q 508 1076 513 1117 l 401 1076 l 401 1076 z "},"Ò":{"ha":1031,"x_min":69,"x_max":1018,"o":"m 503 -14 q 327 17 407 -14 q 190 108 247 49 q 101 251 133 167 q 69 442 69 336 q 108 665 69 561 q 215 844 146 768 q 378 965 283 921 q 583 1008 472 1008 q 760 977 681 1008 q 897 887 840 946 q 986 744 954 828 q 1018 554 1018 660 q 979 330 1018 433 q 872 150 940 226 q 708 30 803 74 q 503 -14 614 -14 m 254 443 q 274 306 254 364 q 328 209 293 247 q 410 152 363 171 q 514 133 458 133 q 647 167 588 133 q 749 258 707 200 q 813 391 790 315 q 835 553 835 467 q 815 690 835 632 q 761 787 796 749 q 678 843 726 825 q 575 861 631 861 q 442 828 501 861 q 340 737 382 794 q 276 603 299 679 q 254 443 254 528 m 600 1078 l 394 1267 l 611 1267 l 744 1078 l 600 1078 z "},"Ó":{"ha":1031,"x_min":69,"x_max":1018,"o":"m 503 -14 q 327 17 407 -14 q 190 108 247 49 q 101 251 133 167 q 69 442 69 336 q 108 665 69 561 q 215 844 146 768 q 378 965 283 921 q 583 1008 472 1008 q 760 977 681 1008 q 897 887 840 946 q 986 744 954 828 q 1018 554 1018 660 q 979 330 1018 433 q 872 150 940 226 q 708 30 803 74 q 503 -14 614 -14 m 254 443 q 274 306 254 364 q 328 209 293 247 q 410 152 363 171 q 514 133 458 133 q 647 167 588 133 q 749 258 707 200 q 813 391 790 315 q 835 553 835 467 q 815 690 835 632 q 761 787 796 749 q 678 843 726 825 q 575 861 631 861 q 442 828 501 861 q 340 737 382 794 q 276 603 299 679 q 254 443 254 528 m 640 1267 l 858 1267 l 638 1078 l 486 1078 l 640 1267 z "},"Ô":{"ha":1031,"x_min":69,"x_max":1018,"o":"m 503 -14 q 327 17 407 -14 q 190 108 247 49 q 101 251 133 167 q 69 442 69 336 q 108 665 69 561 q 215 844 146 768 q 378 965 283 921 q 583 1008 472 1008 q 760 977 681 1008 q 897 887 840 946 q 986 744 954 828 q 1018 554 1018 660 q 979 330 1018 433 q 872 150 940 226 q 708 30 803 74 q 503 -14 614 -14 m 254 443 q 274 306 254 364 q 328 209 293 247 q 410 152 363 171 q 514 133 458 133 q 647 167 588 133 q 749 258 707 200 q 813 391 790 315 q 835 553 835 467 q 815 690 835 632 q 761 787 796 749 q 678 843 726 825 q 575 861 631 861 q 442 828 501 861 q 340 737 382 794 q 276 603 299 679 q 254 443 254 528 m 629 1179 l 503 1071 l 367 1071 l 557 1276 l 735 1276 l 838 1071 l 707 1071 l 629 1179 z "},"Õ":{"ha":1031,"x_min":69,"x_max":1018,"o":"m 503 -14 q 327 17 407 -14 q 190 108 247 49 q 101 251 133 167 q 69 442 69 336 q 108 665 69 561 q 215 844 146 768 q 378 965 283 921 q 583 1008 472 1008 q 760 977 681 1008 q 897 887 840 946 q 986 744 954 828 q 1018 554 1018 660 q 979 330 1018 433 q 872 150 940 226 q 708 30 803 74 q 503 -14 614 -14 m 254 443 q 274 306 254 364 q 328 209 293 247 q 410 152 363 171 q 514 133 458 133 q 647 167 588 133 q 749 258 707 200 q 813 391 790 315 q 835 553 835 467 q 815 690 835 632 q 761 787 796 749 q 678 843 726 825 q 575 861 631 861 q 442 828 501 861 q 340 737 382 794 q 276 603 299 679 q 254 443 254 528 m 357 1076 q 367 1163 354 1124 q 403 1228 379 1201 q 460 1269 426 1254 q 533 1283 493 1283 q 594 1274 568 1283 q 644 1252 621 1264 q 688 1231 667 1240 q 733 1221 708 1221 q 777 1238 761 1221 q 797 1292 793 1254 l 904 1292 q 863 1138 906 1192 q 740 1085 819 1085 q 678 1094 704 1085 q 628 1116 651 1104 q 583 1138 606 1128 q 535 1147 561 1147 q 488 1132 507 1147 q 464 1076 468 1117 l 357 1076 l 357 1076 z "},"Ö":{"ha":1031,"x_min":69,"x_max":1018,"o":"m 503 -14 q 327 17 407 -14 q 190 108 247 49 q 101 251 133 167 q 69 442 69 336 q 108 665 69 561 q 215 844 146 768 q 378 965 283 921 q 583 1008 472 1008 q 760 977 681 1008 q 897 887 840 946 q 986 744 954 828 q 1018 554 1018 660 q 979 330 1018 433 q 872 150 940 226 q 708 30 803 74 q 503 -14 614 -14 m 254 443 q 274 306 254 364 q 328 209 293 247 q 410 152 363 171 q 514 133 458 133 q 647 167 588 133 q 749 258 707 200 q 813 391 790 315 q 835 553 835 467 q 815 690 835 632 q 761 787 796 749 q 678 843 726 825 q 575 861 631 861 q 442 828 501 861 q 340 737 382 794 q 276 603 299 679 q 254 443 254 528 m 463 1082 q 388 1112 418 1082 q 358 1183 358 1142 q 388 1256 358 1226 q 463 1286 418 1286 q 538 1256 508 1286 q 568 1183 568 1226 q 538 1112 568 1142 q 463 1082 508 1082 m 794 1082 q 720 1112 750 1082 q 690 1183 690 1142 q 720 1256 690 1226 q 794 1286 750 1286 q 869 1256 839 1286 q 900 1183 900 1226 q 869 1112 900 1142 q 794 1082 839 1082 z "},"Ø":{"ha":1029,"x_min":50,"x_max":1049,"o":"m 501 -14 q 325 17 406 -14 q 289 33 307 25 l 194 -97 l 50 -97 l 193 103 q 189 107 190 104 q 100 251 132 167 q 68 442 68 336 q 106 665 68 561 q 213 844 144 768 q 376 965 282 921 q 582 1008 471 1008 q 758 976 679 1008 q 804 956 782 967 l 903 1092 l 1049 1092 l 899 883 q 985 743 953 825 q 1017 554 1017 660 q 978 330 1017 433 q 870 150 939 226 q 707 30 801 74 q 501 -14 613 -14 m 253 443 q 272 306 253 364 q 297 247 282 274 l 711 825 q 676 843 696 836 q 574 861 629 861 q 440 828 500 861 q 339 737 381 794 q 275 603 297 679 q 253 443 253 528 m 408 151 q 513 133 457 133 q 646 167 586 133 q 747 258 706 200 q 811 391 789 315 q 833 553 833 467 q 814 690 833 632 q 793 738 806 715 l 382 164 q 408 151 394 157 z "},"Ù":{"ha":943,"x_min":71,"x_max":1004,"o":"m 219 996 l 394 996 l 265 388 q 260 274 251 322 q 297 195 269 226 q 366 149 324 164 q 460 133 408 133 q 625 192 564 133 q 714 378 686 251 l 846 996 l 1004 996 l 867 354 q 726 81 829 176 q 450 -14 624 -14 q 289 11 364 -14 q 163 89 214 36 q 92 223 113 142 q 96 417 71 304 l 219 996 m 560 1078 l 354 1267 l 571 1267 l 704 1078 l 560 1078 z "},"Ú":{"ha":943,"x_min":71,"x_max":1004,"o":"m 219 996 l 394 996 l 265 388 q 260 274 251 322 q 297 195 269 226 q 366 149 324 164 q 460 133 408 133 q 625 192 564 133 q 714 378 686 251 l 846 996 l 1004 996 l 867 354 q 726 81 829 176 q 450 -14 624 -14 q 289 11 364 -14 q 163 89 214 36 q 92 223 113 142 q 96 417 71 304 l 219 996 m 697 1267 l 915 1267 l 694 1078 l 543 1078 l 697 1267 z "},"Û":{"ha":943,"x_min":71,"x_max":1004,"o":"m 219 996 l 394 996 l 265 388 q 260 274 251 322 q 297 195 269 226 q 366 149 324 164 q 460 133 408 133 q 625 192 564 133 q 714 378 686 251 l 846 996 l 1004 996 l 867 354 q 726 81 829 176 q 450 -14 624 -14 q 289 11 364 -14 q 163 89 214 36 q 92 223 113 142 q 96 417 71 304 l 219 996 m 647 1179 l 521 1071 l 385 1071 l 575 1276 l 753 1276 l 856 1071 l 725 1071 l 647 1179 z "},"Ü":{"ha":943,"x_min":71,"x_max":1004,"o":"m 219 996 l 394 996 l 265 388 q 260 274 251 322 q 297 195 269 226 q 366 149 324 164 q 460 133 408 133 q 625 192 564 133 q 714 378 686 251 l 846 996 l 1004 996 l 867 354 q 726 81 829 176 q 450 -14 624 -14 q 289 11 364 -14 q 163 89 214 36 q 92 223 113 142 q 96 417 71 304 l 219 996 m 463 1082 q 388 1112 418 1082 q 358 1183 358 1142 q 388 1256 358 1226 q 463 1286 418 1286 q 538 1256 508 1286 q 568 1183 568 1226 q 538 1112 568 1142 q 463 1082 508 1082 m 794 1082 q 720 1112 750 1082 q 690 1183 690 1142 q 720 1256 690 1226 q 794 1286 750 1286 q 869 1256 839 1286 q 900 1183 900 1226 q 869 1112 900 1142 q 794 1082 839 1082 z "},"ß":{"ha":842,"x_min":8,"x_max":801,"o":"m 781 210 q 758 111 781 153 q 695 42 735 69 q 603 0 656 14 q 492 -14 551 -14 q 375 2 421 -14 q 303 39 329 18 l 331 168 q 392 134 354 149 q 483 119 429 119 q 581 142 551 119 q 610 201 610 165 q 594 248 610 229 q 556 281 579 267 q 505 310 532 296 q 454 343 478 324 q 415 389 431 363 q 400 456 400 415 q 417 530 400 499 q 460 584 435 561 q 515 626 485 607 q 571 667 546 646 q 613 713 596 688 q 631 776 631 739 q 599 851 631 826 q 514 875 567 875 q 318 663 363 875 l 176 0 l 8 0 l 149 663 q 276 917 183 825 q 526 1008 368 1008 q 729 948 657 1008 q 801 786 801 888 q 785 701 801 738 q 742 638 768 665 q 688 589 717 610 q 633 549 658 568 q 590 513 607 531 q 574 472 574 494 q 589 437 574 451 q 627 408 604 422 q 677 380 650 394 q 727 343 704 365 q 765 289 750 321 q 781 210 781 257 z "},"à":{"ha":740,"x_min":17,"x_max":693,"o":"m 436 0 q 438 49 436 17 q 444 114 439 81 q 409 67 429 90 q 363 26 389 44 q 303 -3 336 8 q 228 -14 269 -14 q 149 -3 188 -14 q 82 33 111 8 q 35 95 53 57 q 17 186 17 133 q 110 368 17 306 q 378 431 203 431 l 508 431 q 511 515 518 482 q 484 566 504 547 q 432 592 464 585 q 361 599 400 599 q 244 587 303 599 q 135 551 185 575 l 163 686 q 271 722 211 710 q 397 735 331 735 q 527 718 468 735 q 625 664 586 701 q 678 565 664 626 q 674 414 693 503 l 610 117 q 604 90 607 106 q 599 57 601 74 q 594 25 596 40 q 592 0 592 10 l 436 0 m 289 111 q 368 131 335 111 q 424 176 401 150 q 458 228 446 201 q 475 269 471 254 l 488 326 l 363 326 q 229 293 271 326 q 188 204 188 260 q 216 133 188 156 q 289 111 244 111 m 404 817 l 219 1036 l 408 1036 l 529 817 l 404 817 z "},"á":{"ha":740,"x_min":17,"x_max":718,"o":"m 436 0 q 438 49 436 17 q 444 114 439 81 q 409 67 429 90 q 363 26 389 44 q 303 -3 336 8 q 228 -14 269 -14 q 149 -3 188 -14 q 82 33 111 8 q 35 95 53 57 q 17 186 17 133 q 110 368 17 306 q 378 431 203 431 l 508 431 q 511 515 518 482 q 484 566 504 547 q 432 592 464 585 q 361 599 400 599 q 244 587 303 599 q 135 551 185 575 l 163 686 q 271 722 211 710 q 397 735 331 735 q 527 718 468 735 q 625 664 586 701 q 678 565 664 626 q 674 414 693 503 l 610 117 q 604 90 607 106 q 599 57 601 74 q 594 25 596 40 q 592 0 592 10 l 436 0 m 289 111 q 368 131 335 111 q 424 176 401 150 q 458 228 446 201 q 475 269 471 254 l 488 326 l 363 326 q 229 293 271 326 q 188 204 188 260 q 216 133 188 156 q 289 111 244 111 m 528 1036 l 718 1036 l 497 817 l 368 817 l 528 1036 z "},"â":{"ha":740,"x_min":17,"x_max":693,"o":"m 436 0 q 438 49 436 17 q 444 114 439 81 q 409 67 429 90 q 363 26 389 44 q 303 -3 336 8 q 228 -14 269 -14 q 149 -3 188 -14 q 82 33 111 8 q 35 95 53 57 q 17 186 17 133 q 110 368 17 306 q 378 431 203 431 l 508 431 q 511 515 518 482 q 484 566 504 547 q 432 592 464 585 q 361 599 400 599 q 244 587 303 599 q 135 551 185 575 l 163 686 q 271 722 211 710 q 397 735 331 735 q 527 718 468 735 q 625 664 586 701 q 678 565 664 626 q 674 414 693 503 l 610 117 q 604 90 607 106 q 599 57 601 74 q 594 25 596 40 q 592 0 592 10 l 436 0 m 289 111 q 368 131 335 111 q 424 176 401 150 q 458 228 446 201 q 475 269 471 254 l 488 326 l 363 326 q 229 293 271 326 q 188 204 188 260 q 216 133 188 156 q 289 111 244 111 m 471 924 l 347 817 l 215 817 l 399 1022 l 575 1022 l 672 817 l 542 817 l 471 924 z "},"ã":{"ha":740,"x_min":17,"x_max":707,"o":"m 436 0 q 438 49 436 17 q 444 114 439 81 q 409 67 429 90 q 363 26 389 44 q 303 -3 336 8 q 228 -14 269 -14 q 149 -3 188 -14 q 82 33 111 8 q 35 95 53 57 q 17 186 17 133 q 110 368 17 306 q 378 431 203 431 l 508 431 q 511 515 518 482 q 484 566 504 547 q 432 592 464 585 q 361 599 400 599 q 244 587 303 599 q 135 551 185 575 l 163 686 q 271 722 211 710 q 397 735 331 735 q 527 718 468 735 q 625 664 586 701 q 678 565 664 626 q 674 414 693 503 l 610 117 q 604 90 607 106 q 599 57 601 74 q 594 25 596 40 q 592 0 592 10 l 436 0 m 289 111 q 368 131 335 111 q 424 176 401 150 q 458 228 446 201 q 475 269 471 254 l 488 326 l 363 326 q 229 293 271 326 q 188 204 188 260 q 216 133 188 156 q 289 111 244 111 m 210 821 q 222 890 211 856 q 251 949 232 924 q 302 991 271 975 q 376 1007 333 1007 q 432 998 408 1007 q 475 978 456 989 q 513 958 494 967 q 553 949 532 949 q 590 963 576 949 q 608 1014 603 978 l 707 1014 q 697 946 706 979 q 669 886 688 913 q 620 844 650 860 q 547 828 590 828 q 493 837 515 828 q 451 856 471 846 q 412 876 431 867 q 369 885 393 885 q 329 872 346 885 q 308 821 313 858 l 210 821 l 210 821 z "},"ä":{"ha":740,"x_min":17,"x_max":711,"o":"m 436 0 q 438 49 436 17 q 444 114 439 81 q 409 67 429 90 q 363 26 389 44 q 303 -3 336 8 q 228 -14 269 -14 q 149 -3 188 -14 q 82 33 111 8 q 35 95 53 57 q 17 186 17 133 q 110 368 17 306 q 378 431 203 431 l 508 431 q 511 515 518 482 q 484 566 504 547 q 432 592 464 585 q 361 599 400 599 q 244 587 303 599 q 135 551 185 575 l 163 686 q 271 722 211 710 q 397 735 331 735 q 527 718 468 735 q 625 664 586 701 q 678 565 664 626 q 674 414 693 503 l 610 117 q 604 90 607 106 q 599 57 601 74 q 594 25 596 40 q 592 0 592 10 l 436 0 m 289 111 q 368 131 335 111 q 424 176 401 150 q 458 228 446 201 q 475 269 471 254 l 488 326 l 363 326 q 229 293 271 326 q 188 204 188 260 q 216 133 188 156 q 289 111 244 111 m 294 810 q 221 840 250 810 q 192 911 192 869 q 221 985 192 956 q 294 1014 250 1014 q 369 985 339 1014 q 400 911 400 956 q 369 840 400 869 q 294 810 339 810 m 607 810 q 533 840 563 810 q 503 911 503 869 q 533 985 503 956 q 607 1014 563 1014 q 681 985 651 1014 q 711 911 711 956 q 681 840 711 869 q 607 810 651 810 z "},"å":{"ha":740,"x_min":17,"x_max":693,"o":"m 436 0 q 438 49 436 17 q 444 114 439 81 q 409 67 429 90 q 363 26 389 44 q 303 -3 336 8 q 228 -14 269 -14 q 149 -3 188 -14 q 82 33 111 8 q 35 95 53 57 q 17 186 17 133 q 110 368 17 306 q 378 431 203 431 l 508 431 q 511 515 518 482 q 484 566 504 547 q 432 592 464 585 q 361 599 400 599 q 244 587 303 599 q 135 551 185 575 l 163 686 q 271 722 211 710 q 397 735 331 735 q 527 718 468 735 q 625 664 586 701 q 678 565 664 626 q 674 414 693 503 l 610 117 q 604 90 607 106 q 599 57 601 74 q 594 25 596 40 q 592 0 592 10 l 436 0 m 289 111 q 368 131 335 111 q 424 176 401 150 q 458 228 446 201 q 475 269 471 254 l 488 326 l 363 326 q 229 293 271 326 q 188 204 188 260 q 216 133 188 156 q 289 111 244 111 m 489 792 q 422 804 453 792 q 368 838 390 817 q 333 890 346 860 q 321 956 321 919 q 334 1023 321 992 q 371 1077 347 1054 q 426 1113 394 1100 q 493 1126 457 1126 q 560 1114 529 1126 q 615 1080 592 1101 q 650 1028 638 1058 q 663 961 663 997 q 649 894 663 925 q 611 840 635 863 q 556 804 588 817 q 489 792 525 792 m 490 888 q 542 908 522 888 q 563 960 563 928 q 543 1012 563 992 q 492 1032 524 1032 q 441 1011 461 1032 q 421 958 421 990 q 440 907 421 926 q 490 888 458 888 z "},"æ":{"ha":1215,"x_min":17,"x_max":1176,"o":"m 1081 26 q 998 -1 1049 13 q 872 -14 947 -14 q 670 29 754 -14 q 546 158 586 72 q 502 97 528 128 q 441 42 476 67 q 358 1 406 17 q 249 -14 311 -14 q 159 -3 201 -14 q 85 33 117 8 q 35 95 54 57 q 17 186 17 133 q 110 368 17 306 q 378 431 203 431 l 508 431 q 511 515 518 482 q 484 566 504 547 q 432 592 464 585 q 361 599 400 599 q 244 587 303 599 q 135 551 185 575 l 163 686 q 271 722 211 710 q 397 735 331 735 q 541 711 478 735 q 638 629 604 688 q 749 707 686 679 q 888 735 813 735 q 1024 708 961 735 q 1124 629 1086 682 q 1169 499 1163 576 q 1142 318 1176 421 l 667 318 q 729 169 669 215 q 896 122 789 122 q 1015 135 960 122 q 1110 164 1069 149 l 1081 26 m 879 599 q 753 555 804 599 q 682 438 703 511 l 1010 438 q 1008 511 1015 481 q 982 561 1000 542 q 937 590 964 581 q 879 599 910 599 m 289 111 q 363 128 331 111 q 417 168 394 144 q 452 217 439 192 q 472 260 465 243 l 486 326 l 363 326 q 229 293 271 326 q 188 204 188 260 q 216 133 188 156 q 289 111 244 111 z "},"ç":{"ha":690,"x_min":43,"x_max":667,"o":"m 394 -14 q 257 8 321 -14 q 145 72 193 29 q 70 178 97 114 q 43 326 43 242 q 73 489 43 414 q 157 619 103 564 q 287 704 211 674 q 456 735 363 735 q 581 719 528 735 q 667 679 635 703 l 638 547 q 556 585 597 572 q 465 599 515 599 q 355 578 401 599 q 277 522 308 557 q 231 439 246 486 q 215 338 215 392 q 233 238 215 279 q 279 172 250 197 q 347 134 308 146 q 431 122 386 122 q 513 131 471 122 q 596 161 556 140 l 567 22 q 394 -14 494 -14 m 428 28 l 288 -260 l 110 -260 l 300 28 l 428 28 z "},"è":{"ha":772,"x_min":43,"x_max":733,"o":"m 625 26 q 542 -1 593 13 q 417 -14 492 -14 q 263 8 332 -14 q 145 71 194 29 q 69 176 96 113 q 43 322 43 239 q 72 486 43 411 q 153 617 101 561 q 278 703 206 672 q 438 735 350 735 q 577 708 514 735 q 679 628 640 681 q 726 497 718 575 q 697 315 733 418 l 213 315 q 276 168 218 214 q 440 122 335 122 q 559 135 504 122 q 654 164 614 149 l 625 26 m 426 606 q 297 559 349 606 q 226 438 246 513 l 565 438 q 563 514 571 482 q 535 566 554 546 q 488 596 517 586 q 426 606 460 606 m 429 817 l 244 1036 l 433 1036 l 554 817 l 429 817 z "},"é":{"ha":772,"x_min":43,"x_max":733,"o":"m 625 26 q 542 -1 593 13 q 417 -14 492 -14 q 263 8 332 -14 q 145 71 194 29 q 69 176 96 113 q 43 322 43 239 q 72 486 43 411 q 153 617 101 561 q 278 703 206 672 q 438 735 350 735 q 577 708 514 735 q 679 628 640 681 q 726 497 718 575 q 697 315 733 418 l 213 315 q 276 168 218 214 q 440 122 335 122 q 559 135 504 122 q 654 164 614 149 l 625 26 m 426 606 q 297 559 349 606 q 226 438 246 513 l 565 438 q 563 514 571 482 q 535 566 554 546 q 488 596 517 586 q 426 606 460 606 m 496 1036 l 686 1036 l 465 817 l 336 817 l 496 1036 z "},"ê":{"ha":772,"x_min":43,"x_max":733,"o":"m 625 26 q 542 -1 593 13 q 417 -14 492 -14 q 263 8 332 -14 q 145 71 194 29 q 69 176 96 113 q 43 322 43 239 q 72 486 43 411 q 153 617 101 561 q 278 703 206 672 q 438 735 350 735 q 577 708 514 735 q 679 628 640 681 q 726 497 718 575 q 697 315 733 418 l 213 315 q 276 168 218 214 q 440 122 335 122 q 559 135 504 122 q 654 164 614 149 l 625 26 m 426 606 q 297 559 349 606 q 226 438 246 513 l 565 438 q 563 514 571 482 q 535 566 554 546 q 488 596 517 586 q 426 606 460 606 m 482 924 l 358 817 l 226 817 l 410 1022 l 586 1022 l 683 817 l 553 817 l 482 924 z "},"ë":{"ha":772,"x_min":43,"x_max":733,"o":"m 625 26 q 542 -1 593 13 q 417 -14 492 -14 q 263 8 332 -14 q 145 71 194 29 q 69 176 96 113 q 43 322 43 239 q 72 486 43 411 q 153 617 101 561 q 278 703 206 672 q 438 735 350 735 q 577 708 514 735 q 679 628 640 681 q 726 497 718 575 q 697 315 733 418 l 213 315 q 276 168 218 214 q 440 122 335 122 q 559 135 504 122 q 654 164 614 149 l 625 26 m 426 606 q 297 559 349 606 q 226 438 246 513 l 565 438 q 563 514 571 482 q 535 566 554 546 q 488 596 517 586 q 426 606 460 606 m 303 810 q 229 840 258 810 q 200 911 200 869 q 229 985 200 956 q 303 1014 258 1014 q 378 985 347 1014 q 408 911 408 956 q 378 840 408 869 q 303 810 347 810 m 615 810 q 541 840 571 810 q 511 911 511 869 q 541 985 511 956 q 615 1014 571 1014 q 690 985 660 1014 q 719 911 719 956 q 690 840 719 869 q 615 810 660 810 z "},"ì":{"ha":344,"x_min":14,"x_max":340,"o":"m 335 721 l 182 0 l 14 0 l 168 721 l 335 721 m 215 817 l 31 1036 l 219 1036 l 340 817 l 215 817 z "},"í":{"ha":344,"x_min":14,"x_max":535,"o":"m 335 721 l 182 0 l 14 0 l 168 721 l 335 721 m 344 1036 l 535 1036 l 314 817 l 185 817 l 344 1036 z "},"î":{"ha":344,"x_min":14,"x_max":488,"o":"m 335 721 l 182 0 l 14 0 l 168 721 l 335 721 m 286 924 l 163 817 l 31 817 l 214 1022 l 390 1022 l 488 817 l 357 817 l 286 924 z "},"ï":{"ha":344,"x_min":3,"x_max":522,"o":"m 335 721 l 182 0 l 14 0 l 168 721 l 335 721 m 106 810 q 32 840 61 810 q 3 911 3 869 q 32 985 3 956 q 106 1014 61 1014 q 181 985 150 1014 q 211 911 211 956 q 181 840 211 869 q 106 810 150 810 m 418 810 q 344 840 374 810 q 314 911 314 869 q 344 985 314 956 q 418 1014 374 1014 q 492 985 463 1014 q 522 911 522 956 q 492 840 522 869 q 418 810 463 810 z "},"ñ":{"ha":808,"x_min":14,"x_max":763,"o":"m 474 599 q 411 590 439 599 q 360 567 383 582 q 319 534 338 553 q 288 496 301 515 l 181 0 l 14 0 l 167 721 l 325 721 l 306 606 l 308 606 q 408 698 349 661 q 549 735 467 735 q 647 717 603 735 q 718 662 690 699 q 754 570 746 625 q 747 443 763 515 l 653 0 l 485 0 l 579 444 q 585 519 589 489 q 565 566 581 549 q 526 591 550 583 q 474 599 503 599 m 258 821 q 270 890 260 856 q 300 949 281 924 q 351 991 319 975 q 425 1007 382 1007 q 481 998 457 1007 q 524 978 504 989 q 562 958 543 967 q 601 949 581 949 q 638 963 625 949 q 657 1014 651 978 l 756 1014 q 745 946 754 979 q 717 886 736 913 q 669 844 699 860 q 596 828 639 828 q 542 837 564 828 q 499 856 519 846 q 460 876 479 867 q 418 885 442 885 q 378 872 394 885 q 357 821 361 858 l 258 821 l 258 821 z "},"ò":{"ha":801,"x_min":43,"x_max":763,"o":"m 375 -14 q 242 10 303 -14 q 137 76 181 33 q 68 181 93 119 q 43 321 43 243 q 69 475 43 400 q 146 608 96 550 q 268 700 196 665 q 431 735 340 735 q 564 711 503 735 q 669 644 625 688 q 738 538 713 600 q 763 399 763 476 q 736 245 763 319 q 660 113 710 171 q 538 21 610 56 q 375 -14 465 -14 m 217 324 q 263 171 217 219 q 379 122 308 122 q 469 145 431 122 q 535 206 508 168 q 575 293 561 243 q 589 397 589 343 q 543 551 589 503 q 426 599 497 599 q 336 576 375 599 q 271 515 297 553 q 231 428 244 478 q 217 324 217 378 m 442 817 l 257 1036 l 446 1036 l 567 817 l 442 817 z "},"ó":{"ha":801,"x_min":43,"x_max":763,"o":"m 375 -14 q 242 10 303 -14 q 137 76 181 33 q 68 181 93 119 q 43 321 43 243 q 69 475 43 400 q 146 608 96 550 q 268 700 196 665 q 431 735 340 735 q 564 711 503 735 q 669 644 625 688 q 738 538 713 600 q 763 399 763 476 q 736 245 763 319 q 660 113 710 171 q 538 21 610 56 q 375 -14 465 -14 m 217 324 q 263 171 217 219 q 379 122 308 122 q 469 145 431 122 q 535 206 508 168 q 575 293 561 243 q 589 397 589 343 q 543 551 589 503 q 426 599 497 599 q 336 576 375 599 q 271 515 297 553 q 231 428 244 478 q 217 324 217 378 m 503 1036 l 693 1036 l 472 817 l 343 817 l 503 1036 z "},"ô":{"ha":801,"x_min":43,"x_max":763,"o":"m 375 -14 q 242 10 303 -14 q 137 76 181 33 q 68 181 93 119 q 43 321 43 243 q 69 475 43 400 q 146 608 96 550 q 268 700 196 665 q 431 735 340 735 q 564 711 503 735 q 669 644 625 688 q 738 538 713 600 q 763 399 763 476 q 736 245 763 319 q 660 113 710 171 q 538 21 610 56 q 375 -14 465 -14 m 217 324 q 263 171 217 219 q 379 122 308 122 q 469 145 431 122 q 535 206 508 168 q 575 293 561 243 q 589 397 589 343 q 543 551 589 503 q 426 599 497 599 q 336 576 375 599 q 271 515 297 553 q 231 428 244 478 q 217 324 217 378 m 488 924 l 364 817 l 232 817 l 415 1022 l 592 1022 l 689 817 l 558 817 l 488 924 z "},"õ":{"ha":801,"x_min":43,"x_max":763,"o":"m 375 -14 q 242 10 303 -14 q 137 76 181 33 q 68 181 93 119 q 43 321 43 243 q 69 475 43 400 q 146 608 96 550 q 268 700 196 665 q 431 735 340 735 q 564 711 503 735 q 669 644 625 688 q 738 538 713 600 q 763 399 763 476 q 736 245 763 319 q 660 113 710 171 q 538 21 610 56 q 375 -14 465 -14 m 217 324 q 263 171 217 219 q 379 122 308 122 q 469 145 431 122 q 535 206 508 168 q 575 293 561 243 q 589 397 589 343 q 543 551 589 503 q 426 599 497 599 q 336 576 375 599 q 271 515 297 553 q 231 428 244 478 q 217 324 217 378 m 228 821 q 240 890 229 856 q 269 949 250 924 q 320 991 289 975 q 394 1007 351 1007 q 450 998 426 1007 q 493 978 474 989 q 531 958 513 967 q 571 949 550 949 q 608 963 594 949 q 626 1014 621 978 l 725 1014 q 715 946 724 979 q 687 886 706 913 q 638 844 668 860 q 565 828 608 828 q 511 837 533 828 q 469 856 489 846 q 430 876 449 867 q 388 885 411 885 q 347 872 364 885 q 326 821 331 858 l 228 821 l 228 821 z "},"ö":{"ha":801,"x_min":43,"x_max":763,"o":"m 375 -14 q 242 10 303 -14 q 137 76 181 33 q 68 181 93 119 q 43 321 43 243 q 69 475 43 400 q 146 608 96 550 q 268 700 196 665 q 431 735 340 735 q 564 711 503 735 q 669 644 625 688 q 738 538 713 600 q 763 399 763 476 q 736 245 763 319 q 660 113 710 171 q 538 21 610 56 q 375 -14 465 -14 m 217 324 q 263 171 217 219 q 379 122 308 122 q 469 145 431 122 q 535 206 508 168 q 575 293 561 243 q 589 397 589 343 q 543 551 589 503 q 426 599 497 599 q 336 576 375 599 q 271 515 297 553 q 231 428 244 478 q 217 324 217 378 m 304 810 q 231 840 260 810 q 201 911 201 869 q 231 985 201 956 q 304 1014 260 1014 q 379 985 349 1014 q 410 911 410 956 q 379 840 410 869 q 304 810 349 810 m 617 810 q 542 840 572 810 q 513 911 513 869 q 542 985 513 956 q 617 1014 572 1014 q 691 985 661 1014 q 721 911 721 956 q 691 840 721 869 q 617 810 661 810 z "},"÷":{"ha":764,"x_min":43,"x_max":750,"o":"m 443 649 q 363 682 394 649 q 331 763 331 715 q 363 844 331 811 q 443 876 394 876 q 524 844 492 876 q 556 763 556 811 q 524 682 556 715 q 443 649 492 649 m 43 406 l 69 531 l 750 531 l 722 406 l 43 406 m 339 60 q 258 93 290 60 q 226 174 226 126 q 258 255 226 222 q 339 288 290 288 q 419 255 388 288 q 451 174 451 222 q 419 93 451 126 q 339 60 388 60 z "},"ø":{"ha":801,"x_min":40,"x_max":767,"o":"m 375 -14 q 243 8 307 -14 l 167 -111 l 40 -111 l 151 63 q 72 172 100 107 q 43 321 43 238 q 69 475 43 400 q 146 608 96 550 q 268 700 196 665 q 431 735 340 735 q 564 711 501 735 l 640 832 l 767 832 l 656 657 q 734 547 706 613 q 763 399 763 482 q 736 245 763 319 q 660 113 710 171 q 538 21 610 56 q 375 -14 465 -14 m 217 324 q 240 204 217 251 l 486 589 q 426 599 461 599 q 336 576 375 599 q 271 515 297 553 q 231 428 244 478 q 217 324 217 378 m 589 397 q 565 515 589 468 l 321 132 q 379 122 346 122 q 469 145 431 122 q 535 206 508 168 q 575 293 561 243 q 589 397 589 343 z "},"ù":{"ha":797,"x_min":50,"x_max":788,"o":"m 339 122 q 443 153 401 122 q 514 226 485 183 l 619 721 l 788 721 l 633 0 l 481 0 l 494 115 l 492 115 q 397 24 451 61 q 260 -14 342 -14 q 165 4 207 -14 q 95 58 122 22 q 59 148 68 94 q 65 272 50 201 l 160 721 l 329 721 l 235 281 q 249 160 217 197 q 339 122 281 122 m 424 817 l 239 1036 l 428 1036 l 549 817 l 424 817 z "},"ú":{"ha":797,"x_min":50,"x_max":788,"o":"m 339 122 q 443 153 401 122 q 514 226 485 183 l 619 721 l 788 721 l 633 0 l 481 0 l 494 115 l 492 115 q 397 24 451 61 q 260 -14 342 -14 q 165 4 207 -14 q 95 58 122 22 q 59 148 68 94 q 65 272 50 201 l 160 721 l 329 721 l 235 281 q 249 160 217 197 q 339 122 281 122 m 564 1036 l 754 1036 l 533 817 l 404 817 l 564 1036 z "},"û":{"ha":797,"x_min":50,"x_max":788,"o":"m 339 122 q 443 153 401 122 q 514 226 485 183 l 619 721 l 788 721 l 633 0 l 481 0 l 494 115 l 492 115 q 397 24 451 61 q 260 -14 342 -14 q 165 4 207 -14 q 95 58 122 22 q 59 148 68 94 q 65 272 50 201 l 160 721 l 329 721 l 235 281 q 249 160 217 197 q 339 122 281 122 m 513 924 l 389 817 l 257 817 l 440 1022 l 617 1022 l 714 817 l 583 817 l 513 924 z "},"ü":{"ha":797,"x_min":50,"x_max":788,"o":"m 339 122 q 443 153 401 122 q 514 226 485 183 l 619 721 l 788 721 l 633 0 l 481 0 l 494 115 l 492 115 q 397 24 451 61 q 260 -14 342 -14 q 165 4 207 -14 q 95 58 122 22 q 59 148 68 94 q 65 272 50 201 l 160 721 l 329 721 l 235 281 q 249 160 217 197 q 339 122 281 122 m 344 810 q 271 840 300 810 q 242 911 242 869 q 271 985 242 956 q 344 1014 300 1014 q 419 985 389 1014 q 450 911 450 956 q 419 840 450 869 q 344 810 389 810 m 657 810 q 583 840 613 810 q 553 911 553 869 q 583 985 553 956 q 657 1014 613 1014 q 731 985 701 1014 q 761 911 761 956 q 731 840 761 869 q 657 810 701 810 z "},"ÿ":{"ha":749,"x_min":-71,"x_max":800,"o":"m 397 -12 q 326 -121 363 -75 q 247 -198 289 -167 q 155 -244 204 -229 q 46 -260 106 -260 q -18 -256 13 -260 q -71 -240 -49 -251 l -40 -104 q 7 -119 -19 -115 q 63 -124 33 -124 q 147 -103 111 -124 q 215 -44 183 -83 l 92 721 l 264 721 l 340 163 l 639 721 l 800 721 l 397 -12 l 397 -12 m 303 810 q 229 840 258 810 q 200 911 200 869 q 229 985 200 956 q 303 1014 258 1014 q 378 985 347 1014 q 408 911 408 956 q 378 840 408 869 q 303 810 347 810 m 615 810 q 541 840 571 810 q 511 911 511 869 q 541 985 511 956 q 615 1014 571 1014 q 690 985 660 1014 q 719 911 719 956 q 690 840 719 869 q 615 810 660 810 z "},"ı":{"ha":344,"x_min":14,"x_max":335,"o":"m 335 721 l 182 0 l 14 0 l 168 721 l 335 721 z "},"Œ":{"ha":1388,"x_min":69,"x_max":1442,"o":"m 69 414 q 107 633 69 528 q 218 819 144 739 q 400 948 292 900 q 651 996 508 996 l 1442 996 l 1408 851 l 957 851 l 900 588 l 1282 588 l 1251 443 l 869 443 l 806 144 l 1267 144 l 1235 0 l 500 0 q 330 23 408 0 q 194 95 251 46 q 103 223 136 144 q 69 414 69 301 m 631 144 l 782 851 l 635 851 q 474 818 544 851 q 354 726 403 785 q 280 590 306 668 q 254 422 254 511 q 273 292 254 344 q 326 206 292 239 q 408 159 360 174 q 514 144 456 144 l 631 144 z "},"œ":{"ha":1318,"x_min":43,"x_max":1279,"o":"m 1171 26 q 1088 -1 1139 13 q 961 -14 1038 -14 q 779 20 857 -14 q 656 121 701 54 q 537 23 607 60 q 375 -14 467 -14 q 242 10 303 -14 q 137 76 181 33 q 68 181 93 119 q 43 321 43 243 q 69 475 43 400 q 146 608 96 550 q 268 700 196 665 q 431 735 340 735 q 585 700 517 735 q 694 601 653 665 q 819 699 746 664 q 983 735 892 735 q 1123 708 1060 735 q 1225 629 1186 682 q 1272 499 1264 576 q 1243 318 1279 421 l 757 318 q 819 169 760 215 q 986 122 878 122 q 1105 135 1050 122 q 1200 164 1160 149 l 1171 26 m 589 397 q 543 551 589 503 q 426 599 497 599 q 336 576 375 599 q 271 515 297 553 q 231 428 244 478 q 217 324 217 378 q 263 171 217 219 q 379 122 308 122 q 469 145 431 122 q 535 206 508 168 q 575 293 561 243 q 589 397 589 343 m 974 599 q 846 555 897 599 q 772 438 794 511 l 1111 438 q 1109 511 1117 481 q 1082 561 1101 542 q 1035 590 1063 581 q 974 599 1007 599 z "},"Ÿ":{"ha":849,"x_min":149,"x_max":974,"o":"m 526 411 l 439 0 l 263 0 l 353 425 l 149 996 l 333 996 l 474 572 l 794 996 l 974 996 l 526 411 m 390 1082 q 316 1112 346 1082 q 286 1183 286 1142 q 316 1256 286 1226 q 390 1286 346 1286 q 466 1256 436 1286 q 496 1183 496 1226 q 466 1112 496 1142 q 390 1082 436 1082 m 722 1082 q 648 1112 678 1082 q 618 1183 618 1142 q 648 1256 618 1226 q 722 1286 678 1286 q 797 1256 767 1286 q 828 1183 828 1226 q 797 1112 828 1142 q 722 1082 767 1082 z "},"ˆ":{"ha":628,"x_min":196,"x_max":653,"o":"m 451 924 l 328 817 l 196 817 l 379 1022 l 556 1022 l 653 817 l 522 817 l 451 924 z "},"ˇ":{"ha":628,"x_min":229,"x_max":688,"o":"m 503 817 l 328 817 l 229 1022 l 360 1022 l 433 915 l 554 1022 l 688 1022 l 503 817 z "},"˘":{"ha":628,"x_min":238,"x_max":686,"o":"m 442 807 q 344 824 385 807 q 279 868 304 840 q 246 934 254 896 q 246 1014 238 972 l 378 1014 q 391 946 371 969 q 451 922 411 922 q 518 945 492 922 q 553 1014 544 968 l 686 1014 q 663 934 681 972 q 615 868 644 896 q 542 824 585 840 q 442 807 499 807 z "},"˙":{"ha":628,"x_min":346,"x_max":556,"o":"m 450 810 q 376 840 406 810 q 346 911 346 869 q 376 985 346 956 q 450 1014 406 1014 q 525 985 494 1014 q 556 911 556 956 q 525 840 556 869 q 450 810 494 810 z "},"˚":{"ha":628,"x_min":299,"x_max":640,"o":"m 467 792 q 399 804 431 792 q 346 838 368 817 q 311 890 324 860 q 299 956 299 919 q 312 1023 299 992 q 349 1077 325 1054 q 403 1113 372 1100 q 471 1126 435 1126 q 538 1114 507 1126 q 592 1080 569 1101 q 628 1028 615 1058 q 640 961 640 997 q 626 894 640 925 q 589 840 613 863 q 534 804 565 817 q 467 792 503 792 m 468 888 q 520 908 500 888 q 540 960 540 928 q 521 1012 540 992 q 469 1032 501 1032 q 419 1011 439 1032 q 399 958 399 990 q 417 907 399 926 q 468 888 436 888 z "},"˛":{"ha":628,"x_min":158,"x_max":415,"o":"m 304 -264 q 196 -232 233 -264 q 158 -149 158 -200 q 172 -94 158 -118 q 206 -51 185 -69 q 252 -20 226 -33 q 303 0 278 -7 l 415 0 q 338 -42 371 -17 q 306 -107 306 -67 q 322 -147 306 -133 q 368 -161 339 -161 q 392 -158 382 -161 q 413 -151 403 -156 l 393 -247 q 358 -258 382 -253 q 304 -264 335 -264 z "},"˜":{"ha":628,"x_min":206,"x_max":703,"o":"m 206 821 q 217 890 207 856 q 247 949 228 924 q 298 991 267 975 q 372 1007 329 1007 q 428 998 404 1007 q 471 978 451 989 q 509 958 490 967 q 549 949 528 949 q 585 963 572 949 q 604 1014 599 978 l 703 1014 q 692 946 701 979 q 665 886 683 913 q 616 844 646 860 q 543 828 586 828 q 489 837 511 828 q 447 856 467 846 q 408 876 426 867 q 365 885 389 885 q 325 872 342 885 q 304 821 308 858 l 206 821 l 206 821 z "},"˝":{"ha":628,"x_min":215,"x_max":739,"o":"m 215 817 l 340 1036 l 503 1036 l 338 817 l 215 817 m 450 817 l 576 1036 l 739 1036 l 574 817 l 450 817 z "},"–":{"ha":768,"x_min":81,"x_max":718,"o":"m 110 488 l 718 488 l 689 356 l 81 356 l 110 488 z "},"—":{"ha":1268,"x_min":81,"x_max":1224,"o":"m 110 488 l 1224 488 l 1194 353 l 81 353 l 110 488 z "},"‘":{"ha":347,"x_min":144,"x_max":408,"o":"m 408 1006 q 333 935 367 974 q 286 860 300 897 q 338 823 318 849 q 357 763 357 797 q 328 689 357 718 q 251 660 300 660 q 175 692 206 660 q 144 778 144 725 q 159 849 144 815 q 196 913 174 883 q 245 965 218 942 q 299 1006 272 989 l 408 1006 z "},"’":{"ha":347,"x_min":133,"x_max":397,"o":"m 133 660 q 209 729 176 692 q 257 806 242 767 q 206 841 225 815 q 186 901 186 867 q 215 976 186 946 q 292 1006 243 1006 q 367 973 338 1006 q 397 886 397 940 q 383 815 397 849 q 347 751 369 781 q 298 699 325 722 q 244 660 271 676 l 133 660 z "},"‚":{"ha":347,"x_min":-28,"x_max":236,"o":"m -28 -121 q 48 -51 15 -89 q 94 25 81 -12 q 44 62 63 36 q 25 122 25 88 q 53 196 25 167 q 129 225 81 225 q 206 192 176 225 q 236 107 236 160 q 222 35 236 69 q 186 -28 208 1 q 136 -81 164 -57 q 82 -121 108 -104 l -28 -121 z "},"“":{"ha":615,"x_min":144,"x_max":676,"o":"m 676 1006 q 601 935 635 974 q 554 860 568 897 q 605 823 586 849 q 624 763 624 797 q 596 689 624 718 q 519 660 568 660 q 442 692 472 660 q 413 778 413 725 q 427 849 413 815 q 464 913 442 883 q 513 965 486 942 q 565 1006 540 989 l 676 1006 m 408 1006 q 333 935 367 974 q 286 860 300 897 q 338 823 318 849 q 357 763 357 797 q 328 689 357 718 q 251 660 300 660 q 175 692 206 660 q 144 778 144 725 q 159 849 144 815 q 196 913 174 883 q 245 965 218 942 q 299 1006 272 989 l 408 1006 z "},"”":{"ha":614,"x_min":133,"x_max":665,"o":"m 133 660 q 209 729 176 692 q 257 806 242 767 q 206 841 225 815 q 186 901 186 867 q 215 976 186 946 q 292 1006 243 1006 q 367 973 338 1006 q 397 886 397 940 q 383 815 397 849 q 347 751 369 781 q 298 699 325 722 q 244 660 271 676 l 133 660 m 401 660 q 476 729 443 692 q 524 806 510 767 q 473 841 492 815 q 454 901 454 867 q 482 976 454 946 q 558 1006 510 1006 q 635 973 606 1006 q 665 886 665 940 q 651 815 665 849 q 614 751 636 781 q 565 699 592 722 q 511 660 538 676 l 401 660 z "},"„":{"ha":614,"x_min":-28,"x_max":503,"o":"m -28 -122 q 48 -52 15 -90 q 94 25 81 -14 q 44 60 63 35 q 25 121 25 86 q 53 195 25 165 q 129 225 81 225 q 206 192 176 225 q 236 106 236 160 q 222 34 236 68 q 186 -29 208 0 q 136 -82 164 -58 q 82 -122 108 -106 l -28 -122 m 239 -122 q 314 -52 281 -90 q 361 25 347 -14 q 310 60 329 35 q 292 121 292 86 q 320 195 292 165 q 397 225 349 225 q 473 192 443 225 q 503 106 503 160 q 489 34 503 68 q 453 -29 475 0 q 403 -82 431 -58 q 350 -122 376 -106 l 239 -122 z "},"†":{"ha":703,"x_min":88,"x_max":735,"o":"m 475 568 l 331 -111 l 167 -111 l 311 568 l 88 568 l 121 718 l 343 718 l 403 996 l 567 996 l 507 718 l 735 718 l 703 568 l 475 568 z "},"‡":{"ha":704,"x_min":3,"x_max":736,"o":"m 392 165 l 333 -111 l 169 -111 l 228 165 l 3 165 l 35 315 l 260 315 l 314 568 l 89 568 l 121 718 l 346 718 l 406 996 l 569 996 l 510 718 l 736 718 l 704 568 l 478 568 l 424 315 l 649 315 l 617 165 l 392 165 z "},"•":{"ha":419,"x_min":56,"x_max":372,"o":"m 214 236 q 151 249 181 236 q 101 283 122 261 q 68 333 81 304 q 56 396 56 363 q 68 458 56 429 q 101 508 81 488 q 151 542 122 529 q 214 554 181 554 q 276 542 247 554 q 327 508 306 529 q 360 458 349 488 q 372 396 372 429 q 360 333 372 363 q 327 283 349 304 q 276 249 306 261 q 214 236 247 236 z "},"…":{"ha":1056,"x_min":18,"x_max":940,"o":"m 828 -11 q 747 22 779 -11 q 715 103 715 56 q 747 184 715 151 q 828 217 779 217 q 908 184 876 217 q 940 103 940 151 q 908 22 940 56 q 828 -11 876 -11 m 479 -11 q 399 22 431 -11 q 367 103 367 56 q 399 184 367 151 q 479 217 431 217 q 560 184 528 217 q 592 103 592 151 q 560 22 592 56 q 479 -11 528 -11 m 131 -11 q 50 22 82 -11 q 18 103 18 56 q 50 184 18 151 q 131 217 82 217 q 211 184 179 217 q 243 103 243 151 q 211 22 243 56 q 131 -11 179 -11 z "},"‰":{"ha":1389,"x_min":14,"x_max":1354,"o":"m 14 -11 l 833 1006 l 957 1006 l 140 -11 l 14 -11 m 232 490 q 169 501 199 490 q 118 536 140 513 q 83 597 96 560 q 69 685 69 633 q 87 799 69 743 q 136 900 104 856 q 213 972 168 944 q 313 1000 258 1000 q 375 988 346 1000 q 427 953 404 976 q 463 892 450 929 q 476 804 476 856 q 459 690 476 746 q 410 589 442 633 q 333 517 378 544 q 232 490 288 490 m 299 893 q 252 874 272 893 q 219 826 232 856 q 199 760 206 797 q 193 689 193 724 q 208 617 193 638 q 247 596 222 596 q 293 615 274 596 q 326 663 313 633 q 346 728 339 692 q 353 800 353 764 q 338 872 353 851 q 299 893 324 893 m 654 -8 q 592 3 621 -8 q 540 38 563 14 q 503 99 517 63 q 490 188 490 136 q 508 301 490 244 q 557 401 525 357 q 634 474 589 446 q 733 501 679 501 q 796 490 767 501 q 848 456 825 479 q 884 395 871 432 q 897 307 897 358 q 880 192 897 249 q 831 91 863 136 q 753 19 799 46 q 654 -8 708 -8 m 1110 -8 q 1048 3 1078 -8 q 996 38 1018 14 q 960 99 974 63 q 947 188 947 136 q 965 301 947 244 q 1014 401 982 357 q 1091 474 1046 446 q 1190 501 1136 501 q 1253 490 1224 501 q 1305 456 1282 479 q 1341 395 1328 432 q 1354 307 1354 358 q 1337 192 1354 249 q 1288 91 1319 136 q 1210 19 1256 46 q 1110 -8 1165 -8 m 719 394 q 674 376 693 394 q 641 328 654 357 q 621 263 628 299 q 614 190 614 226 q 628 119 614 139 q 668 99 643 99 q 714 117 694 99 q 747 165 733 136 q 767 231 760 194 q 774 304 774 268 q 759 374 774 354 q 719 394 744 394 m 1176 394 q 1131 376 1150 394 q 1098 328 1111 357 q 1078 263 1085 299 q 1071 190 1071 226 q 1085 119 1071 139 q 1125 99 1100 99 q 1171 117 1151 99 q 1203 165 1190 136 q 1224 231 1217 194 q 1231 304 1231 268 q 1216 374 1231 354 q 1176 394 1201 394 z "},"‹":{"ha":419,"x_min":57,"x_max":435,"o":"m 221 361 l 325 89 l 167 89 l 57 374 l 263 651 l 435 651 l 221 361 z "},"›":{"ha":419,"x_min":-17,"x_max":360,"o":"m 154 89 l -17 89 l 197 379 l 94 651 l 251 651 l 360 367 l 154 89 z "},"⁄":{"ha":672,"x_min":-171,"x_max":893,"o":"m -171 0 l 747 996 l 893 996 l -25 0 l -171 0 z "},"€":{"ha":764,"x_min":29,"x_max":858,"o":"m 682 11 q 621 -6 663 3 q 526 -14 579 -14 q 383 8 449 -14 q 267 72 317 29 q 184 181 217 115 q 143 333 151 246 l 29 333 l 54 449 l 142 449 q 147 495 144 472 q 153 542 149 518 l 74 542 l 99 658 l 185 658 q 258 799 213 735 q 363 911 303 864 q 497 984 422 958 q 657 1010 571 1010 q 783 992 732 1010 q 858 960 835 975 l 829 825 q 759 858 803 842 q 656 874 715 874 q 553 858 599 874 q 472 813 508 842 q 409 745 436 785 q 364 658 382 706 l 608 658 l 583 542 l 331 542 q 324 495 326 518 q 319 449 322 472 l 564 449 l 539 333 l 321 333 q 349 233 328 274 q 403 168 371 193 q 476 133 435 143 q 565 122 517 122 q 650 129 613 122 q 711 144 688 136 l 682 11 l 682 11 z "},"™":{"ha":1247,"x_min":128,"x_max":1294,"o":"m 1133 836 l 942 533 l 818 533 l 764 839 l 681 447 l 569 447 l 685 996 l 854 996 l 913 664 l 1126 996 l 1294 996 l 1178 447 l 1050 447 l 1133 836 m 421 888 l 326 447 l 200 447 l 294 888 l 128 888 l 150 996 l 610 996 l 588 888 l 421 888 z "},"≈":{"ha":764,"x_min":-40,"x_max":826,"o":"m 22 489 q 43 584 26 538 q 92 667 60 631 q 171 726 124 704 q 283 749 218 749 q 380 731 342 749 q 449 692 418 714 q 507 653 479 671 q 575 636 535 636 q 649 664 619 636 q 697 758 679 692 l 826 758 q 805 663 822 710 q 756 579 788 615 q 678 521 725 543 q 567 499 631 499 q 469 517 508 499 q 400 556 431 535 q 341 594 369 576 q 274 613 313 613 q 199 584 229 613 q 153 489 169 556 l 22 489 m -40 172 q -19 269 -36 222 q 29 352 -3 315 q 108 411 61 389 q 219 433 154 433 q 317 415 279 433 q 385 376 356 397 q 444 338 415 356 q 511 319 472 319 q 586 348 557 319 q 633 443 615 376 l 763 443 q 742 347 758 394 q 694 264 725 300 q 615 206 663 228 q 504 183 568 183 q 406 201 444 183 q 338 240 368 219 q 278 279 307 261 q 211 297 250 297 q 137 268 167 297 q 89 172 107 239 l -40 172 z "},"≠":{"ha":764,"x_min":8,"x_max":776,"o":"m 332 260 l 225 86 l 85 86 l 193 260 l 8 260 l 33 385 l 269 385 l 374 551 l 69 551 l 96 676 l 451 676 l 558 850 l 697 850 l 590 676 l 776 676 l 750 551 l 513 551 l 410 385 l 714 385 l 688 260 l 332 260 z "},"≤":{"ha":764,"x_min":-6,"x_max":781,"o":"m 85 424 l 117 576 l 781 815 l 750 675 l 265 497 l 676 319 l 646 183 l 85 424 m -6 0 l 21 125 l 633 125 l 607 0 l -6 0 z "},"≥":{"ha":764,"x_min":-10,"x_max":726,"o":"m 60 326 l 544 504 l 136 681 l 164 815 l 726 576 l 693 424 l 29 183 l 60 326 m 18 125 l 631 125 l 604 0 l -10 0 l 18 125 z "},"ﬁ":{"ha":872,"x_min":38,"x_max":911,"o":"m 360 588 l 206 -176 l 38 -176 l 192 588 l 107 588 l 135 721 l 219 721 l 222 736 q 326 941 250 874 q 539 1008 401 1008 q 606 1006 571 1008 q 658 996 640 1003 l 628 861 q 589 869 617 865 q 533 872 561 872 q 437 842 469 872 q 389 736 404 813 l 386 721 l 586 721 l 558 588 l 360 588 m 808 807 q 735 838 765 807 q 706 913 706 869 q 735 988 706 957 q 808 1018 765 1018 q 881 988 851 1018 q 911 913 911 957 q 881 838 911 869 q 808 807 851 807 m 860 721 l 707 0 l 539 0 l 693 721 l 860 721 z "},"ﬂ":{"ha":872,"x_min":38,"x_max":918,"o":"m 360 588 l 206 -176 l 38 -176 l 192 588 l 107 588 l 135 721 l 219 721 l 222 736 q 326 941 250 874 q 539 1008 401 1008 q 606 1006 571 1008 q 658 996 640 1003 l 628 861 q 589 869 617 865 q 533 872 561 872 q 437 842 469 872 q 389 736 404 813 l 386 721 l 586 721 l 558 588 l 360 588 m 918 996 l 706 0 l 539 0 l 751 996 l 918 996 z "},"ƒ":{"ha":764,"x_min":-211,"x_max":828,"o":"m 265 38 q 120 -189 207 -118 q -94 -260 33 -260 q -168 -253 -136 -260 q -211 -240 -200 -247 l -174 -108 q -142 -119 -162 -114 q -92 -125 -121 -125 q 24 -84 -18 -125 q 99 42 67 -43 l 271 497 l 158 497 l 203 611 l 314 611 l 350 708 q 417 847 381 789 q 499 940 454 904 q 597 992 543 975 q 714 1008 650 1008 q 783 1003 749 1008 q 828 992 817 999 l 788 857 q 755 866 776 863 q 706 869 733 869 q 596 835 636 869 q 522 713 556 801 l 483 611 l 668 611 l 622 497 l 440 497 l 265 38 l 265 38 z "},"\r":{"ha":281,"x_min":0,"x_max":0,"o":""}," ":{"ha":306,"x_min":0,"x_max":0,"o":""},"!":{"ha":354,"x_min":13,"x_max":396,"o":"m 396 989 l 228 296 l 94 296 l 224 989 l 396 989 m 125 -11 q 44 22 76 -11 q 13 103 13 56 q 45 184 13 151 q 126 217 78 217 q 206 184 175 217 q 238 103 238 151 q 206 22 238 56 q 125 -11 174 -11 z "},";":{"ha":364,"x_min":-29,"x_max":347,"o":"m -29 -154 q 44 -83 13 -122 q 90 3 75 -43 q 37 44 54 15 q 19 104 19 72 q 49 183 19 151 q 129 214 79 214 q 210 181 179 214 q 240 92 240 147 q 227 18 240 54 q 193 -49 214 -18 q 146 -108 172 -81 q 93 -154 119 -135 l -29 -154 m 235 472 q 154 506 186 472 q 122 586 122 539 q 154 667 122 635 q 235 700 186 700 q 315 667 283 700 q 347 586 347 635 q 315 506 347 539 q 235 472 283 472 z "},"¤":{"ha":786,"x_min":67,"x_max":751,"o":"m 408 189 q 326 200 365 189 q 254 231 288 211 l 157 133 l 69 222 l 161 317 q 126 392 139 351 q 114 478 114 432 q 126 565 114 525 q 161 640 139 606 l 67 736 l 154 826 l 253 726 q 326 757 288 746 q 408 768 365 768 q 491 756 451 768 q 564 725 531 744 l 664 826 l 751 736 l 656 640 q 703 478 703 569 q 656 318 703 389 l 750 222 l 661 133 l 563 232 q 490 201 529 213 q 408 189 451 189 m 410 317 q 466 328 439 317 q 513 360 493 339 q 545 410 533 381 q 557 478 557 440 q 513 598 557 556 q 410 640 469 640 q 306 598 350 640 q 263 478 263 556 q 274 410 263 440 q 306 360 286 381 q 353 328 326 339 q 410 317 381 317 z "},"¦":{"ha":425,"x_min":147,"x_max":299,"o":"m 299 1050 l 299 494 l 147 494 l 147 1050 l 299 1050 m 299 389 l 299 -167 l 147 -167 l 147 389 l 299 389 z "},"²":{"ha":504,"x_min":61,"x_max":564,"o":"m 483 451 l 61 451 l 88 575 q 243 671 182 628 q 340 750 304 714 q 390 818 376 786 q 404 882 404 850 q 381 951 404 926 q 313 976 357 976 q 231 961 265 976 q 167 922 197 946 l 192 1040 q 259 1073 218 1058 q 357 1088 300 1088 q 508 1038 453 1088 q 564 906 564 989 q 483 724 564 806 q 243 563 403 643 l 506 563 l 483 451 z "},"³":{"ha":490,"x_min":71,"x_max":549,"o":"m 511 636 q 446 497 511 551 q 258 443 381 443 q 143 461 188 443 q 71 499 99 479 l 96 607 q 160 572 119 592 q 260 551 200 551 q 340 577 314 551 q 365 642 365 603 q 339 704 365 683 q 268 725 313 725 l 204 725 l 225 826 l 293 826 q 372 848 344 826 q 400 907 400 869 q 377 959 400 940 q 315 978 354 978 q 239 965 271 978 q 175 933 207 953 l 200 1047 q 269 1077 232 1067 q 356 1088 307 1088 q 499 1042 449 1088 q 549 928 549 996 q 505 822 549 863 q 394 775 461 782 q 477 731 443 764 q 511 636 511 697 z "},"¹":{"ha":390,"x_min":107,"x_max":475,"o":"m 342 451 l 193 451 l 292 913 l 107 778 l 139 926 l 347 1079 l 475 1079 l 342 451 z "},"¼":{"ha":1264,"x_min":101,"x_max":1196,"o":"m 336 368 l 188 368 l 286 829 l 101 694 l 133 843 l 342 996 l 469 996 l 336 368 m 132 0 l 1050 996 l 1196 996 l 278 0 l 132 0 m 1089 131 l 1061 1 l 917 1 l 944 131 l 671 131 l 692 228 l 1044 629 l 1193 629 l 1111 236 l 1190 236 l 1168 131 l 1089 131 m 967 236 l 1017 468 l 813 236 l 967 236 z "},"½":{"ha":1346,"x_min":101,"x_max":1301,"o":"m 132 0 l 1050 996 l 1196 996 l 278 0 l 132 0 m 1221 1 l 799 1 l 825 125 q 981 221 919 178 q 1078 300 1042 264 q 1128 368 1114 336 q 1142 432 1142 400 q 1118 501 1142 476 q 1050 526 1094 526 q 969 511 1003 526 q 904 472 935 496 l 929 590 q 997 623 956 608 q 1094 638 1038 638 q 1246 588 1190 638 q 1301 456 1301 539 q 1221 274 1301 356 q 981 113 1140 193 l 1243 113 l 1221 1 m 336 368 l 188 368 l 286 829 l 101 694 l 133 843 l 342 996 l 469 996 l 336 368 z "},"¾":{"ha":1317,"x_min":65,"x_max":1249,"o":"m 506 553 q 440 414 506 468 q 253 360 375 360 q 138 378 182 360 q 65 415 93 396 l 90 524 q 154 488 114 508 q 254 468 194 468 q 334 494 308 468 q 360 558 360 519 q 333 621 360 600 q 263 642 307 642 l 199 642 l 219 743 l 288 743 q 367 765 339 743 q 394 824 394 786 q 372 876 394 857 q 310 894 349 894 q 233 882 265 894 q 169 850 201 869 l 194 964 q 264 994 226 983 q 350 1004 301 1004 q 493 958 443 1004 q 543 844 543 913 q 499 739 543 779 q 389 692 456 699 q 472 647 438 681 q 506 553 506 614 m 185 0 l 1103 996 l 1249 996 l 331 0 l 185 0 m 1142 131 l 1114 1 l 969 1 l 997 131 l 724 131 l 744 228 l 1097 629 l 1246 629 l 1164 236 l 1243 236 l 1221 131 l 1142 131 m 1019 236 l 1069 468 l 865 236 l 1019 236 z "},"Ð":{"ha":1039,"x_min":43,"x_max":1011,"o":"m 185 572 l 275 996 l 582 996 q 752 973 674 996 q 888 901 831 950 q 978 773 946 851 q 1011 582 1011 694 q 974 362 1011 467 q 863 176 936 257 q 681 48 790 96 q 429 0 572 0 l 63 0 l 157 446 l 43 446 l 69 572 l 185 572 m 332 446 l 269 147 l 447 147 q 608 181 538 147 q 728 272 679 214 q 802 407 776 329 q 828 574 828 485 q 809 704 828 651 q 756 789 790 757 q 674 835 722 821 q 568 849 626 849 l 418 849 l 360 572 l 618 572 l 593 446 l 332 446 z "},"×":{"ha":764,"x_min":36,"x_max":781,"o":"m 582 125 l 393 368 l 124 126 l 36 232 l 310 476 l 113 732 l 226 818 l 418 572 l 694 819 l 781 714 l 501 464 l 696 214 l 582 125 z "},"Ý":{"ha":849,"x_min":149,"x_max":974,"o":"m 526 411 l 439 0 l 263 0 l 353 425 l 149 996 l 333 996 l 474 572 l 794 996 l 974 996 l 526 411 m 633 1267 l 851 1267 l 631 1078 l 479 1078 l 633 1267 z "},"Þ":{"ha":840,"x_min":28,"x_max":856,"o":"m 243 186 l 203 0 l 28 0 l 240 996 l 415 996 l 378 819 l 515 819 q 656 802 593 819 q 764 749 719 785 q 832 660 808 714 q 856 533 856 606 q 824 387 856 451 q 738 278 793 322 q 608 210 683 233 q 442 186 532 186 l 243 186 m 347 675 l 274 329 l 472 329 q 619 381 567 329 q 672 524 672 433 q 624 642 672 608 q 494 675 576 675 l 347 675 z "},"ð":{"ha":811,"x_min":43,"x_max":779,"o":"m 779 497 q 747 283 779 378 q 659 122 715 188 q 527 21 603 56 q 365 -14 451 -14 q 241 6 300 -14 q 138 67 182 26 q 69 172 94 108 q 43 324 43 236 q 72 492 43 418 q 149 617 100 567 q 263 695 199 668 q 397 722 326 722 q 508 702 458 722 q 593 638 558 682 q 493 828 563 749 l 274 753 l 247 833 l 422 893 q 341 943 385 921 q 247 983 297 965 l 249 996 l 496 996 q 578 946 539 976 l 739 1001 l 764 919 l 647 881 q 743 714 707 810 q 779 497 779 618 m 381 121 q 545 213 485 121 q 606 471 606 306 q 606 493 606 483 q 604 514 606 503 q 534 573 581 553 q 433 593 488 593 q 337 572 378 593 q 269 516 296 551 q 228 432 242 481 q 215 329 215 383 q 229 231 215 271 q 266 167 243 192 q 319 132 289 143 q 381 121 349 121 z "},"ý":{"ha":749,"x_min":-71,"x_max":800,"o":"m 397 -12 q 326 -121 363 -75 q 247 -198 289 -167 q 155 -244 204 -229 q 46 -260 106 -260 q -18 -256 13 -260 q -71 -240 -49 -251 l -40 -104 q 7 -119 -19 -115 q 63 -124 33 -124 q 147 -103 111 -124 q 215 -44 183 -83 l 92 721 l 264 721 l 340 163 l 639 721 l 800 721 l 397 -12 l 397 -12 m 543 1036 l 733 1036 l 513 817 l 383 817 l 543 1036 z "},"þ":{"ha":846,"x_min":-40,"x_max":807,"o":"m 444 -14 q 297 26 357 -14 q 208 135 236 67 l 128 -246 l -40 -246 l 225 996 l 390 996 l 314 638 q 408 708 354 682 q 531 735 463 735 q 644 714 593 735 q 731 653 694 693 q 787 555 767 614 q 807 419 807 496 q 779 247 807 326 q 702 110 751 168 q 587 19 653 51 q 444 -14 521 -14 m 417 124 q 508 147 468 124 q 576 209 549 169 q 617 299 603 249 q 631 407 631 350 q 586 553 631 507 q 469 600 542 600 q 377 577 417 600 q 310 515 338 554 q 269 425 283 476 q 256 317 256 374 q 301 172 256 219 q 417 124 346 124 z "},"Ł":{"ha":843,"x_min":25,"x_max":744,"o":"m 713 0 l 99 0 l 168 329 l 25 258 l 56 404 l 200 475 l 311 996 l 486 996 l 396 572 l 674 710 l 644 564 l 364 425 l 306 147 l 744 147 l 713 0 z "},"ł":{"ha":390,"x_min":-10,"x_max":469,"o":"m 21 428 l 150 513 l 253 996 l 419 996 l 343 640 l 469 724 l 439 583 l 314 500 l 207 0 l 40 0 l 119 372 l -10 288 l 21 428 z "},"Š":{"ha":832,"x_min":21,"x_max":817,"o":"m 388 -14 q 261 -3 319 -14 q 156 26 203 8 q 74 67 108 44 q 21 111 40 89 l 51 256 q 114 208 76 231 q 197 169 151 186 q 292 143 242 153 q 394 133 343 133 q 544 172 499 133 q 590 278 590 211 q 578 334 590 311 q 541 374 565 357 q 481 404 517 390 q 400 435 446 418 q 303 472 351 451 q 217 522 256 492 q 156 599 179 553 q 132 713 132 644 q 158 835 132 781 q 233 928 185 889 q 351 988 282 967 q 508 1008 421 1008 q 614 1000 565 1008 q 702 979 663 992 q 771 951 742 967 q 817 922 800 936 l 786 779 q 664 840 738 819 q 508 861 590 861 q 351 825 400 861 q 303 732 303 789 q 319 674 303 697 q 361 635 335 651 q 422 606 388 618 q 496 579 457 593 q 594 541 546 563 q 680 488 642 519 q 742 408 718 456 q 765 290 765 360 q 738 160 765 217 q 661 65 711 103 q 542 6 611 26 q 388 -14 472 -14 m 617 1071 l 439 1071 l 336 1276 l 465 1276 l 546 1168 l 671 1276 l 807 1276 l 617 1071 z "},"š":{"ha":656,"x_min":11,"x_max":672,"o":"m 589 217 q 517 47 589 108 q 306 -14 444 -14 q 203 -5 250 -14 q 120 18 157 4 q 56 49 83 32 q 11 82 28 65 l 40 214 q 155 150 83 178 q 311 122 226 122 q 372 128 349 122 q 409 146 396 135 q 428 170 422 157 q 433 199 433 183 q 421 241 433 225 q 388 267 408 257 q 340 285 367 278 q 285 300 313 292 q 211 326 247 311 q 147 363 175 340 q 101 421 118 386 q 83 507 83 456 q 105 606 83 564 q 165 677 126 649 q 256 720 203 706 q 371 735 308 735 q 528 710 464 735 q 622 664 592 686 l 594 535 q 499 579 554 560 q 371 599 444 599 q 273 581 307 599 q 239 525 239 564 q 250 488 239 501 q 280 464 261 474 q 323 447 299 454 q 375 432 347 440 q 451 408 413 421 q 519 372 489 394 q 569 312 550 349 q 589 217 589 275 m 488 817 l 313 817 l 214 1022 l 344 1022 l 418 915 l 539 1022 l 672 1022 l 488 817 z "},"Ž":{"ha":854,"x_min":-22,"x_max":914,"o":"m 717 0 l -22 0 l 6 129 l 661 849 l 160 849 l 192 996 l 914 996 l 886 865 l 231 147 l 749 147 l 717 0 m 647 1071 l 469 1071 l 367 1276 l 496 1276 l 576 1168 l 701 1276 l 838 1276 l 647 1071 z "},"ž":{"ha":661,"x_min":-28,"x_max":694,"o":"m 538 0 l -28 0 l -4 114 l 447 589 l 110 589 l 138 721 l 689 721 l 667 614 l 210 133 l 565 133 l 538 0 m 510 817 l 335 817 l 236 1022 l 367 1022 l 440 915 l 561 1022 l 694 1022 l 510 817 z "},"−":{"ha":764,"x_min":40,"x_max":747,"o":"m 40 406 l 68 531 l 747 531 l 721 406 l 40 406 z "},"Đ":{"ha":1033,"x_min":42,"x_max":1010,"o":"m 183 572 l 274 996 l 581 996 q 751 973 672 996 q 887 901 829 950 q 977 773 944 851 q 1010 582 1010 694 q 972 362 1010 467 q 862 176 935 257 q 680 48 789 96 q 428 0 571 0 l 61 0 l 156 446 l 42 446 l 68 572 l 183 572 m 331 446 l 268 147 l 446 147 q 607 181 536 147 q 726 272 678 214 q 801 407 775 329 q 826 574 826 485 q 808 704 826 651 q 755 789 789 757 q 673 835 721 821 q 567 849 625 849 l 417 849 l 358 572 l 617 572 l 592 446 l 331 446 z "},"Ŋ":{"ha":1019,"x_min":28,"x_max":1053,"o":"m 240 996 l 451 996 l 728 204 l 896 996 l 1053 996 l 832 -40 q 730 -213 810 -147 q 524 -279 650 -279 q 379 -249 440 -279 l 407 -107 q 515 -132 458 -132 q 683 -3 656 -132 l 683 0 l 632 0 l 356 792 l 186 0 l 28 0 l 240 996 z "},"Ĳ":{"ha":883,"x_min":28,"x_max":925,"o":"m 415 996 l 203 0 l 28 0 l 240 996 l 415 996 m 925 996 l 764 243 q 661 57 740 128 q 451 -14 582 -14 q 306 15 365 -14 l 335 157 q 443 133 386 133 q 549 169 514 133 q 597 274 583 204 l 751 996 l 925 996 z "},"đ":{"ha":849,"x_min":43,"x_max":971,"o":"m 546 99 q 447 17 503 47 q 318 -14 390 -14 q 211 6 261 -14 q 124 66 161 26 q 65 165 86 106 q 43 306 43 225 q 70 472 43 393 q 145 608 97 550 q 260 701 193 667 q 410 735 328 735 q 556 696 497 735 q 642 588 614 657 l 685 793 l 474 793 l 497 901 l 708 901 l 729 996 l 896 996 l 875 901 l 971 901 l 947 793 l 853 793 l 683 0 l 531 0 l 546 99 m 594 415 q 550 553 594 507 q 433 599 506 599 q 341 576 381 599 q 274 515 301 554 q 233 426 247 476 q 219 319 219 375 q 267 168 219 214 q 383 122 314 122 q 482 149 442 122 q 547 217 522 175 q 583 310 572 258 q 594 415 594 363 z "},"ŋ":{"ha":808,"x_min":14,"x_max":763,"o":"m 371 -260 q 302 -253 338 -260 q 239 -231 267 -247 l 268 -100 q 310 -117 285 -111 q 367 -124 335 -124 q 449 -92 425 -124 q 485 -3 474 -61 l 579 444 q 585 519 589 489 q 565 566 581 549 q 526 591 550 583 q 474 599 503 599 q 411 590 439 599 q 360 567 383 582 q 319 534 338 553 q 288 496 301 515 l 181 0 l 14 0 l 167 721 l 325 721 l 306 606 l 308 606 q 408 698 349 661 q 549 735 467 735 q 647 717 603 735 q 718 662 690 699 q 754 570 746 625 q 747 443 763 515 l 649 -24 q 558 -197 625 -135 q 371 -260 490 -260 z "},"ĳ":{"ha":685,"x_min":13,"x_max":729,"o":"m 282 807 q 209 838 239 807 q 179 913 179 869 q 209 988 179 957 q 282 1018 239 1018 q 355 988 325 1018 q 385 913 385 957 q 355 838 385 869 q 282 807 325 807 m 333 721 l 181 0 l 13 0 l 167 721 l 333 721 m 625 807 q 553 838 583 807 q 522 913 522 869 q 553 988 522 957 q 625 1018 583 1018 q 699 988 669 1018 q 729 913 729 957 q 699 838 729 869 q 625 807 669 807 m 519 -24 q 429 -197 496 -135 q 242 -260 363 -260 q 173 -253 208 -260 q 110 -231 138 -247 l 139 -100 q 181 -117 157 -111 q 238 -124 206 -124 q 320 -92 296 -124 q 356 -3 344 -61 l 511 721 l 678 721 l 519 -24 z "},"Ă":{"ha":963,"x_min":-56,"x_max":896,"o":"m 506 996 l 726 996 l 864 0 l 690 0 l 656 257 l 254 257 l 110 0 l -56 0 l 506 996 m 636 403 l 579 835 l 336 403 l 636 403 m 636 1061 q 535 1079 578 1061 q 467 1127 493 1097 q 431 1197 440 1157 q 431 1283 422 1238 l 568 1283 q 583 1208 561 1235 q 649 1181 604 1181 q 758 1283 738 1181 l 896 1283 q 869 1199 888 1239 q 820 1128 851 1158 q 743 1079 789 1097 q 636 1061 697 1061 z "},"Ā":{"ha":963,"x_min":-56,"x_max":881,"o":"m 506 996 l 726 996 l 864 0 l 690 0 l 656 257 l 254 257 l 110 0 l -56 0 l 506 996 m 636 403 l 579 835 l 336 403 l 636 403 m 406 1236 l 881 1236 l 854 1111 l 381 1111 l 406 1236 z "},"Ą":{"ha":963,"x_min":-56,"x_max":864,"o":"m 506 996 l 726 996 l 864 0 q 772 -41 808 -15 q 736 -107 736 -67 q 753 -147 736 -133 q 800 -161 771 -161 q 844 -151 822 -161 l 825 -247 q 790 -258 814 -253 q 736 -264 767 -264 q 628 -231 665 -264 q 590 -142 590 -199 q 619 -52 590 -89 q 689 6 649 -15 l 656 257 l 254 257 l 110 0 l -56 0 l 506 996 m 636 403 l 579 835 l 336 403 l 636 403 z "},"Ć":{"ha":906,"x_min":69,"x_max":931,"o":"m 529 -14 q 349 15 433 -14 q 203 100 265 43 q 106 241 142 157 q 69 436 69 325 q 108 649 69 546 q 219 833 146 753 q 399 960 292 913 q 646 1008 507 1008 q 810 988 740 1008 q 918 942 879 968 l 883 793 q 778 842 842 824 q 639 861 714 861 q 467 826 539 861 q 347 732 394 790 q 277 599 300 674 q 254 447 254 525 q 276 305 254 364 q 338 208 299 246 q 433 151 378 169 q 556 133 489 133 q 683 149 618 133 q 807 200 749 165 l 775 50 q 669 3 735 21 q 529 -14 604 -14 m 713 1267 l 931 1267 l 710 1078 l 558 1078 l 713 1267 z "},"Č":{"ha":906,"x_min":69,"x_max":928,"o":"m 529 -14 q 349 15 433 -14 q 203 100 265 43 q 106 241 142 157 q 69 436 69 325 q 108 649 69 546 q 219 833 146 753 q 399 960 292 913 q 646 1008 507 1008 q 810 988 740 1008 q 918 942 879 968 l 883 793 q 778 842 842 824 q 639 861 714 861 q 467 826 539 861 q 347 732 394 790 q 277 599 300 674 q 254 447 254 525 q 276 305 254 364 q 338 208 299 246 q 433 151 378 169 q 556 133 489 133 q 683 149 618 133 q 807 200 749 165 l 775 50 q 669 3 735 21 q 529 -14 604 -14 m 738 1071 l 560 1071 l 457 1276 l 586 1276 l 667 1168 l 792 1276 l 928 1276 l 738 1071 z "},"Ĉ":{"ha":906,"x_min":69,"x_max":918,"o":"m 529 -14 q 349 15 433 -14 q 203 100 265 43 q 106 241 142 157 q 69 436 69 325 q 108 649 69 546 q 219 833 146 753 q 399 960 292 913 q 646 1008 507 1008 q 810 988 740 1008 q 918 942 879 968 l 883 793 q 778 842 842 824 q 639 861 714 861 q 467 826 539 861 q 347 732 394 790 q 277 599 300 674 q 254 447 254 525 q 276 305 254 364 q 338 208 299 246 q 433 151 378 169 q 556 133 489 133 q 683 149 618 133 q 807 200 749 165 l 775 50 q 669 3 735 21 q 529 -14 604 -14 m 661 1179 l 535 1071 l 399 1071 l 589 1276 l 767 1276 l 869 1071 l 739 1071 l 661 1179 z "},"Ċ":{"ha":901,"x_min":69,"x_max":918,"o":"m 529 -14 q 349 15 433 -14 q 203 100 265 43 q 106 241 142 157 q 69 436 69 325 q 108 649 69 546 q 219 833 146 753 q 399 960 292 913 q 646 1008 507 1008 q 810 988 740 1008 q 918 942 879 968 l 883 793 q 778 842 842 824 q 639 861 714 861 q 467 826 539 861 q 347 732 394 790 q 277 599 300 674 q 254 447 254 525 q 276 305 254 364 q 338 208 299 246 q 433 151 378 169 q 556 133 489 133 q 683 149 618 133 q 807 200 749 165 l 775 50 q 669 3 735 21 q 529 -14 604 -14 m 628 1082 q 554 1112 585 1082 q 524 1183 524 1142 q 554 1256 524 1226 q 628 1286 585 1286 q 704 1256 674 1286 q 735 1183 735 1226 q 704 1112 735 1142 q 628 1082 674 1082 z "},"Ď":{"ha":1004,"x_min":28,"x_max":978,"o":"m 240 996 l 547 996 q 717 973 639 996 q 853 901 796 950 q 944 773 911 851 q 978 582 978 694 q 940 362 978 467 q 829 176 903 257 q 647 48 756 96 q 396 0 539 0 l 28 0 l 240 996 m 383 849 l 235 147 l 413 147 q 575 181 504 147 q 694 272 646 214 q 769 407 743 329 q 794 574 794 485 q 776 704 794 651 q 722 789 757 757 q 640 835 688 821 q 533 849 592 849 l 383 849 m 661 1071 l 483 1071 l 381 1276 l 510 1276 l 590 1168 l 715 1276 l 851 1276 l 661 1071 z "},"Ĕ":{"ha":817,"x_min":28,"x_max":869,"o":"m 240 996 l 869 996 l 836 849 l 383 849 l 328 589 l 710 589 l 679 442 l 297 442 l 235 147 l 696 147 l 663 0 l 28 0 l 240 996 m 575 1061 q 474 1079 517 1061 q 406 1127 432 1097 q 370 1197 379 1157 q 369 1283 361 1238 l 507 1283 q 522 1208 500 1235 q 588 1181 543 1181 q 697 1283 676 1181 l 835 1283 q 808 1199 826 1239 q 759 1128 790 1158 q 682 1079 728 1097 q 575 1061 636 1061 z "},"Ě":{"ha":817,"x_min":28,"x_max":869,"o":"m 240 996 l 869 996 l 836 849 l 383 849 l 328 589 l 710 589 l 679 442 l 297 442 l 235 147 l 696 147 l 663 0 l 28 0 l 240 996 m 658 1071 l 481 1071 l 378 1276 l 507 1276 l 588 1168 l 713 1276 l 849 1276 l 658 1071 z "},"Ė":{"ha":817,"x_min":28,"x_max":869,"o":"m 240 996 l 869 996 l 836 849 l 383 849 l 328 589 l 710 589 l 679 442 l 297 442 l 235 147 l 696 147 l 663 0 l 28 0 l 240 996 m 575 1082 q 501 1112 532 1082 q 471 1183 471 1142 q 501 1256 471 1226 q 575 1286 532 1286 q 651 1256 621 1286 q 682 1183 682 1226 q 651 1112 682 1142 q 575 1082 621 1082 z "},"Ē":{"ha":817,"x_min":28,"x_max":869,"o":"m 240 996 l 869 996 l 836 849 l 383 849 l 328 589 l 710 589 l 679 442 l 297 442 l 235 147 l 696 147 l 663 0 l 28 0 l 240 996 m 358 1236 l 833 1236 l 807 1111 l 333 1111 l 358 1236 z "},"Ę":{"ha":817,"x_min":28,"x_max":869,"o":"m 240 996 l 869 996 l 836 849 l 383 849 l 328 589 l 710 589 l 679 442 l 297 442 l 235 147 l 696 147 l 663 0 l 28 0 l 240 996 m 551 -264 q 443 -232 481 -264 q 406 -149 406 -200 q 419 -94 406 -118 q 453 -51 432 -69 q 499 -20 474 -33 q 550 0 525 -7 l 663 0 q 585 -42 618 -17 q 553 -107 553 -67 q 569 -147 553 -133 q 615 -161 586 -161 q 640 -158 629 -161 q 660 -151 650 -156 l 640 -247 q 606 -258 629 -253 q 551 -264 582 -264 z "},"Ğ":{"ha":1018,"x_min":69,"x_max":1015,"o":"m 999 424 q 940 231 982 313 q 836 94 899 149 q 694 13 774 40 q 525 -14 615 -14 q 344 16 428 -14 q 200 103 261 46 q 104 246 139 161 q 69 440 69 331 q 106 653 69 550 q 213 835 142 756 q 390 961 285 914 q 632 1008 494 1008 q 748 999 696 1008 q 840 974 800 989 q 910 942 881 960 q 958 907 940 924 l 925 754 q 807 828 882 794 q 629 861 732 861 q 458 826 529 861 q 341 733 386 790 q 275 601 296 675 q 254 447 254 526 q 275 306 254 365 q 333 208 296 247 q 422 151 371 169 q 535 133 474 133 q 718 194 646 133 q 815 386 790 254 l 504 386 l 540 533 l 1015 533 l 999 424 l 999 424 m 646 1061 q 545 1079 588 1061 q 476 1127 503 1097 q 441 1197 450 1157 q 440 1283 432 1238 l 578 1283 q 592 1208 571 1235 q 658 1181 614 1181 q 768 1283 747 1181 l 906 1283 q 879 1199 897 1239 q 830 1128 861 1158 q 753 1079 799 1097 q 646 1061 707 1061 z "},"Ĝ":{"ha":1018,"x_min":69,"x_max":1015,"o":"m 999 424 q 940 231 982 313 q 836 94 899 149 q 694 13 774 40 q 525 -14 615 -14 q 344 16 428 -14 q 200 103 261 46 q 104 246 139 161 q 69 440 69 331 q 106 653 69 550 q 213 835 142 756 q 390 961 285 914 q 632 1008 494 1008 q 748 999 696 1008 q 840 974 800 989 q 910 942 881 960 q 958 907 940 924 l 925 754 q 807 828 882 794 q 629 861 732 861 q 458 826 529 861 q 341 733 386 790 q 275 601 296 675 q 254 447 254 526 q 275 306 254 365 q 333 208 296 247 q 422 151 371 169 q 535 133 474 133 q 718 194 646 133 q 815 386 790 254 l 504 386 l 540 533 l 1015 533 l 999 424 l 999 424 m 640 1179 l 514 1071 l 378 1071 l 568 1276 l 746 1276 l 849 1071 l 718 1071 l 640 1179 z "},"Ģ":{"ha":1018,"x_min":69,"x_max":1015,"o":"m 999 424 q 940 231 982 313 q 836 94 899 149 q 694 13 774 40 q 525 -14 615 -14 q 344 16 428 -14 q 200 103 261 46 q 104 246 139 161 q 69 440 69 331 q 106 653 69 550 q 213 835 142 756 q 390 961 285 914 q 632 1008 494 1008 q 748 999 696 1008 q 840 974 800 989 q 910 942 881 960 q 958 907 940 924 l 925 754 q 807 828 882 794 q 629 861 732 861 q 458 826 529 861 q 341 733 386 790 q 275 601 296 675 q 254 447 254 526 q 275 306 254 365 q 333 208 296 247 q 422 151 371 169 q 535 133 474 133 q 718 194 646 133 q 815 386 790 254 l 504 386 l 540 533 l 1015 533 l 999 424 l 999 424 m 589 -162 q 579 -215 589 -190 q 553 -260 569 -239 q 517 -299 538 -281 q 478 -333 497 -318 l 371 -333 q 426 -288 403 -311 q 468 -235 450 -265 q 423 -206 440 -228 q 406 -153 406 -185 q 431 -90 406 -115 q 496 -65 456 -65 q 562 -90 535 -65 q 589 -162 589 -114 z "},"Ġ":{"ha":1018,"x_min":69,"x_max":1015,"o":"m 999 424 q 940 231 982 313 q 836 94 899 149 q 694 13 774 40 q 525 -14 615 -14 q 344 16 428 -14 q 200 103 261 46 q 104 246 139 161 q 69 440 69 331 q 106 653 69 550 q 213 835 142 756 q 390 961 285 914 q 632 1008 494 1008 q 748 999 696 1008 q 840 974 800 989 q 910 942 881 960 q 958 907 940 924 l 925 754 q 807 828 882 794 q 629 861 732 861 q 458 826 529 861 q 341 733 386 790 q 275 601 296 675 q 254 447 254 526 q 275 306 254 365 q 333 208 296 247 q 422 151 371 169 q 535 133 474 133 q 718 194 646 133 q 815 386 790 254 l 504 386 l 540 533 l 1015 533 l 999 424 l 999 424 m 626 1082 q 553 1112 583 1082 q 522 1183 522 1142 q 553 1256 522 1226 q 626 1286 583 1286 q 703 1256 672 1286 q 733 1183 733 1226 q 703 1112 733 1142 q 626 1082 672 1082 z "},"Ħ":{"ha":1068,"x_min":50,"x_max":1165,"o":"m 768 422 l 315 422 l 225 0 l 50 0 l 200 707 l 61 707 l 89 836 l 228 836 l 263 996 l 438 996 l 403 836 l 856 836 l 890 996 l 1065 996 l 1031 836 l 1165 836 l 1136 707 l 1003 707 l 853 0 l 678 0 l 768 422 m 799 568 l 828 707 l 375 707 l 346 568 l 799 568 z "},"Ĥ":{"ha":1010,"x_min":28,"x_max":1043,"o":"m 746 422 l 293 422 l 203 0 l 28 0 l 240 996 l 415 996 l 324 568 l 776 568 l 868 996 l 1043 996 l 831 0 l 656 0 l 746 422 m 674 1179 l 547 1071 l 411 1071 l 601 1276 l 779 1276 l 882 1071 l 751 1071 l 674 1179 z "},"Ĭ":{"ha":383,"x_min":28,"x_max":594,"o":"m 415 996 l 203 0 l 28 0 l 240 996 l 415 996 m 335 1061 q 234 1079 276 1061 q 165 1127 192 1097 q 130 1197 139 1157 q 129 1283 121 1238 l 267 1283 q 281 1208 260 1235 q 347 1181 303 1181 q 457 1283 436 1181 l 594 1283 q 568 1199 586 1239 q 519 1128 550 1158 q 442 1079 488 1097 q 335 1061 396 1061 z "},"İ":{"ha":383,"x_min":28,"x_max":454,"o":"m 415 996 l 203 0 l 28 0 l 240 996 l 415 996 m 347 1082 q 274 1112 304 1082 q 243 1183 243 1142 q 274 1256 243 1226 q 347 1286 304 1286 q 424 1256 393 1286 q 454 1183 454 1226 q 424 1112 454 1142 q 347 1082 393 1082 z "},"Ī":{"ha":383,"x_min":28,"x_max":593,"o":"m 415 996 l 203 0 l 28 0 l 240 996 l 415 996 m 118 1236 l 593 1236 l 567 1111 l 93 1111 l 118 1236 z "},"Į":{"ha":383,"x_min":-74,"x_max":415,"o":"m 160 -247 q 125 -258 149 -253 q 71 -264 101 -264 q -37 -231 0 -264 q -74 -143 -74 -199 q -45 -51 -74 -89 q 29 10 -17 -12 l 240 996 l 415 996 l 203 0 q 108 -41 144 -15 q 72 -107 72 -67 q 89 -147 72 -133 q 135 -161 106 -161 q 159 -158 149 -161 q 181 -151 169 -156 l 160 -247 l 160 -247 z "},"Ĩ":{"ha":383,"x_min":28,"x_max":618,"o":"m 415 996 l 203 0 l 28 0 l 240 996 l 415 996 m 69 1076 q 79 1163 67 1124 q 115 1228 92 1201 q 172 1269 139 1254 q 246 1283 206 1283 q 307 1274 281 1283 q 356 1252 333 1264 q 400 1231 379 1240 q 446 1221 421 1221 q 490 1238 474 1221 q 510 1292 506 1254 l 617 1292 q 575 1138 618 1192 q 453 1085 532 1085 q 390 1094 417 1085 q 341 1116 364 1104 q 296 1138 318 1128 q 247 1147 274 1147 q 200 1132 219 1147 q 176 1076 181 1117 l 69 1076 l 69 1076 z "},"Ĵ":{"ha":543,"x_min":-35,"x_max":735,"o":"m 585 996 l 424 243 q 321 57 400 128 q 111 -14 242 -14 q -35 15 25 -14 l -6 157 q 103 133 46 133 q 208 169 174 133 q 257 274 243 204 l 411 996 l 585 996 m 526 1179 l 400 1071 l 264 1071 l 454 1276 l 632 1276 l 735 1071 l 604 1071 l 526 1179 z "},"Ķ":{"ha":903,"x_min":28,"x_max":1007,"o":"m 396 422 l 293 422 l 203 0 l 28 0 l 240 996 l 415 996 l 324 568 l 433 568 l 814 996 l 1007 996 l 550 483 l 806 0 l 619 0 l 396 422 m 475 -162 q 465 -215 475 -190 q 440 -260 456 -239 q 403 -299 424 -281 q 364 -333 383 -318 l 257 -333 q 313 -288 289 -311 q 354 -235 336 -265 q 309 -206 326 -228 q 292 -153 292 -185 q 317 -90 292 -115 q 382 -65 342 -65 q 448 -90 421 -65 q 475 -162 475 -114 z "},"Ĺ":{"ha":774,"x_min":28,"x_max":674,"o":"m 642 0 l 28 0 l 240 996 l 415 996 l 235 147 l 674 147 l 642 0 m 408 1267 l 626 1267 l 406 1078 l 254 1078 l 408 1267 z "},"Ľ":{"ha":774,"x_min":28,"x_max":699,"o":"m 642 0 l 28 0 l 240 996 l 415 996 l 235 147 l 674 147 l 642 0 m 451 733 l 532 996 l 699 996 l 560 733 l 451 733 z "},"Ļ":{"ha":774,"x_min":28,"x_max":674,"o":"m 642 0 l 28 0 l 240 996 l 415 996 l 235 147 l 674 147 l 642 0 m 431 -162 q 421 -215 431 -190 q 395 -260 411 -239 q 359 -299 379 -281 q 319 -333 339 -318 l 213 -333 q 268 -288 244 -311 q 310 -235 292 -265 q 265 -206 282 -228 q 247 -153 247 -185 q 272 -90 247 -115 q 338 -65 297 -65 q 403 -90 376 -65 q 431 -162 431 -114 z "},"Ŀ":{"ha":814,"x_min":28,"x_max":793,"o":"m 642 0 l 28 0 l 240 996 l 415 996 l 235 147 l 674 147 l 642 0 m 681 411 q 600 444 632 411 q 568 525 568 478 q 600 606 568 574 q 681 639 632 639 q 761 606 729 639 q 793 525 793 574 q 761 444 793 478 q 681 411 729 411 z "},"Ń":{"ha":1019,"x_min":28,"x_max":1053,"o":"m 842 0 l 632 0 l 356 792 l 186 0 l 28 0 l 240 996 l 451 996 l 728 206 l 896 996 l 1053 996 l 842 0 m 731 1267 l 949 1267 l 728 1078 l 576 1078 l 731 1267 z "},"Ň":{"ha":1019,"x_min":28,"x_max":1053,"o":"m 842 0 l 632 0 l 356 792 l 186 0 l 28 0 l 240 996 l 451 996 l 728 206 l 896 996 l 1053 996 l 842 0 m 749 1071 l 571 1071 l 468 1276 l 597 1276 l 678 1168 l 803 1276 l 939 1276 l 749 1071 z "},"Ņ":{"ha":1019,"x_min":28,"x_max":1053,"o":"m 842 0 l 632 0 l 356 792 l 186 0 l 28 0 l 240 996 l 451 996 l 728 206 l 896 996 l 1053 996 l 842 0 m 536 -162 q 526 -215 536 -190 q 501 -260 517 -239 q 465 -299 485 -281 q 425 -333 444 -318 l 318 -333 q 374 -288 350 -311 q 415 -235 397 -265 q 370 -206 388 -228 q 353 -153 353 -185 q 378 -90 353 -115 q 443 -65 403 -65 q 509 -90 482 -65 q 536 -162 536 -114 z "},"Ŏ":{"ha":1031,"x_min":69,"x_max":1018,"o":"m 503 -14 q 327 17 407 -14 q 190 108 247 49 q 101 251 133 167 q 69 442 69 336 q 108 665 69 561 q 215 844 146 768 q 378 965 283 921 q 583 1008 472 1008 q 760 977 681 1008 q 897 887 840 946 q 986 744 954 828 q 1018 554 1018 660 q 979 330 1018 433 q 872 150 940 226 q 708 30 803 74 q 503 -14 614 -14 m 254 443 q 274 306 254 364 q 328 209 293 247 q 410 152 363 171 q 514 133 458 133 q 647 167 588 133 q 749 258 707 200 q 813 391 790 315 q 835 553 835 467 q 815 690 835 632 q 761 787 796 749 q 678 843 726 825 q 575 861 631 861 q 442 828 501 861 q 340 737 382 794 q 276 603 299 679 q 254 443 254 528 m 608 1061 q 508 1079 550 1061 q 439 1127 465 1097 q 403 1197 413 1157 q 403 1283 394 1238 l 540 1283 q 555 1208 533 1235 q 621 1181 576 1181 q 731 1283 710 1181 l 868 1283 q 842 1199 860 1239 q 792 1128 824 1158 q 715 1079 761 1097 q 608 1061 669 1061 z "},"Ő":{"ha":1031,"x_min":69,"x_max":1018,"o":"m 503 -14 q 327 17 407 -14 q 190 108 247 49 q 101 251 133 167 q 69 442 69 336 q 108 665 69 561 q 215 844 146 768 q 378 965 283 921 q 583 1008 472 1008 q 760 977 681 1008 q 897 887 840 946 q 986 744 954 828 q 1018 554 1018 660 q 979 330 1018 433 q 872 150 940 226 q 708 30 803 74 q 503 -14 614 -14 m 254 443 q 274 306 254 364 q 328 209 293 247 q 410 152 363 171 q 514 133 458 133 q 647 167 588 133 q 749 258 707 200 q 813 391 790 315 q 835 553 835 467 q 815 690 835 632 q 761 787 796 749 q 678 843 726 825 q 575 861 631 861 q 442 828 501 861 q 340 737 382 794 q 276 603 299 679 q 254 443 254 528 m 371 1078 l 481 1267 l 664 1267 l 499 1078 l 371 1078 m 639 1078 l 750 1267 l 933 1267 l 767 1078 l 639 1078 z "},"Ō":{"ha":1031,"x_min":69,"x_max":1018,"o":"m 503 -14 q 327 17 407 -14 q 190 108 247 49 q 101 251 133 167 q 69 442 69 336 q 108 665 69 561 q 215 844 146 768 q 378 965 283 921 q 583 1008 472 1008 q 760 977 681 1008 q 897 887 840 946 q 986 744 954 828 q 1018 554 1018 660 q 979 330 1018 433 q 872 150 940 226 q 708 30 803 74 q 503 -14 614 -14 m 254 443 q 274 306 254 364 q 328 209 293 247 q 410 152 363 171 q 514 133 458 133 q 647 167 588 133 q 749 258 707 200 q 813 391 790 315 q 835 553 835 467 q 815 690 835 632 q 761 787 796 749 q 678 843 726 825 q 575 861 631 861 q 442 828 501 861 q 340 737 382 794 q 276 603 299 679 q 254 443 254 528 m 401 1236 l 876 1236 l 850 1111 l 376 1111 l 401 1236 z "},"Ŕ":{"ha":904,"x_min":28,"x_max":897,"o":"m 240 996 l 564 996 q 813 928 728 996 q 897 724 897 861 q 822 516 897 596 q 625 407 747 436 l 792 0 l 608 0 l 450 392 l 286 392 l 203 0 l 28 0 l 240 996 m 383 849 l 317 533 l 506 533 q 661 578 604 533 q 718 710 718 622 q 672 818 718 788 q 538 849 625 849 l 383 849 m 631 1267 l 849 1267 l 628 1078 l 476 1078 l 631 1267 z "},"Ř":{"ha":904,"x_min":28,"x_max":897,"o":"m 240 996 l 564 996 q 813 928 728 996 q 897 724 897 861 q 822 516 897 596 q 625 407 747 436 l 792 0 l 608 0 l 450 392 l 286 392 l 203 0 l 28 0 l 240 996 m 383 849 l 317 533 l 506 533 q 661 578 604 533 q 718 710 718 622 q 672 818 718 788 q 538 849 625 849 l 383 849 m 649 1071 l 471 1071 l 368 1276 l 497 1276 l 578 1168 l 703 1276 l 839 1276 l 649 1071 z "},"Ŗ":{"ha":904,"x_min":28,"x_max":897,"o":"m 240 996 l 564 996 q 813 928 728 996 q 897 724 897 861 q 822 516 897 596 q 625 407 747 436 l 792 0 l 608 0 l 450 392 l 286 392 l 203 0 l 28 0 l 240 996 m 383 849 l 317 533 l 506 533 q 661 578 604 533 q 718 710 718 622 q 672 818 718 788 q 538 849 625 849 l 383 849 m 479 -162 q 469 -215 479 -190 q 444 -260 460 -239 q 408 -299 428 -281 q 368 -333 388 -318 l 261 -333 q 317 -288 293 -311 q 358 -235 340 -265 q 313 -206 331 -228 q 296 -153 296 -185 q 321 -90 296 -115 q 386 -65 346 -65 q 452 -90 425 -65 q 479 -162 479 -114 z "},"Ś":{"ha":832,"x_min":21,"x_max":817,"o":"m 388 -14 q 261 -3 319 -14 q 156 26 203 8 q 74 67 108 44 q 21 111 40 89 l 51 256 q 114 208 76 231 q 197 169 151 186 q 292 143 242 153 q 394 133 343 133 q 544 172 499 133 q 590 278 590 211 q 578 334 590 311 q 541 374 565 357 q 481 404 517 390 q 400 435 446 418 q 303 472 351 451 q 217 522 256 492 q 156 599 179 553 q 132 713 132 644 q 158 835 132 781 q 233 928 185 889 q 351 988 282 967 q 508 1008 421 1008 q 614 1000 565 1008 q 702 979 663 992 q 771 951 742 967 q 817 922 800 936 l 786 779 q 664 840 738 819 q 508 861 590 861 q 351 825 400 861 q 303 732 303 789 q 319 674 303 697 q 361 635 335 651 q 422 606 388 618 q 496 579 457 593 q 594 541 546 563 q 680 488 642 519 q 742 408 718 456 q 765 290 765 360 q 738 160 765 217 q 661 65 711 103 q 542 6 611 26 q 388 -14 472 -14 m 578 1267 l 796 1267 l 575 1078 l 424 1078 l 578 1267 z "},"Ş":{"ha":832,"x_min":21,"x_max":817,"o":"m 388 -14 q 261 -3 319 -14 q 156 26 203 8 q 74 67 108 44 q 21 111 40 89 l 51 256 q 114 208 76 231 q 197 169 151 186 q 292 143 242 153 q 394 133 343 133 q 544 172 499 133 q 590 278 590 211 q 578 334 590 311 q 541 374 565 357 q 481 404 517 390 q 400 435 446 418 q 303 472 351 451 q 217 522 256 492 q 156 599 179 553 q 132 713 132 644 q 158 835 132 781 q 233 928 185 889 q 351 988 282 967 q 508 1008 421 1008 q 614 1000 565 1008 q 702 979 663 992 q 771 951 742 967 q 817 922 800 936 l 786 779 q 664 840 738 819 q 508 861 590 861 q 351 825 400 861 q 303 732 303 789 q 319 674 303 697 q 361 635 335 651 q 422 606 388 618 q 496 579 457 593 q 594 541 546 563 q 680 488 642 519 q 742 408 718 456 q 765 290 765 360 q 738 160 765 217 q 661 65 711 103 q 542 6 611 26 q 388 -14 472 -14 m 472 28 l 332 -260 l 154 -260 l 344 28 l 472 28 z "},"Ŝ":{"ha":832,"x_min":21,"x_max":817,"o":"m 388 -14 q 261 -3 319 -14 q 156 26 203 8 q 74 67 108 44 q 21 111 40 89 l 51 256 q 114 208 76 231 q 197 169 151 186 q 292 143 242 153 q 394 133 343 133 q 544 172 499 133 q 590 278 590 211 q 578 334 590 311 q 541 374 565 357 q 481 404 517 390 q 400 435 446 418 q 303 472 351 451 q 217 522 256 492 q 156 599 179 553 q 132 713 132 644 q 158 835 132 781 q 233 928 185 889 q 351 988 282 967 q 508 1008 421 1008 q 614 1000 565 1008 q 702 979 663 992 q 771 951 742 967 q 817 922 800 936 l 786 779 q 664 840 738 819 q 508 861 590 861 q 351 825 400 861 q 303 732 303 789 q 319 674 303 697 q 361 635 335 651 q 422 606 388 618 q 496 579 457 593 q 594 541 546 563 q 680 488 642 519 q 742 408 718 456 q 765 290 765 360 q 738 160 765 217 q 661 65 711 103 q 542 6 611 26 q 388 -14 472 -14 m 535 1179 l 408 1071 l 272 1071 l 463 1276 l 640 1276 l 743 1071 l 613 1071 l 535 1179 z "},"Ș":{"ha":832,"x_min":21,"x_max":817,"o":"m 388 -14 q 261 -3 319 -14 q 156 26 203 8 q 74 67 108 44 q 21 111 40 89 l 51 256 q 114 208 76 231 q 197 169 151 186 q 292 143 242 153 q 394 133 343 133 q 544 172 499 133 q 590 278 590 211 q 578 334 590 311 q 541 374 565 357 q 481 404 517 390 q 400 435 446 418 q 303 472 351 451 q 217 522 256 492 q 156 599 179 553 q 132 713 132 644 q 158 835 132 781 q 233 928 185 889 q 351 988 282 967 q 508 1008 421 1008 q 614 1000 565 1008 q 702 979 663 992 q 771 951 742 967 q 817 922 800 936 l 786 779 q 664 840 738 819 q 508 861 590 861 q 351 825 400 861 q 303 732 303 789 q 319 674 303 697 q 361 635 335 651 q 422 606 388 618 q 496 579 457 593 q 594 541 546 563 q 680 488 642 519 q 742 408 718 456 q 765 290 765 360 q 738 160 765 217 q 661 65 711 103 q 542 6 611 26 q 388 -14 472 -14 m 435 -162 q 425 -215 435 -190 q 399 -260 415 -239 q 363 -299 383 -281 q 324 -333 343 -318 l 217 -333 q 272 -288 249 -311 q 314 -235 296 -265 q 269 -206 286 -228 q 251 -153 251 -185 q 276 -90 251 -115 q 342 -65 301 -65 q 408 -90 381 -65 q 435 -162 435 -114 z "},"Ť":{"ha":839,"x_min":136,"x_max":939,"o":"m 611 849 l 429 0 l 253 0 l 435 849 l 136 849 l 168 996 l 939 996 l 907 849 l 611 849 m 642 1071 l 464 1071 l 361 1276 l 490 1276 l 571 1168 l 696 1276 l 832 1276 l 642 1071 z "},"Ţ":{"ha":839,"x_min":136,"x_max":939,"o":"m 611 849 l 429 0 l 253 0 l 435 849 l 136 849 l 168 996 l 939 996 l 907 849 l 611 849 m 404 -162 q 394 -215 404 -190 q 369 -260 385 -239 q 333 -299 353 -281 q 293 -333 313 -318 l 186 -333 q 242 -288 218 -311 q 283 -235 265 -265 q 238 -206 256 -228 q 221 -153 221 -185 q 246 -90 221 -115 q 311 -65 271 -65 q 377 -90 350 -65 q 404 -162 404 -114 z "},"Ț":{"ha":839,"x_min":136,"x_max":939,"o":"m 611 849 l 429 0 l 253 0 l 435 849 l 136 849 l 168 996 l 939 996 l 907 849 l 611 849 m 404 -162 q 394 -215 404 -190 q 369 -260 385 -239 q 333 -299 353 -281 q 293 -333 313 -318 l 186 -333 q 242 -288 218 -311 q 283 -235 265 -265 q 238 -206 256 -228 q 221 -153 221 -185 q 246 -90 221 -115 q 311 -65 271 -65 q 377 -90 350 -65 q 404 -162 404 -114 z "},"Ŧ":{"ha":849,"x_min":142,"x_max":949,"o":"m 169 603 l 392 603 l 444 849 l 146 849 l 178 996 l 949 996 l 917 849 l 621 849 l 568 603 l 790 603 l 763 474 l 540 474 l 439 0 l 263 0 l 364 474 l 142 474 l 169 603 z "},"Ŭ":{"ha":943,"x_min":71,"x_max":1004,"o":"m 219 996 l 394 996 l 265 388 q 260 274 251 322 q 297 195 269 226 q 366 149 324 164 q 460 133 408 133 q 625 192 564 133 q 714 378 686 251 l 846 996 l 1004 996 l 867 354 q 726 81 829 176 q 450 -14 624 -14 q 289 11 364 -14 q 163 89 214 36 q 92 223 113 142 q 96 417 71 304 l 219 996 m 625 1061 q 524 1079 567 1061 q 456 1127 482 1097 q 420 1197 429 1157 q 419 1283 411 1238 l 557 1283 q 572 1208 550 1235 q 638 1181 593 1181 q 747 1283 726 1181 l 885 1283 q 858 1199 876 1239 q 809 1128 840 1158 q 732 1079 778 1097 q 625 1061 686 1061 z "},"Ű":{"ha":943,"x_min":71,"x_max":1004,"o":"m 219 996 l 394 996 l 265 388 q 260 274 251 322 q 297 195 269 226 q 366 149 324 164 q 460 133 408 133 q 625 192 564 133 q 714 378 686 251 l 846 996 l 1004 996 l 867 354 q 726 81 829 176 q 450 -14 624 -14 q 289 11 364 -14 q 163 89 214 36 q 92 223 113 142 q 96 417 71 304 l 219 996 m 421 1078 l 531 1267 l 714 1267 l 549 1078 l 421 1078 m 689 1078 l 800 1267 l 983 1267 l 817 1078 l 689 1078 z "},"Ū":{"ha":943,"x_min":71,"x_max":1004,"o":"m 219 996 l 394 996 l 265 388 q 260 274 251 322 q 297 195 269 226 q 366 149 324 164 q 460 133 408 133 q 625 192 564 133 q 714 378 686 251 l 846 996 l 1004 996 l 867 354 q 726 81 829 176 q 450 -14 624 -14 q 289 11 364 -14 q 163 89 214 36 q 92 223 113 142 q 96 417 71 304 l 219 996 m 421 1236 l 896 1236 l 869 1111 l 396 1111 l 421 1236 z "},"Ų":{"ha":943,"x_min":71,"x_max":1004,"o":"m 219 996 l 394 996 l 265 388 q 260 274 251 322 q 297 195 269 226 q 366 149 324 164 q 460 133 408 133 q 625 192 564 133 q 714 378 686 251 l 846 996 l 1004 996 l 867 354 q 726 81 829 176 q 450 -14 624 -14 q 289 11 364 -14 q 163 89 214 36 q 92 223 113 142 q 96 417 71 304 l 219 996 m 461 -264 q 353 -232 390 -264 q 315 -149 315 -200 q 328 -94 315 -118 q 363 -51 342 -69 q 409 -20 383 -33 q 460 0 435 -7 l 572 0 q 495 -42 528 -17 q 463 -107 463 -67 q 479 -147 463 -133 q 525 -161 496 -161 q 549 -158 539 -161 q 569 -151 560 -156 l 550 -247 q 515 -258 539 -253 q 461 -264 492 -264 z "},"Ů":{"ha":943,"x_min":71,"x_max":1004,"o":"m 219 996 l 394 996 l 265 388 q 260 274 251 322 q 297 195 269 226 q 366 149 324 164 q 460 133 408 133 q 625 192 564 133 q 714 378 686 251 l 846 996 l 1004 996 l 867 354 q 726 81 829 176 q 450 -14 624 -14 q 289 11 364 -14 q 163 89 214 36 q 92 223 113 142 q 96 417 71 304 l 219 996 m 626 1022 q 508 1068 554 1022 q 461 1188 461 1114 q 474 1255 461 1224 q 510 1309 488 1286 q 565 1344 533 1332 q 632 1357 596 1357 q 751 1310 704 1357 q 799 1192 799 1264 q 750 1069 799 1117 q 626 1022 701 1022 m 629 1117 q 681 1138 661 1117 q 701 1190 701 1158 q 681 1242 701 1222 q 629 1263 661 1263 q 578 1242 597 1263 q 560 1189 560 1221 q 578 1137 560 1157 q 629 1117 597 1117 z "},"Ũ":{"ha":943,"x_min":71,"x_max":1004,"o":"m 219 996 l 394 996 l 265 388 q 260 274 251 322 q 297 195 269 226 q 366 149 324 164 q 460 133 408 133 q 625 192 564 133 q 714 378 686 251 l 846 996 l 1004 996 l 867 354 q 726 81 829 176 q 450 -14 624 -14 q 289 11 364 -14 q 163 89 214 36 q 92 223 113 142 q 96 417 71 304 l 219 996 m 363 1076 q 372 1163 360 1124 q 408 1228 385 1201 q 465 1269 432 1254 q 539 1283 499 1283 q 600 1274 574 1283 q 649 1252 626 1264 q 693 1231 672 1240 q 739 1221 714 1221 q 783 1238 767 1221 q 803 1292 799 1254 l 910 1292 q 868 1138 911 1192 q 746 1085 825 1085 q 683 1094 710 1085 q 634 1116 657 1104 q 589 1138 611 1128 q 540 1147 567 1147 q 493 1132 513 1147 q 469 1076 474 1117 l 363 1076 l 363 1076 z "},"Ẃ":{"ha":1349,"x_min":163,"x_max":1453,"o":"m 1029 0 l 796 0 l 754 740 l 399 0 l 163 0 l 165 996 l 339 996 l 329 183 l 721 996 l 894 996 l 947 181 l 1289 996 l 1453 996 l 1029 0 m 888 1267 l 1106 1267 l 885 1078 l 733 1078 l 888 1267 z "},"Ŵ":{"ha":1349,"x_min":163,"x_max":1453,"o":"m 1029 0 l 796 0 l 754 740 l 399 0 l 163 0 l 165 996 l 339 996 l 329 183 l 721 996 l 894 996 l 947 181 l 1289 996 l 1453 996 l 1029 0 m 829 1179 l 703 1071 l 567 1071 l 757 1276 l 935 1276 l 1038 1071 l 907 1071 l 829 1179 z "},"Ẅ":{"ha":1349,"x_min":163,"x_max":1453,"o":"m 1029 0 l 796 0 l 754 740 l 399 0 l 163 0 l 165 996 l 339 996 l 329 183 l 721 996 l 894 996 l 947 181 l 1289 996 l 1453 996 l 1029 0 m 653 1082 q 578 1112 608 1082 q 549 1183 549 1142 q 578 1256 549 1226 q 653 1286 608 1286 q 728 1256 699 1286 q 758 1183 758 1226 q 728 1112 758 1142 q 653 1082 699 1082 m 985 1082 q 910 1112 940 1082 q 881 1183 881 1142 q 910 1256 881 1226 q 985 1286 940 1286 q 1060 1256 1029 1286 q 1090 1183 1090 1226 q 1060 1112 1090 1142 q 985 1082 1029 1082 z "},"Ẁ":{"ha":1349,"x_min":163,"x_max":1453,"o":"m 1029 0 l 796 0 l 754 740 l 399 0 l 163 0 l 165 996 l 339 996 l 329 183 l 721 996 l 894 996 l 947 181 l 1289 996 l 1453 996 l 1029 0 m 747 1078 l 542 1267 l 758 1267 l 892 1078 l 747 1078 z "},"Ŷ":{"ha":849,"x_min":149,"x_max":974,"o":"m 526 411 l 439 0 l 263 0 l 353 425 l 149 996 l 333 996 l 474 572 l 794 996 l 974 996 l 526 411 m 582 1179 l 456 1071 l 319 1071 l 510 1276 l 688 1276 l 790 1071 l 660 1071 l 582 1179 z "},"Ỳ":{"ha":849,"x_min":149,"x_max":974,"o":"m 526 411 l 439 0 l 263 0 l 353 425 l 149 996 l 333 996 l 474 572 l 794 996 l 974 996 l 526 411 m 493 1078 l 288 1267 l 504 1267 l 638 1078 l 493 1078 z "},"Ź":{"ha":854,"x_min":-22,"x_max":914,"o":"m 717 0 l -22 0 l 6 129 l 661 849 l 160 849 l 192 996 l 914 996 l 886 865 l 231 147 l 749 147 l 717 0 m 604 1267 l 822 1267 l 601 1078 l 450 1078 l 604 1267 z "},"Ż":{"ha":854,"x_min":-22,"x_max":914,"o":"m 717 0 l -22 0 l 6 129 l 661 849 l 160 849 l 192 996 l 914 996 l 886 865 l 231 147 l 749 147 l 717 0 m 567 1082 q 493 1112 524 1082 q 463 1183 463 1142 q 493 1256 463 1226 q 567 1286 524 1286 q 643 1256 613 1286 q 674 1183 674 1226 q 643 1112 674 1142 q 567 1082 613 1082 z "},"ă":{"ha":740,"x_min":17,"x_max":700,"o":"m 436 0 q 438 49 436 17 q 444 114 439 81 q 409 67 429 90 q 363 26 389 44 q 303 -3 336 8 q 228 -14 269 -14 q 149 -3 188 -14 q 82 33 111 8 q 35 95 53 57 q 17 186 17 133 q 110 368 17 306 q 378 431 203 431 l 508 431 q 511 515 518 482 q 484 566 504 547 q 432 592 464 585 q 361 599 400 599 q 244 587 303 599 q 135 551 185 575 l 163 686 q 271 722 211 710 q 397 735 331 735 q 527 718 468 735 q 625 664 586 701 q 678 565 664 626 q 674 414 693 503 l 610 117 q 604 90 607 106 q 599 57 601 74 q 594 25 596 40 q 592 0 592 10 l 436 0 m 289 111 q 368 131 335 111 q 424 176 401 150 q 458 228 446 201 q 475 269 471 254 l 488 326 l 363 326 q 229 293 271 326 q 188 204 188 260 q 216 133 188 156 q 289 111 244 111 m 456 807 q 358 824 399 807 q 293 868 318 840 q 260 934 268 896 q 260 1014 251 972 l 392 1014 q 405 946 385 969 q 465 922 425 922 q 532 945 506 922 q 567 1014 558 968 l 700 1014 q 676 934 694 972 q 628 868 658 896 q 556 824 599 840 q 456 807 513 807 z "},"ā":{"ha":740,"x_min":17,"x_max":703,"o":"m 436 0 q 438 49 436 17 q 444 114 439 81 q 409 67 429 90 q 363 26 389 44 q 303 -3 336 8 q 228 -14 269 -14 q 149 -3 188 -14 q 82 33 111 8 q 35 95 53 57 q 17 186 17 133 q 110 368 17 306 q 378 431 203 431 l 508 431 q 511 515 518 482 q 484 566 504 547 q 432 592 464 585 q 361 599 400 599 q 244 587 303 599 q 135 551 185 575 l 163 686 q 271 722 211 710 q 397 735 331 735 q 527 718 468 735 q 625 664 586 701 q 678 565 664 626 q 674 414 693 503 l 610 117 q 604 90 607 106 q 599 57 601 74 q 594 25 596 40 q 592 0 592 10 l 436 0 m 289 111 q 368 131 335 111 q 424 176 401 150 q 458 228 446 201 q 475 269 471 254 l 488 326 l 363 326 q 229 293 271 326 q 188 204 188 260 q 216 133 188 156 q 289 111 244 111 m 272 961 l 703 961 l 678 840 l 246 840 l 272 961 z "},"ą":{"ha":740,"x_min":17,"x_max":693,"o":"m 554 -247 q 520 -258 543 -253 q 465 -264 497 -264 q 358 -232 394 -264 q 321 -149 321 -200 q 356 -52 321 -90 q 436 6 392 -14 q 438 53 436 25 q 444 114 440 82 q 409 67 429 90 q 363 26 389 44 q 303 -3 336 8 q 228 -14 269 -14 q 149 -3 188 -14 q 82 33 111 8 q 35 95 53 57 q 17 186 17 133 q 110 368 17 306 q 378 431 203 431 l 508 431 q 511 515 518 482 q 484 566 504 547 q 432 592 464 585 q 361 599 400 599 q 244 587 303 599 q 135 551 185 575 l 163 686 q 271 722 211 710 q 397 735 331 735 q 527 718 468 735 q 625 664 586 701 q 678 565 664 626 q 674 414 693 503 l 610 117 q 604 90 607 106 q 599 57 601 74 q 594 25 596 40 q 592 0 592 10 q 503 -41 539 -15 q 467 -107 467 -67 q 483 -147 467 -133 q 529 -161 500 -161 q 575 -151 553 -161 l 554 -247 m 289 111 q 368 131 335 111 q 424 176 401 150 q 458 228 446 201 q 475 269 471 254 l 488 326 l 363 326 q 229 293 271 326 q 188 204 188 260 q 216 133 188 156 q 289 111 244 111 z "},"ć":{"ha":690,"x_min":43,"x_max":729,"o":"m 394 -14 q 257 8 321 -14 q 145 72 193 29 q 70 178 97 114 q 43 326 43 242 q 73 489 43 414 q 157 619 103 564 q 287 704 211 674 q 456 735 363 735 q 581 719 528 735 q 667 679 635 703 l 638 547 q 556 585 597 572 q 465 599 515 599 q 355 578 401 599 q 277 522 308 557 q 231 439 246 486 q 215 338 215 392 q 233 238 215 279 q 279 172 250 197 q 347 134 308 146 q 431 122 386 122 q 513 131 471 122 q 596 161 556 140 l 567 22 q 394 -14 494 -14 m 539 1036 l 729 1036 l 508 817 l 379 817 l 539 1036 z "},"č":{"ha":690,"x_min":43,"x_max":732,"o":"m 394 -14 q 257 8 321 -14 q 145 72 193 29 q 70 178 97 114 q 43 326 43 242 q 73 489 43 414 q 157 619 103 564 q 287 704 211 674 q 456 735 363 735 q 581 719 528 735 q 667 679 635 703 l 638 547 q 556 585 597 572 q 465 599 515 599 q 355 578 401 599 q 277 522 308 557 q 231 439 246 486 q 215 338 215 392 q 233 238 215 279 q 279 172 250 197 q 347 134 308 146 q 431 122 386 122 q 513 131 471 122 q 596 161 556 140 l 567 22 q 394 -14 494 -14 m 547 817 l 372 817 l 274 1022 l 404 1022 l 478 915 l 599 1022 l 732 1022 l 547 817 z "},"ĉ":{"ha":690,"x_min":43,"x_max":676,"o":"m 394 -14 q 257 8 321 -14 q 145 72 193 29 q 70 178 97 114 q 43 326 43 242 q 73 489 43 414 q 157 619 103 564 q 287 704 211 674 q 456 735 363 735 q 581 719 528 735 q 667 679 635 703 l 638 547 q 556 585 597 572 q 465 599 515 599 q 355 578 401 599 q 277 522 308 557 q 231 439 246 486 q 215 338 215 392 q 233 238 215 279 q 279 172 250 197 q 347 134 308 146 q 431 122 386 122 q 513 131 471 122 q 596 161 556 140 l 567 22 q 394 -14 494 -14 m 475 924 l 351 817 l 219 817 l 403 1022 l 579 1022 l 676 817 l 546 817 l 475 924 z "},"ċ":{"ha":690,"x_min":43,"x_max":667,"o":"m 394 -14 q 257 8 321 -14 q 145 72 193 29 q 70 178 97 114 q 43 326 43 242 q 73 489 43 414 q 157 619 103 564 q 287 704 211 674 q 456 735 363 735 q 581 719 528 735 q 667 679 635 703 l 638 547 q 556 585 597 572 q 465 599 515 599 q 355 578 401 599 q 277 522 308 557 q 231 439 246 486 q 215 338 215 392 q 233 238 215 279 q 279 172 250 197 q 347 134 308 146 q 431 122 386 122 q 513 131 471 122 q 596 161 556 140 l 567 22 q 394 -14 494 -14 m 468 810 q 394 840 424 810 q 364 911 364 869 q 394 985 364 956 q 468 1014 424 1014 q 543 985 513 1014 q 574 911 574 956 q 543 840 574 869 q 468 810 513 810 z "},"ď":{"ha":847,"x_min":43,"x_max":1143,"o":"m 546 99 q 447 17 503 47 q 318 -14 390 -14 q 211 6 261 -14 q 124 66 161 26 q 65 165 86 106 q 43 306 43 225 q 70 472 43 393 q 145 608 97 550 q 260 701 193 667 q 410 735 328 735 q 556 696 497 735 q 642 588 614 657 l 729 996 l 896 996 l 683 0 l 531 0 l 546 99 m 594 415 q 550 553 594 507 q 433 599 506 599 q 341 576 381 599 q 274 515 301 554 q 233 426 247 476 q 219 319 219 375 q 267 168 219 214 q 383 122 314 122 q 482 149 442 122 q 547 217 522 175 q 583 310 572 258 q 594 415 594 363 m 896 728 l 976 990 l 1143 990 l 1004 728 l 896 728 z "},"ĕ":{"ha":772,"x_min":43,"x_max":733,"o":"m 625 26 q 542 -1 593 13 q 417 -14 492 -14 q 263 8 332 -14 q 145 71 194 29 q 69 176 96 113 q 43 322 43 239 q 72 486 43 411 q 153 617 101 561 q 278 703 206 672 q 438 735 350 735 q 577 708 514 735 q 679 628 640 681 q 726 497 718 575 q 697 315 733 418 l 213 315 q 276 168 218 214 q 440 122 335 122 q 559 135 504 122 q 654 164 614 149 l 625 26 m 426 606 q 297 559 349 606 q 226 438 246 513 l 565 438 q 563 514 571 482 q 535 566 554 546 q 488 596 517 586 q 426 606 460 606 m 465 807 q 368 824 408 807 q 303 868 328 840 q 269 934 278 896 q 269 1014 261 972 l 401 1014 q 415 946 394 969 q 475 922 435 922 q 542 945 515 922 q 576 1014 568 968 l 710 1014 q 686 934 704 972 q 638 868 668 896 q 565 824 608 840 q 465 807 522 807 z "},"ě":{"ha":772,"x_min":43,"x_max":733,"o":"m 625 26 q 542 -1 593 13 q 417 -14 492 -14 q 263 8 332 -14 q 145 71 194 29 q 69 176 96 113 q 43 322 43 239 q 72 486 43 411 q 153 617 101 561 q 278 703 206 672 q 438 735 350 735 q 577 708 514 735 q 679 628 640 681 q 726 497 718 575 q 697 315 733 418 l 213 315 q 276 168 218 214 q 440 122 335 122 q 559 135 504 122 q 654 164 614 149 l 625 26 m 426 606 q 297 559 349 606 q 226 438 246 513 l 565 438 q 563 514 571 482 q 535 566 554 546 q 488 596 517 586 q 426 606 460 606 m 536 817 l 361 817 l 263 1022 l 393 1022 l 467 915 l 588 1022 l 721 1022 l 536 817 z "},"ė":{"ha":772,"x_min":43,"x_max":733,"o":"m 625 26 q 542 -1 593 13 q 417 -14 492 -14 q 263 8 332 -14 q 145 71 194 29 q 69 176 96 113 q 43 322 43 239 q 72 486 43 411 q 153 617 101 561 q 278 703 206 672 q 438 735 350 735 q 577 708 514 735 q 679 628 640 681 q 726 497 718 575 q 697 315 733 418 l 213 315 q 276 168 218 214 q 440 122 335 122 q 559 135 504 122 q 654 164 614 149 l 625 26 m 426 606 q 297 559 349 606 q 226 438 246 513 l 565 438 q 563 514 571 482 q 535 566 554 546 q 488 596 517 586 q 426 606 460 606 m 472 810 q 398 840 428 810 q 368 911 368 869 q 398 985 368 956 q 472 1014 428 1014 q 547 985 517 1014 q 578 911 578 956 q 547 840 578 869 q 472 810 517 810 z "},"ē":{"ha":772,"x_min":43,"x_max":733,"o":"m 625 26 q 542 -1 593 13 q 417 -14 492 -14 q 263 8 332 -14 q 145 71 194 29 q 69 176 96 113 q 43 322 43 239 q 72 486 43 411 q 153 617 101 561 q 278 703 206 672 q 438 735 350 735 q 577 708 514 735 q 679 628 640 681 q 726 497 718 575 q 697 315 733 418 l 213 315 q 276 168 218 214 q 440 122 335 122 q 559 135 504 122 q 654 164 614 149 l 625 26 m 426 606 q 297 559 349 606 q 226 438 246 513 l 565 438 q 563 514 571 482 q 535 566 554 546 q 488 596 517 586 q 426 606 460 606 m 267 961 l 697 961 l 672 840 l 240 840 l 267 961 z "},"ę":{"ha":772,"x_min":43,"x_max":733,"o":"m 625 26 q 542 -1 593 13 q 417 -14 492 -14 q 263 8 332 -14 q 145 71 194 29 q 69 176 96 113 q 43 322 43 239 q 72 486 43 411 q 153 617 101 561 q 278 703 206 672 q 438 735 350 735 q 577 708 514 735 q 679 628 640 681 q 726 497 718 575 q 697 315 733 418 l 213 315 q 276 168 218 214 q 440 122 335 122 q 559 135 504 122 q 654 164 614 149 l 625 26 m 426 606 q 297 559 349 606 q 226 438 246 513 l 565 438 q 563 514 571 482 q 535 566 554 546 q 488 596 517 586 q 426 606 460 606 m 436 -264 q 328 -232 365 -264 q 290 -149 290 -200 q 303 -94 290 -118 q 338 -51 317 -69 q 384 -20 358 -33 q 435 0 410 -7 l 547 0 q 470 -42 503 -17 q 438 -107 438 -67 q 454 -147 438 -133 q 500 -161 471 -161 q 524 -158 514 -161 q 544 -151 535 -156 l 525 -247 q 490 -258 514 -253 q 436 -264 467 -264 z "},"ğ":{"ha":839,"x_min":-10,"x_max":835,"o":"m 696 110 q 649 -42 679 25 q 569 -154 618 -108 q 448 -224 519 -200 q 275 -249 376 -249 q 101 -224 171 -249 q -10 -167 32 -199 l 19 -32 q 130 -89 65 -65 q 276 -112 194 -112 q 375 -100 333 -112 q 447 -61 417 -87 q 497 8 478 -35 q 529 110 517 50 l 532 119 q 442 54 493 79 q 322 29 390 29 q 213 49 264 29 q 125 107 163 68 q 66 204 88 146 q 44 339 44 263 q 72 493 44 421 q 147 619 99 565 q 260 703 194 672 q 407 735 326 735 q 555 696 496 735 q 639 592 614 657 l 643 606 q 659 666 649 631 q 678 721 669 701 l 835 721 q 818 665 828 701 q 803 606 808 629 l 696 110 m 382 160 q 475 184 436 160 q 539 247 514 208 q 576 334 564 286 q 588 428 588 382 q 544 556 588 513 q 431 599 501 599 q 340 578 379 599 q 275 522 301 557 q 235 441 249 488 q 222 344 222 394 q 267 203 222 246 q 382 160 313 160 m 475 807 q 378 824 418 807 q 313 868 338 840 q 279 934 288 896 q 279 1014 271 972 l 411 1014 q 424 946 404 969 q 485 922 444 922 q 551 945 525 922 q 586 1014 578 968 l 719 1014 q 696 934 714 972 q 648 868 678 896 q 575 824 618 840 q 475 807 532 807 z "},"ĝ":{"ha":839,"x_min":-10,"x_max":835,"o":"m 696 110 q 649 -42 679 25 q 569 -154 618 -108 q 448 -224 519 -200 q 275 -249 376 -249 q 101 -224 171 -249 q -10 -167 32 -199 l 19 -32 q 130 -89 65 -65 q 276 -112 194 -112 q 375 -100 333 -112 q 447 -61 417 -87 q 497 8 478 -35 q 529 110 517 50 l 532 119 q 442 54 493 79 q 322 29 390 29 q 213 49 264 29 q 125 107 163 68 q 66 204 88 146 q 44 339 44 263 q 72 493 44 421 q 147 619 99 565 q 260 703 194 672 q 407 735 326 735 q 555 696 496 735 q 639 592 614 657 l 643 606 q 659 666 649 631 q 678 721 669 701 l 835 721 q 818 665 828 701 q 803 606 808 629 l 696 110 m 382 160 q 475 184 436 160 q 539 247 514 208 q 576 334 564 286 q 588 428 588 382 q 544 556 588 513 q 431 599 501 599 q 340 578 379 599 q 275 522 301 557 q 235 441 249 488 q 222 344 222 394 q 267 203 222 246 q 382 160 313 160 m 511 924 l 388 817 l 256 817 l 439 1022 l 615 1022 l 713 817 l 582 817 l 511 924 z "},"ģ":{"ha":839,"x_min":-10,"x_max":835,"o":"m 696 110 q 649 -42 679 25 q 569 -154 618 -108 q 448 -224 519 -200 q 275 -249 376 -249 q 101 -224 171 -249 q -10 -167 32 -199 l 19 -32 q 130 -89 65 -65 q 276 -112 194 -112 q 375 -100 333 -112 q 447 -61 417 -87 q 497 8 478 -35 q 529 110 517 50 l 532 119 q 442 54 493 79 q 322 29 390 29 q 213 49 264 29 q 125 107 163 68 q 66 204 88 146 q 44 339 44 263 q 72 493 44 421 q 147 619 99 565 q 260 703 194 672 q 407 735 326 735 q 555 696 496 735 q 639 592 614 657 l 643 606 q 659 666 649 631 q 678 721 669 701 l 835 721 q 818 665 828 701 q 803 606 808 629 l 696 110 m 382 160 q 475 184 436 160 q 539 247 514 208 q 576 334 564 286 q 588 428 588 382 q 544 556 588 513 q 431 599 501 599 q 340 578 379 599 q 275 522 301 557 q 235 441 249 488 q 222 344 222 394 q 267 203 222 246 q 382 160 313 160 m 542 910 q 517 847 542 872 q 451 821 492 821 q 385 846 413 821 q 358 919 358 871 q 368 970 358 946 q 394 1015 378 994 q 429 1055 410 1036 q 469 1089 449 1074 l 575 1089 q 521 1045 544 1068 q 478 990 497 1022 q 524 962 507 983 q 542 910 542 940 z "},"ġ":{"ha":839,"x_min":-10,"x_max":835,"o":"m 696 110 q 649 -42 679 25 q 569 -154 618 -108 q 448 -224 519 -200 q 275 -249 376 -249 q 101 -224 171 -249 q -10 -167 32 -199 l 19 -32 q 130 -89 65 -65 q 276 -112 194 -112 q 375 -100 333 -112 q 447 -61 417 -87 q 497 8 478 -35 q 529 110 517 50 l 532 119 q 442 54 493 79 q 322 29 390 29 q 213 49 264 29 q 125 107 163 68 q 66 204 88 146 q 44 339 44 263 q 72 493 44 421 q 147 619 99 565 q 260 703 194 672 q 407 735 326 735 q 555 696 496 735 q 639 592 614 657 l 643 606 q 659 666 649 631 q 678 721 669 701 l 835 721 q 818 665 828 701 q 803 606 808 629 l 696 110 m 382 160 q 475 184 436 160 q 539 247 514 208 q 576 334 564 286 q 588 428 588 382 q 544 556 588 513 q 431 599 501 599 q 340 578 379 599 q 275 522 301 557 q 235 441 249 488 q 222 344 222 394 q 267 203 222 246 q 382 160 313 160 m 490 810 q 416 840 446 810 q 386 911 386 869 q 416 985 386 956 q 490 1014 446 1014 q 565 985 535 1014 q 596 911 596 956 q 565 840 596 869 q 490 810 535 810 z "},"ħ":{"ha":810,"x_min":15,"x_max":764,"o":"m 475 599 q 413 590 440 599 q 362 567 385 582 q 321 534 339 553 q 289 496 303 515 l 182 0 l 15 0 l 185 793 l 92 793 l 115 901 l 207 901 l 229 1003 l 396 1003 l 375 901 l 588 901 l 564 793 l 351 793 l 339 732 l 307 606 l 310 606 q 408 698 350 661 q 550 735 467 735 q 648 717 604 735 q 719 662 692 699 q 756 570 747 625 q 749 443 764 515 l 654 0 l 486 0 l 581 444 q 586 519 590 489 q 567 566 582 549 q 528 591 551 583 q 475 599 504 599 z "},"ĥ":{"ha":808,"x_min":14,"x_max":789,"o":"m 474 599 q 411 590 439 599 q 360 567 383 582 q 319 534 338 553 q 288 496 301 515 l 181 0 l 14 0 l 228 1003 l 394 1003 l 338 732 l 306 606 l 308 606 q 407 698 349 661 q 549 735 465 735 q 647 717 603 735 q 718 662 690 699 q 754 570 746 625 q 747 443 763 515 l 653 0 l 485 0 l 579 444 q 585 519 589 489 q 565 566 581 549 q 526 591 550 583 q 474 599 503 599 m 581 1222 l 454 1114 l 318 1114 l 508 1319 l 686 1319 l 789 1114 l 658 1114 l 581 1222 z "},"ĭ":{"ha":344,"x_min":14,"x_max":510,"o":"m 335 721 l 182 0 l 14 0 l 168 721 l 335 721 m 265 807 q 168 824 208 807 q 103 868 128 840 q 69 934 78 896 q 69 1014 61 972 l 201 1014 q 215 946 194 969 q 275 922 235 922 q 342 945 315 922 q 376 1014 368 968 l 510 1014 q 486 934 504 972 q 438 868 468 896 q 365 824 408 840 q 265 807 322 807 z "},"ī":{"ha":344,"x_min":14,"x_max":503,"o":"m 335 721 l 182 0 l 14 0 l 168 721 l 335 721 m 72 960 l 503 960 l 478 839 l 46 839 l 72 960 z "},"į":{"ha":344,"x_min":-93,"x_max":386,"o":"m 335 721 l 182 0 q 88 -40 124 -14 q 53 -107 53 -67 q 69 -147 53 -133 q 115 -161 86 -161 q 161 -151 139 -161 l 140 -247 q 106 -258 129 -253 q 51 -264 83 -264 q -56 -231 -19 -264 q -93 -142 -93 -199 q -81 -80 -93 -107 q -50 -32 -69 -53 q -4 3 -31 -11 q 17 14 6 8 l 168 721 l 335 721 m 283 807 q 210 838 240 807 q 181 913 181 869 q 210 988 181 957 q 283 1018 240 1018 q 356 988 326 1018 q 386 913 386 957 q 356 838 386 869 q 283 807 326 807 z "},"ĩ":{"ha":344,"x_min":14,"x_max":511,"o":"m 335 721 l 182 0 l 14 0 l 168 721 l 335 721 m 14 821 q 26 890 15 856 q 56 949 36 924 q 106 991 75 975 q 181 1007 138 1007 q 236 998 213 1007 q 279 978 260 989 q 317 958 299 967 q 357 949 336 949 q 394 963 381 949 q 413 1014 407 978 l 511 1014 q 501 946 510 979 q 473 886 492 913 q 424 844 454 860 q 351 828 394 828 q 297 837 319 828 q 255 856 275 846 q 216 876 235 867 q 174 885 197 885 q 133 872 150 885 q 113 821 117 858 l 14 821 l 14 821 z "},"ĵ":{"ha":360,"x_min":-217,"x_max":500,"o":"m 193 -24 q 103 -197 169 -135 q -85 -260 36 -260 q -153 -253 -118 -260 q -217 -231 -189 -247 l -187 -100 q -145 -117 -169 -111 q -89 -124 -121 -124 q -6 -92 -31 -124 q 29 -3 18 -61 l 185 721 l 351 721 l 193 -24 m 299 924 l 175 817 l 43 817 l 226 1022 l 403 1022 l 500 817 l 369 817 l 299 924 z "},"ķ":{"ha":731,"x_min":14,"x_max":796,"o":"m 311 294 l 243 294 l 181 0 l 14 0 l 226 996 l 393 996 l 272 428 l 338 428 l 610 721 l 796 721 l 457 357 l 653 0 l 472 0 l 311 294 m 400 -162 q 390 -215 400 -190 q 365 -260 381 -239 q 328 -299 349 -281 q 289 -333 308 -318 l 182 -333 q 238 -288 214 -311 q 279 -235 261 -265 q 234 -206 251 -228 q 217 -153 217 -185 q 242 -90 217 -115 q 307 -65 267 -65 q 373 -90 346 -65 q 400 -162 400 -114 z "},"ĺ":{"ha":343,"x_min":14,"x_max":613,"o":"m 393 996 l 181 0 l 14 0 l 226 996 l 393 996 m 394 1310 l 613 1310 l 392 1121 l 240 1121 l 394 1310 z "},"ľ":{"ha":343,"x_min":14,"x_max":640,"o":"m 393 996 l 181 0 l 14 0 l 226 996 l 393 996 m 393 733 l 474 996 l 640 996 l 501 733 l 393 733 z "},"ļ":{"ha":343,"x_min":-61,"x_max":393,"o":"m 393 996 l 181 0 l 14 0 l 226 996 l 393 996 m 157 -162 q 147 -215 157 -190 q 122 -260 138 -239 q 85 -299 106 -281 q 46 -333 65 -318 l -61 -333 q -6 -288 -29 -311 q 36 -235 18 -265 q -9 -206 8 -228 q -26 -153 -26 -185 q -1 -90 -26 -115 q 64 -65 24 -65 q 130 -90 103 -65 q 157 -162 157 -114 z "},"ŀ":{"ha":599,"x_min":14,"x_max":606,"o":"m 393 996 l 181 0 l 14 0 l 226 996 l 393 996 m 493 381 q 413 414 444 381 q 381 494 381 447 q 413 576 381 543 q 493 608 444 608 q 574 576 542 608 q 606 494 606 543 q 574 414 606 447 q 493 381 542 381 z "},"ń":{"ha":808,"x_min":14,"x_max":778,"o":"m 474 599 q 411 590 439 599 q 360 567 383 582 q 319 534 338 553 q 288 496 301 515 l 181 0 l 14 0 l 167 721 l 325 721 l 306 606 l 308 606 q 408 698 349 661 q 549 735 467 735 q 647 717 603 735 q 718 662 690 699 q 754 570 746 625 q 747 443 763 515 l 653 0 l 485 0 l 579 444 q 585 519 589 489 q 565 566 581 549 q 526 591 550 583 q 474 599 503 599 m 588 1036 l 778 1036 l 557 817 l 428 817 l 588 1036 z "},"ň":{"ha":808,"x_min":14,"x_max":774,"o":"m 474 599 q 411 590 439 599 q 360 567 383 582 q 319 534 338 553 q 288 496 301 515 l 181 0 l 14 0 l 167 721 l 325 721 l 306 606 l 308 606 q 408 698 349 661 q 549 735 467 735 q 647 717 603 735 q 718 662 690 699 q 754 570 746 625 q 747 443 763 515 l 653 0 l 485 0 l 579 444 q 585 519 589 489 q 565 566 581 549 q 526 591 550 583 q 474 599 503 599 m 589 817 l 414 817 l 315 1022 l 446 1022 l 519 915 l 640 1022 l 774 1022 l 589 817 z "},"ņ":{"ha":808,"x_min":14,"x_max":763,"o":"m 474 599 q 411 590 439 599 q 360 567 383 582 q 319 534 338 553 q 288 496 301 515 l 181 0 l 14 0 l 167 721 l 325 721 l 306 606 l 308 606 q 408 698 349 661 q 549 735 467 735 q 647 717 603 735 q 718 662 690 699 q 754 570 746 625 q 747 443 763 515 l 653 0 l 485 0 l 579 444 q 585 519 589 489 q 565 566 581 549 q 526 591 550 583 q 474 599 503 599 m 433 -162 q 424 -215 433 -190 q 398 -260 414 -239 q 362 -299 382 -281 q 322 -333 342 -318 l 215 -333 q 271 -288 247 -311 q 313 -235 294 -265 q 267 -206 285 -228 q 250 -153 250 -185 q 275 -90 250 -115 q 340 -65 300 -65 q 406 -90 379 -65 q 433 -162 433 -114 z "},"ŏ":{"ha":801,"x_min":43,"x_max":763,"o":"m 375 -14 q 242 10 303 -14 q 137 76 181 33 q 68 181 93 119 q 43 321 43 243 q 69 475 43 400 q 146 608 96 550 q 268 700 196 665 q 431 735 340 735 q 564 711 503 735 q 669 644 625 688 q 738 538 713 600 q 763 399 763 476 q 736 245 763 319 q 660 113 710 171 q 538 21 610 56 q 375 -14 465 -14 m 217 324 q 263 171 217 219 q 379 122 308 122 q 469 145 431 122 q 535 206 508 168 q 575 293 561 243 q 589 397 589 343 q 543 551 589 503 q 426 599 497 599 q 336 576 375 599 q 271 515 297 553 q 231 428 244 478 q 217 324 217 378 m 464 807 q 367 824 407 807 q 301 868 326 840 q 268 934 276 896 q 268 1014 260 972 l 400 1014 q 413 946 393 969 q 474 922 433 922 q 540 945 514 922 q 575 1014 567 968 l 708 1014 q 685 934 703 972 q 637 868 667 896 q 564 824 607 840 q 464 807 521 807 z "},"ő":{"ha":801,"x_min":43,"x_max":768,"o":"m 375 -14 q 242 10 303 -14 q 137 76 181 33 q 68 181 93 119 q 43 321 43 243 q 69 475 43 400 q 146 608 96 550 q 268 700 196 665 q 431 735 340 735 q 564 711 503 735 q 669 644 625 688 q 738 538 713 600 q 763 399 763 476 q 736 245 763 319 q 660 113 710 171 q 538 21 610 56 q 375 -14 465 -14 m 217 324 q 263 171 217 219 q 379 122 308 122 q 469 145 431 122 q 535 206 508 168 q 575 293 561 243 q 589 397 589 343 q 543 551 589 503 q 426 599 497 599 q 336 576 375 599 q 271 515 297 553 q 231 428 244 478 q 217 324 217 378 m 244 817 l 369 1036 l 532 1036 l 367 817 l 244 817 m 479 817 l 606 1036 l 768 1036 l 603 817 l 479 817 z "},"ō":{"ha":801,"x_min":43,"x_max":763,"o":"m 375 -14 q 242 10 303 -14 q 137 76 181 33 q 68 181 93 119 q 43 321 43 243 q 69 475 43 400 q 146 608 96 550 q 268 700 196 665 q 431 735 340 735 q 564 711 503 735 q 669 644 625 688 q 738 538 713 600 q 763 399 763 476 q 736 245 763 319 q 660 113 710 171 q 538 21 610 56 q 375 -14 465 -14 m 217 324 q 263 171 217 219 q 379 122 308 122 q 469 145 431 122 q 535 206 508 168 q 575 293 561 243 q 589 397 589 343 q 543 551 589 503 q 426 599 497 599 q 336 576 375 599 q 271 515 297 553 q 231 428 244 478 q 217 324 217 378 m 263 961 l 693 961 l 668 840 l 236 840 l 263 961 z "},"ŕ":{"ha":528,"x_min":14,"x_max":656,"o":"m 529 560 q 383 544 446 572 q 279 458 319 517 l 181 0 l 14 0 l 167 721 l 321 721 l 299 572 l 301 572 q 349 639 322 608 q 410 691 376 669 q 482 724 443 713 q 565 735 521 736 l 529 560 l 529 560 m 465 1036 l 656 1036 l 435 817 l 306 817 l 465 1036 z "},"ř":{"ha":528,"x_min":14,"x_max":651,"o":"m 529 560 q 383 544 446 572 q 279 458 319 517 l 181 0 l 14 0 l 167 721 l 321 721 l 299 572 l 301 572 q 349 639 322 608 q 410 691 376 669 q 482 724 443 713 q 565 735 521 736 l 529 560 l 529 560 m 467 817 l 292 817 l 193 1022 l 324 1022 l 397 915 l 518 1022 l 651 1022 l 467 817 z "},"ŗ":{"ha":528,"x_min":-61,"x_max":565,"o":"m 529 560 q 383 544 446 572 q 279 458 319 517 l 181 0 l 14 0 l 167 721 l 321 721 l 299 572 l 301 572 q 349 639 322 608 q 410 691 376 669 q 482 724 443 713 q 565 735 521 736 l 529 560 l 529 560 m 157 -162 q 147 -215 157 -190 q 122 -260 138 -239 q 85 -299 106 -281 q 46 -333 65 -318 l -61 -333 q -6 -288 -29 -311 q 36 -235 18 -265 q -9 -206 8 -228 q -26 -153 -26 -185 q -1 -90 -26 -115 q 64 -65 24 -65 q 130 -90 103 -65 q 157 -162 157 -114 z "},"ś":{"ha":656,"x_min":11,"x_max":664,"o":"m 589 217 q 517 47 589 108 q 306 -14 444 -14 q 203 -5 250 -14 q 120 18 157 4 q 56 49 83 32 q 11 82 28 65 l 40 214 q 155 150 83 178 q 311 122 226 122 q 372 128 349 122 q 409 146 396 135 q 428 170 422 157 q 433 199 433 183 q 421 241 433 225 q 388 267 408 257 q 340 285 367 278 q 285 300 313 292 q 211 326 247 311 q 147 363 175 340 q 101 421 118 386 q 83 507 83 456 q 105 606 83 564 q 165 677 126 649 q 256 720 203 706 q 371 735 308 735 q 528 710 464 735 q 622 664 592 686 l 594 535 q 499 579 554 560 q 371 599 444 599 q 273 581 307 599 q 239 525 239 564 q 250 488 239 501 q 280 464 261 474 q 323 447 299 454 q 375 432 347 440 q 451 408 413 421 q 519 372 489 394 q 569 312 550 349 q 589 217 589 275 m 474 1036 l 664 1036 l 443 817 l 314 817 l 474 1036 z "},"ş":{"ha":656,"x_min":11,"x_max":622,"o":"m 589 217 q 517 47 589 108 q 306 -14 444 -14 q 203 -5 250 -14 q 120 18 157 4 q 56 49 83 32 q 11 82 28 65 l 40 214 q 155 150 83 178 q 311 122 226 122 q 372 128 349 122 q 409 146 396 135 q 428 170 422 157 q 433 199 433 183 q 421 241 433 225 q 388 267 408 257 q 340 285 367 278 q 285 300 313 292 q 211 326 247 311 q 147 363 175 340 q 101 421 118 386 q 83 507 83 456 q 105 606 83 564 q 165 677 126 649 q 256 720 203 706 q 371 735 308 735 q 528 710 464 735 q 622 664 592 686 l 594 535 q 499 579 554 560 q 371 599 444 599 q 273 581 307 599 q 239 525 239 564 q 250 488 239 501 q 280 464 261 474 q 323 447 299 454 q 375 432 347 440 q 451 408 413 421 q 519 372 489 394 q 569 312 550 349 q 589 217 589 275 m 369 28 l 229 -260 l 51 -260 l 242 28 l 369 28 z "},"ŝ":{"ha":656,"x_min":11,"x_max":625,"o":"m 589 217 q 517 47 589 108 q 306 -14 444 -14 q 203 -5 250 -14 q 120 18 157 4 q 56 49 83 32 q 11 82 28 65 l 40 214 q 155 150 83 178 q 311 122 226 122 q 372 128 349 122 q 409 146 396 135 q 428 170 422 157 q 433 199 433 183 q 421 241 433 225 q 388 267 408 257 q 340 285 367 278 q 285 300 313 292 q 211 326 247 311 q 147 363 175 340 q 101 421 118 386 q 83 507 83 456 q 105 606 83 564 q 165 677 126 649 q 256 720 203 706 q 371 735 308 735 q 528 710 464 735 q 622 664 592 686 l 594 535 q 499 579 554 560 q 371 599 444 599 q 273 581 307 599 q 239 525 239 564 q 250 488 239 501 q 280 464 261 474 q 323 447 299 454 q 375 432 347 440 q 451 408 413 421 q 519 372 489 394 q 569 312 550 349 q 589 217 589 275 m 424 924 l 300 817 l 168 817 l 351 1022 l 528 1022 l 625 817 l 494 817 l 424 924 z "},"ș":{"ha":656,"x_min":11,"x_max":622,"o":"m 589 217 q 517 47 589 108 q 306 -14 444 -14 q 203 -5 250 -14 q 120 18 157 4 q 56 49 83 32 q 11 82 28 65 l 40 214 q 155 150 83 178 q 311 122 226 122 q 372 128 349 122 q 409 146 396 135 q 428 170 422 157 q 433 199 433 183 q 421 241 433 225 q 388 267 408 257 q 340 285 367 278 q 285 300 313 292 q 211 326 247 311 q 147 363 175 340 q 101 421 118 386 q 83 507 83 456 q 105 606 83 564 q 165 677 126 649 q 256 720 203 706 q 371 735 308 735 q 528 710 464 735 q 622 664 592 686 l 594 535 q 499 579 554 560 q 371 599 444 599 q 273 581 307 599 q 239 525 239 564 q 250 488 239 501 q 280 464 261 474 q 323 447 299 454 q 375 432 347 440 q 451 408 413 421 q 519 372 489 394 q 569 312 550 349 q 589 217 589 275 m 336 -162 q 326 -215 336 -190 q 301 -260 317 -239 q 265 -299 285 -281 q 225 -333 244 -318 l 118 -333 q 174 -288 150 -311 q 215 -235 197 -265 q 170 -206 188 -228 q 153 -153 153 -185 q 178 -90 153 -115 q 243 -65 203 -65 q 309 -90 282 -65 q 336 -162 336 -114 z "},"ŧ":{"ha":536,"x_min":32,"x_max":560,"o":"m 413 17 q 279 -14 360 -14 q 113 56 160 -14 q 90 240 65 125 l 115 360 l 32 360 l 57 482 l 142 482 l 165 588 l 82 588 l 110 721 l 194 721 l 226 872 l 393 872 l 361 721 l 560 721 l 531 588 l 332 588 l 310 482 l 511 482 l 485 360 l 283 360 l 258 239 q 266 149 244 176 q 338 122 288 122 q 391 128 364 122 q 439 149 418 135 l 413 17 z "},"ť":{"ha":536,"x_min":67,"x_max":699,"o":"m 414 17 q 281 -14 361 -14 q 114 56 161 -14 q 92 240 67 125 l 167 588 l 83 588 l 111 721 l 196 721 l 228 872 l 394 872 l 363 721 l 561 721 l 532 588 l 333 588 l 260 239 q 267 149 246 176 q 339 122 289 122 q 392 128 365 122 q 440 149 419 135 l 414 17 l 414 17 m 460 762 l 538 995 l 699 995 l 565 762 l 460 762 z "},"ţ":{"ha":536,"x_min":67,"x_max":561,"o":"m 414 17 q 281 -14 361 -14 q 114 56 161 -14 q 92 240 67 125 l 167 588 l 83 588 l 111 721 l 196 721 l 228 872 l 394 872 l 363 721 l 561 721 l 532 588 l 333 588 l 260 239 q 267 149 246 176 q 339 122 289 122 q 392 128 365 122 q 440 149 419 135 l 414 17 l 414 17 m 285 -162 q 275 -215 285 -190 q 249 -260 265 -239 q 213 -299 233 -281 q 174 -333 193 -318 l 67 -333 q 122 -288 99 -311 q 164 -235 146 -265 q 119 -206 136 -228 q 101 -153 101 -185 q 126 -90 101 -115 q 192 -65 151 -65 q 258 -90 231 -65 q 285 -162 285 -114 z "},"ț":{"ha":536,"x_min":67,"x_max":561,"o":"m 414 17 q 281 -14 361 -14 q 114 56 161 -14 q 92 240 67 125 l 167 588 l 83 588 l 111 721 l 196 721 l 228 872 l 394 872 l 363 721 l 561 721 l 532 588 l 333 588 l 260 239 q 267 149 246 176 q 339 122 289 122 q 392 128 365 122 q 440 149 419 135 l 414 17 l 414 17 m 285 -162 q 275 -215 285 -190 q 249 -260 265 -239 q 213 -299 233 -281 q 174 -333 193 -318 l 67 -333 q 122 -288 99 -311 q 164 -235 146 -265 q 119 -206 136 -228 q 101 -153 101 -185 q 126 -90 101 -115 q 192 -65 151 -65 q 258 -90 231 -65 q 285 -162 285 -114 z "},"ŭ":{"ha":797,"x_min":50,"x_max":788,"o":"m 339 122 q 443 153 401 122 q 514 226 485 183 l 619 721 l 788 721 l 633 0 l 481 0 l 494 115 l 492 115 q 397 24 451 61 q 260 -14 342 -14 q 165 4 207 -14 q 95 58 122 22 q 59 148 68 94 q 65 272 50 201 l 160 721 l 329 721 l 235 281 q 249 160 217 197 q 339 122 281 122 m 483 807 q 386 824 426 807 q 321 868 346 840 q 288 934 296 896 q 288 1014 279 972 l 419 1014 q 433 946 413 969 q 493 922 453 922 q 560 945 533 922 q 594 1014 586 968 l 728 1014 q 704 934 722 972 q 656 868 686 896 q 583 824 626 840 q 483 807 540 807 z "},"ű":{"ha":797,"x_min":50,"x_max":825,"o":"m 339 122 q 443 153 401 122 q 514 226 485 183 l 619 721 l 788 721 l 633 0 l 481 0 l 494 115 l 492 115 q 397 24 451 61 q 260 -14 342 -14 q 165 4 207 -14 q 95 58 122 22 q 59 148 68 94 q 65 272 50 201 l 160 721 l 329 721 l 235 281 q 249 160 217 197 q 339 122 281 122 m 301 817 l 426 1036 l 589 1036 l 424 817 l 301 817 m 536 817 l 663 1036 l 825 1036 l 660 817 l 536 817 z "},"ū":{"ha":797,"x_min":50,"x_max":788,"o":"m 339 122 q 443 153 401 122 q 514 226 485 183 l 619 721 l 788 721 l 633 0 l 481 0 l 494 115 l 492 115 q 397 24 451 61 q 260 -14 342 -14 q 165 4 207 -14 q 95 58 122 22 q 59 148 68 94 q 65 272 50 201 l 160 721 l 329 721 l 235 281 q 249 160 217 197 q 339 122 281 122 m 293 961 l 724 961 l 699 840 l 267 840 l 293 961 z "},"ų":{"ha":797,"x_min":50,"x_max":788,"o":"m 596 -247 q 562 -258 585 -253 q 507 -264 539 -264 q 400 -231 438 -264 q 363 -142 363 -199 q 398 -47 363 -86 q 482 13 433 -8 l 494 115 l 492 115 q 397 24 451 61 q 260 -14 342 -14 q 165 4 207 -14 q 95 58 122 22 q 59 148 68 94 q 65 272 50 201 l 160 721 l 329 721 l 235 281 q 249 160 217 197 q 339 122 281 122 q 443 153 401 122 q 514 226 485 183 l 619 721 l 788 721 l 633 0 q 542 -41 576 -15 q 508 -107 508 -67 q 525 -147 508 -133 q 571 -161 542 -161 q 617 -151 594 -161 l 596 -247 l 596 -247 z "},"ů":{"ha":797,"x_min":50,"x_max":788,"o":"m 339 122 q 443 153 401 122 q 514 226 485 183 l 619 721 l 788 721 l 633 0 l 481 0 l 494 115 l 492 115 q 397 24 451 61 q 260 -14 342 -14 q 165 4 207 -14 q 95 58 122 22 q 59 148 68 94 q 65 272 50 201 l 160 721 l 329 721 l 235 281 q 249 160 217 197 q 339 122 281 122 m 486 792 q 419 804 450 792 q 365 838 388 817 q 331 890 343 860 q 318 956 318 919 q 331 1023 318 992 q 368 1077 344 1054 q 423 1113 392 1100 q 490 1126 454 1126 q 558 1114 526 1126 q 612 1080 589 1101 q 647 1028 635 1058 q 660 961 660 997 q 646 894 660 925 q 608 840 632 863 q 553 804 585 817 q 486 792 522 792 m 488 888 q 540 908 519 888 q 560 960 560 928 q 540 1012 560 992 q 489 1032 521 1032 q 438 1011 458 1032 q 418 958 418 990 q 437 907 418 926 q 488 888 456 888 z "},"ũ":{"ha":797,"x_min":50,"x_max":788,"o":"m 339 122 q 443 153 401 122 q 514 226 485 183 l 619 721 l 788 721 l 633 0 l 481 0 l 494 115 l 492 115 q 397 24 451 61 q 260 -14 342 -14 q 165 4 207 -14 q 95 58 122 22 q 59 148 68 94 q 65 272 50 201 l 160 721 l 329 721 l 235 281 q 249 160 217 197 q 339 122 281 122 m 247 821 q 259 890 249 856 q 289 949 269 924 q 340 991 308 975 q 414 1007 371 1007 q 469 998 446 1007 q 513 978 493 989 q 551 958 532 967 q 590 949 569 949 q 627 963 614 949 q 646 1014 640 978 l 744 1014 q 734 946 743 979 q 706 886 725 913 q 658 844 688 860 q 585 828 628 828 q 531 837 553 828 q 488 856 508 846 q 449 876 468 867 q 407 885 431 885 q 367 872 383 885 q 346 821 350 858 l 247 821 l 247 821 z "},"ẃ":{"ha":1117,"x_min":113,"x_max":1161,"o":"m 853 0 l 617 0 l 590 511 l 344 0 l 114 0 l 113 721 l 279 721 l 271 142 l 551 721 l 728 721 l 761 135 l 1006 721 l 1161 721 l 853 0 m 733 1036 l 924 1036 l 703 817 l 574 817 l 733 1036 z "},"ŵ":{"ha":1117,"x_min":113,"x_max":1161,"o":"m 853 0 l 617 0 l 590 511 l 344 0 l 114 0 l 113 721 l 279 721 l 271 142 l 551 721 l 728 721 l 761 135 l 1006 721 l 1161 721 l 853 0 m 669 924 l 546 817 l 414 817 l 597 1022 l 774 1022 l 871 817 l 740 817 l 669 924 z "},"ẅ":{"ha":1117,"x_min":113,"x_max":1161,"o":"m 853 0 l 617 0 l 590 511 l 344 0 l 114 0 l 113 721 l 279 721 l 271 142 l 551 721 l 728 721 l 761 135 l 1006 721 l 1161 721 l 853 0 m 494 810 q 421 840 450 810 q 392 911 392 869 q 421 985 392 956 q 494 1014 450 1014 q 569 985 539 1014 q 600 911 600 956 q 569 840 600 869 q 494 810 539 810 m 807 810 q 733 840 763 810 q 703 911 703 869 q 733 985 703 956 q 807 1014 763 1014 q 881 985 851 1014 q 911 911 911 956 q 881 840 911 869 q 807 810 851 810 z "},"ẁ":{"ha":1117,"x_min":113,"x_max":1161,"o":"m 853 0 l 617 0 l 590 511 l 344 0 l 114 0 l 113 721 l 279 721 l 271 142 l 551 721 l 728 721 l 761 135 l 1006 721 l 1161 721 l 853 0 m 590 817 l 406 1036 l 594 1036 l 715 817 l 590 817 z "},"ŷ":{"ha":749,"x_min":-71,"x_max":800,"o":"m 397 -12 q 326 -121 363 -75 q 247 -198 289 -167 q 155 -244 204 -229 q 46 -260 106 -260 q -18 -256 13 -260 q -71 -240 -49 -251 l -40 -104 q 7 -119 -19 -115 q 63 -124 33 -124 q 147 -103 111 -124 q 215 -44 183 -83 l 92 721 l 264 721 l 340 163 l 639 721 l 800 721 l 397 -12 l 397 -12 m 471 924 l 347 817 l 215 817 l 399 1022 l 575 1022 l 672 817 l 542 817 l 471 924 z "},"ỳ":{"ha":749,"x_min":-71,"x_max":800,"o":"m 397 -12 q 326 -121 363 -75 q 247 -198 289 -167 q 155 -244 204 -229 q 46 -260 106 -260 q -18 -256 13 -260 q -71 -240 -49 -251 l -40 -104 q 7 -119 -19 -115 q 63 -124 33 -124 q 147 -103 111 -124 q 215 -44 183 -83 l 92 721 l 264 721 l 340 163 l 639 721 l 800 721 l 397 -12 l 397 -12 m 392 817 l 207 1036 l 396 1036 l 517 817 l 392 817 z "},"ź":{"ha":661,"x_min":-28,"x_max":700,"o":"m 538 0 l -28 0 l -4 114 l 447 589 l 110 589 l 138 721 l 689 721 l 667 614 l 210 133 l 565 133 l 538 0 m 510 1036 l 700 1036 l 479 817 l 350 817 l 510 1036 z "},"ż":{"ha":661,"x_min":-28,"x_max":689,"o":"m 538 0 l -28 0 l -4 114 l 447 589 l 110 589 l 138 721 l 689 721 l 667 614 l 210 133 l 565 133 l 538 0 m 425 810 q 351 840 381 810 q 321 911 321 869 q 351 985 321 956 q 425 1014 381 1014 q 500 985 469 1014 q 531 911 531 956 q 500 840 531 869 q 425 810 469 810 z "},"ﬀ":{"ha":975,"x_min":38,"x_max":1082,"o":"m 783 588 l 629 -176 l 461 -176 l 615 588 l 353 588 l 206 -176 l 38 -176 l 186 588 l 96 588 l 125 721 l 211 721 l 215 739 q 318 941 242 874 q 533 1008 394 1008 q 607 1004 574 1008 l 579 872 q 522 876 554 876 q 428 844 460 876 q 382 735 397 813 l 379 721 l 643 721 l 646 736 q 749 941 674 874 q 963 1008 825 1008 q 1029 1006 994 1008 q 1082 996 1064 1003 l 1051 861 q 1013 869 1040 865 q 957 872 985 872 q 860 842 893 872 q 813 736 828 813 l 810 721 l 1010 721 l 982 588 l 783 588 z "},"⅛":{"ha":1361,"x_min":101,"x_max":1313,"o":"m 132 0 l 1050 996 l 1196 996 l 278 0 l 132 0 m 1289 181 q 1270 103 1289 138 q 1218 43 1251 68 q 1139 5 1185 18 q 1038 -8 1093 -8 q 866 36 929 -8 q 803 160 803 81 q 847 270 803 226 q 964 333 890 314 q 897 380 922 349 q 871 458 871 411 q 888 530 871 497 q 937 586 906 563 q 1011 622 968 610 q 1106 635 1054 635 q 1254 595 1196 635 q 1313 478 1313 556 q 1276 382 1313 421 q 1178 326 1240 343 q 1258 274 1226 308 q 1289 181 1289 239 m 1085 381 q 1149 401 1124 381 q 1174 458 1174 421 q 1149 513 1174 497 q 1093 529 1124 529 q 1032 508 1057 529 q 1007 450 1007 486 q 1029 398 1007 415 q 1085 381 1051 381 m 1043 100 q 1115 126 1088 100 q 1143 196 1143 151 q 1117 260 1143 240 q 1056 279 1092 279 q 981 251 1008 279 q 954 183 954 224 q 979 121 954 142 q 1043 100 1004 100 m 336 368 l 188 368 l 286 829 l 101 694 l 133 843 l 342 996 l 469 996 l 336 368 z "},"⅓":{"ha":1332,"x_min":101,"x_max":1286,"o":"m 132 0 l 1050 996 l 1196 996 l 278 0 l 132 0 m 1249 185 q 1183 46 1249 100 q 996 -8 1118 -8 q 881 10 925 -8 q 808 47 836 28 l 833 156 q 897 120 857 140 q 997 100 938 100 q 1077 126 1051 100 q 1103 190 1103 151 q 1076 253 1103 232 q 1006 274 1050 274 l 942 274 l 963 375 l 1031 375 q 1110 397 1082 375 q 1138 456 1138 418 q 1115 508 1138 489 q 1053 526 1092 526 q 976 514 1008 526 q 913 482 944 501 l 938 596 q 1007 626 969 615 q 1093 636 1044 636 q 1236 590 1186 636 q 1286 476 1286 544 q 1242 371 1286 411 q 1132 324 1199 331 q 1215 279 1181 313 q 1249 185 1249 246 m 336 368 l 188 368 l 286 829 l 101 694 l 133 843 l 342 996 l 469 996 l 336 368 z "},"⅜":{"ha":1414,"x_min":65,"x_max":1365,"o":"m 185 0 l 1103 996 l 1249 996 l 331 0 l 185 0 m 1342 181 q 1323 103 1342 138 q 1271 43 1304 68 q 1192 5 1238 18 q 1090 -8 1146 -8 q 919 36 982 -8 q 856 160 856 81 q 899 270 856 226 q 1017 333 943 314 q 949 380 975 349 q 924 458 924 411 q 941 530 924 497 q 990 586 958 563 q 1064 622 1021 610 q 1158 635 1107 635 q 1307 595 1249 635 q 1365 478 1365 556 q 1329 382 1365 421 q 1231 326 1293 343 q 1310 274 1279 308 q 1342 181 1342 239 m 1138 381 q 1201 401 1176 381 q 1226 458 1226 421 q 1201 513 1226 497 q 1146 529 1176 529 q 1085 508 1110 529 q 1060 450 1060 486 q 1082 398 1060 415 q 1138 381 1104 381 m 1096 100 q 1168 126 1140 100 q 1196 196 1196 151 q 1170 260 1196 240 q 1108 279 1144 279 q 1034 251 1061 279 q 1007 183 1007 224 q 1032 121 1007 142 q 1096 100 1057 100 m 506 553 q 440 414 506 468 q 253 360 375 360 q 138 378 182 360 q 65 415 93 396 l 90 524 q 154 488 114 508 q 254 468 194 468 q 334 494 308 468 q 360 558 360 519 q 333 621 360 600 q 263 642 307 642 l 199 642 l 219 743 l 288 743 q 367 765 339 743 q 394 824 394 786 q 372 876 394 857 q 310 894 349 894 q 233 882 265 894 q 169 850 201 869 l 194 964 q 264 994 226 983 q 350 1004 301 1004 q 493 958 443 1004 q 543 844 543 913 q 499 739 543 779 q 389 692 456 699 q 472 647 438 681 q 506 553 506 614 z "},"⅝":{"ha":1399,"x_min":67,"x_max":1349,"o":"m 518 594 q 500 499 518 542 q 449 424 482 456 q 368 376 415 393 q 263 360 321 360 q 138 378 183 360 q 67 417 93 397 l 90 525 q 158 486 118 504 q 253 468 199 468 q 340 499 311 468 q 369 576 369 529 q 348 644 369 621 q 286 668 326 668 q 240 659 258 668 q 213 640 222 650 l 122 640 l 199 996 l 564 996 l 540 879 l 290 879 l 264 754 q 343 772 296 772 q 413 761 381 772 q 468 728 444 750 q 505 672 492 706 q 518 594 518 639 m 169 0 l 1088 996 l 1233 996 l 315 0 l 169 0 m 1325 181 q 1306 103 1325 138 q 1254 43 1288 68 q 1175 5 1221 18 q 1074 -8 1129 -8 q 902 36 965 -8 q 839 160 839 81 q 883 270 839 226 q 1000 333 926 314 q 933 380 958 349 q 907 458 907 411 q 924 530 907 497 q 973 586 942 563 q 1047 622 1004 610 q 1142 635 1090 635 q 1290 595 1232 635 q 1349 478 1349 556 q 1313 382 1349 421 q 1214 326 1276 343 q 1294 274 1263 308 q 1325 181 1325 239 m 1121 381 q 1185 401 1160 381 q 1210 458 1210 421 q 1185 513 1210 497 q 1129 529 1160 529 q 1068 508 1093 529 q 1043 450 1043 486 q 1065 398 1043 415 q 1121 381 1088 381 m 1079 100 q 1151 126 1124 100 q 1179 196 1179 151 q 1153 260 1179 240 q 1092 279 1128 279 q 1017 251 1044 279 q 990 183 990 224 q 1015 121 990 142 q 1079 100 1040 100 z "},"⅔":{"ha":1447,"x_min":56,"x_max":1401,"o":"m 478 368 l 56 368 l 82 492 q 238 588 176 544 q 335 667 299 631 q 385 735 371 703 q 399 799 399 767 q 375 868 399 843 q 307 893 351 893 q 226 878 260 893 q 161 839 192 863 l 186 957 q 253 990 213 975 q 351 1004 294 1004 q 503 955 447 1004 q 558 822 558 906 q 478 641 558 722 q 238 479 397 560 l 500 479 l 478 368 m 247 0 l 1165 996 l 1311 996 l 393 0 l 247 0 m 1364 186 q 1299 47 1364 101 q 1111 -7 1233 -7 q 996 11 1040 -7 q 924 49 951 29 l 949 157 q 1013 122 972 142 q 1113 101 1053 101 q 1192 127 1167 101 q 1218 192 1218 153 q 1192 254 1218 233 q 1121 275 1165 275 l 1057 275 l 1078 376 l 1146 376 q 1225 398 1197 376 q 1253 457 1253 419 q 1230 509 1253 490 q 1168 528 1207 528 q 1092 515 1124 528 q 1028 483 1060 503 l 1053 597 q 1122 627 1085 617 q 1208 638 1160 638 q 1351 592 1301 638 q 1401 478 1401 546 q 1358 372 1401 413 q 1247 325 1314 332 q 1330 281 1296 314 q 1364 186 1364 247 z "},"⅞":{"ha":1313,"x_min":83,"x_max":1264,"o":"m 279 368 l 122 368 l 454 881 l 179 881 l 204 996 l 639 996 l 619 903 l 279 368 m 83 0 l 1001 996 l 1147 996 l 229 0 l 83 0 m 1240 181 q 1222 103 1240 138 q 1169 43 1203 68 q 1090 5 1136 18 q 989 -8 1044 -8 q 817 36 881 -8 q 754 160 754 81 q 798 270 754 226 q 915 333 842 314 q 848 380 874 349 q 822 458 822 411 q 840 530 822 497 q 888 586 857 563 q 963 622 919 610 q 1057 635 1006 635 q 1206 595 1147 635 q 1264 478 1264 556 q 1228 382 1264 421 q 1129 326 1192 343 q 1209 274 1178 308 q 1240 181 1240 239 m 1036 381 q 1100 401 1075 381 q 1125 458 1125 421 q 1100 513 1125 497 q 1044 529 1075 529 q 983 508 1008 529 q 958 450 958 486 q 981 398 958 415 q 1036 381 1003 381 m 994 100 q 1067 126 1039 100 q 1094 196 1094 151 q 1069 260 1094 240 q 1007 279 1043 279 q 933 251 960 279 q 906 183 906 224 q 931 121 906 142 q 994 100 956 100 z "},"′":{"ha":383,"x_min":125,"x_max":464,"o":"m 281 996 l 464 996 l 260 629 l 125 629 l 281 996 z "},"″":{"ha":647,"x_min":125,"x_max":728,"o":"m 281 996 l 464 996 l 260 629 l 125 629 l 281 996 m 544 996 l 728 996 l 524 629 l 389 629 l 544 996 z "},"":{"ha":600,"x_min":86,"x_max":644,"o":"m 644 746 q 623 600 644 669 q 560 477 601 531 q 460 392 519 424 q 325 360 401 360 q 235 374 278 360 q 158 419 192 388 q 106 499 125 450 q 86 618 86 547 q 108 764 86 694 q 170 887 129 833 q 270 972 211 940 q 406 1004 329 1004 q 496 990 453 1004 q 572 945 539 976 q 625 865 606 914 q 644 746 644 815 m 236 608 q 263 503 236 533 q 331 472 290 472 q 408 501 376 472 q 458 571 439 529 q 487 661 478 613 q 496 751 496 710 q 467 860 496 829 q 400 892 439 892 q 324 863 356 892 q 274 792 293 835 q 245 701 254 750 q 236 608 236 651 z "},"":{"ha":390,"x_min":88,"x_max":456,"o":"m 322 368 l 174 368 l 272 829 l 88 694 l 119 843 l 328 996 l 456 996 l 322 368 z "},"":{"ha":504,"x_min":42,"x_max":544,"o":"m 464 368 l 42 368 l 68 492 q 224 588 163 544 q 321 667 285 631 q 371 735 357 703 q 385 799 385 767 q 361 868 385 843 q 293 893 338 893 q 212 878 246 893 q 147 839 178 863 l 172 957 q 240 990 199 975 q 338 1004 281 1004 q 489 955 433 1004 q 544 822 544 906 q 464 641 544 722 q 224 479 383 560 l 486 479 l 464 368 z "},"":{"ha":490,"x_min":51,"x_max":529,"o":"m 492 553 q 426 414 492 468 q 239 360 361 360 q 124 378 168 360 q 51 415 79 396 l 76 524 q 140 488 100 508 q 240 468 181 468 q 320 494 294 468 q 346 558 346 519 q 319 621 346 600 q 249 642 293 642 l 185 642 l 206 743 l 274 743 q 353 765 325 743 q 381 824 381 786 q 358 876 381 857 q 296 894 335 894 q 219 882 251 894 q 156 850 188 869 l 181 964 q 250 994 213 983 q 336 1004 288 1004 q 479 958 429 1004 q 529 844 529 913 q 485 739 529 779 q 375 692 442 699 q 458 647 424 681 q 492 553 492 614 z "},"":{"ha":547,"x_min":50,"x_max":572,"o":"m 468 497 l 440 368 l 296 368 l 324 497 l 50 497 l 71 594 l 424 996 l 572 996 l 490 603 l 569 603 l 547 497 l 468 497 m 346 603 l 396 835 l 192 603 l 346 603 z "},"":{"ha":486,"x_min":53,"x_max":550,"o":"m 504 594 q 486 499 504 542 q 435 424 468 456 q 354 376 401 393 q 249 360 307 360 q 124 378 169 360 q 53 417 79 397 l 76 525 q 144 486 104 504 q 239 468 185 468 q 326 499 297 468 q 356 576 356 529 q 334 644 356 621 q 272 668 313 668 q 226 659 244 668 q 199 640 208 650 l 108 640 l 185 996 l 550 996 l 526 879 l 276 879 l 250 754 q 329 772 282 772 q 399 761 367 772 q 454 728 431 750 q 491 672 478 706 q 504 594 504 639 z "},"":{"ha":551,"x_min":83,"x_max":581,"o":"m 581 607 q 560 505 581 551 q 502 425 539 458 q 416 373 465 392 q 310 354 367 354 q 143 412 203 354 q 83 582 83 469 q 103 731 83 657 q 166 865 124 806 q 275 963 208 925 q 436 1000 342 1000 q 520 990 485 1000 q 581 964 556 981 l 565 847 q 499 876 533 867 q 428 886 464 886 q 298 838 347 886 q 229 718 249 790 q 383 785 292 785 q 526 740 471 785 q 581 607 581 696 m 317 464 q 405 501 371 464 q 439 597 439 539 q 413 661 439 640 q 351 682 386 682 q 259 642 293 682 q 225 550 225 603 q 251 486 225 508 q 317 464 276 464 z "},"":{"ha":486,"x_min":69,"x_max":586,"o":"m 226 368 l 69 368 l 401 881 l 126 881 l 151 996 l 586 996 l 567 903 l 226 368 z "},"":{"ha":544,"x_min":71,"x_max":581,"o":"m 557 549 q 538 471 557 506 q 486 411 519 436 q 407 373 453 386 q 306 360 361 360 q 134 404 197 360 q 71 528 71 449 q 115 638 71 594 q 232 701 158 682 q 165 748 190 717 q 139 826 139 779 q 156 898 139 865 q 205 954 174 931 q 279 990 236 978 q 374 1003 322 1003 q 522 963 464 1003 q 581 846 581 924 q 544 750 581 789 q 446 694 508 711 q 526 642 494 676 q 557 549 557 607 m 353 749 q 417 769 392 749 q 442 826 442 789 q 417 881 442 865 q 361 897 392 897 q 300 876 325 897 q 275 818 275 854 q 297 766 275 783 q 353 749 319 749 m 311 468 q 383 494 356 468 q 411 564 411 519 q 385 628 411 608 q 324 647 360 647 q 249 619 276 647 q 222 551 222 592 q 247 489 222 510 q 311 468 272 468 z "},"":{"ha":551,"x_min":97,"x_max":593,"o":"m 593 774 q 573 624 593 699 q 510 489 553 549 q 401 392 468 429 q 240 354 333 354 q 97 390 146 354 l 111 507 q 178 478 143 488 q 249 468 213 468 q 378 515 329 468 q 447 638 428 563 q 293 569 385 569 q 151 613 206 569 q 97 747 97 657 q 118 849 97 803 q 175 929 139 896 q 260 981 211 963 q 367 1000 310 1000 q 533 942 474 1000 q 593 774 593 885 m 361 890 q 272 853 306 890 q 238 757 238 815 q 264 693 238 714 q 325 672 290 672 q 417 711 383 672 q 451 804 451 750 q 426 868 451 846 q 361 890 400 890 z "},"":{"ha":600,"x_min":15,"x_max":574,"o":"m 574 378 q 552 232 574 301 q 490 109 531 163 q 390 24 449 56 q 254 -8 331 -8 q 164 6 207 -8 q 88 51 121 19 q 35 131 54 82 q 15 250 15 179 q 37 396 15 326 q 99 519 58 465 q 199 604 140 572 q 335 636 258 636 q 425 622 382 636 q 501 577 468 608 q 554 497 535 546 q 574 378 574 447 m 165 240 q 192 135 165 165 q 260 104 219 104 q 337 133 306 104 q 388 203 368 161 q 416 293 407 244 q 425 383 425 342 q 397 492 425 461 q 329 524 368 524 q 253 495 285 524 q 203 424 222 467 q 174 333 183 382 q 165 240 165 283 z "},"":{"ha":390,"x_min":17,"x_max":385,"o":"m 251 0 l 103 0 l 201 461 l 17 326 l 49 475 l 257 628 l 385 628 l 251 0 z "},"":{"ha":504,"x_min":-29,"x_max":474,"o":"m 393 0 l -29 0 l -3 124 q 153 219 92 176 q 250 299 214 263 q 300 367 286 335 q 314 431 314 399 q 290 500 314 475 q 222 525 267 525 q 141 510 175 525 q 76 471 107 494 l 101 589 q 169 622 128 607 q 267 636 210 636 q 418 587 363 636 q 474 454 474 538 q 393 273 474 354 q 153 111 313 192 l 415 111 l 393 0 z "},"":{"ha":490,"x_min":-19,"x_max":458,"o":"m 421 185 q 356 46 421 100 q 168 -8 290 -8 q 53 10 97 -8 q -19 47 8 28 l 6 156 q 69 120 29 140 q 169 100 110 100 q 249 126 224 100 q 275 190 275 151 q 249 253 275 232 q 178 274 222 274 l 114 274 l 135 375 l 203 375 q 282 397 254 375 q 310 456 310 418 q 287 508 310 489 q 225 526 264 526 q 149 514 181 526 q 85 482 117 501 l 110 596 q 179 626 142 615 q 265 636 217 636 q 408 590 358 636 q 458 476 458 544 q 415 371 458 411 q 304 324 371 331 q 387 279 353 313 q 421 185 421 246 z "},"":{"ha":547,"x_min":-21,"x_max":501,"o":"m 397 129 l 369 0 l 225 0 l 253 129 l -21 129 l 0 226 l 353 628 l 501 628 l 419 235 l 499 235 l 476 129 l 397 129 m 275 235 l 325 467 l 121 235 l 275 235 z "},"":{"ha":486,"x_min":-18,"x_max":479,"o":"m 433 226 q 415 131 433 174 q 364 56 397 88 q 283 8 331 25 q 178 -8 236 -8 q 53 10 99 -8 q -18 49 8 29 l 6 157 q 74 118 33 136 q 168 100 114 100 q 256 131 226 100 q 285 208 285 161 q 263 276 285 253 q 201 300 242 300 q 156 291 174 300 q 128 272 138 282 l 38 272 l 114 628 l 479 628 l 456 511 l 206 511 l 179 386 q 258 404 211 404 q 328 393 296 404 q 383 360 360 382 q 420 304 407 338 q 433 226 433 271 z "},"":{"ha":553,"x_min":13,"x_max":510,"o":"m 510 239 q 489 137 510 183 q 431 57 468 90 q 345 5 394 24 q 239 -14 296 -14 q 72 44 132 -14 q 13 214 13 101 q 33 363 13 289 q 95 497 53 438 q 204 594 138 557 q 365 632 271 632 q 449 622 414 632 q 510 596 485 613 l 494 479 q 428 508 463 499 q 357 518 393 518 q 227 470 276 518 q 158 350 178 422 q 313 417 221 417 q 455 372 400 417 q 510 239 510 328 m 246 96 q 334 133 300 96 q 368 229 368 171 q 342 293 368 272 q 281 314 315 314 q 188 274 222 314 q 154 182 154 235 q 180 118 154 140 q 246 96 206 96 z "},"":{"ha":486,"x_min":-1,"x_max":515,"o":"m 156 0 l -1 0 l 331 513 l 56 513 l 81 628 l 515 628 l 496 535 l 156 0 z "},"":{"ha":544,"x_min":0,"x_max":510,"o":"m 486 181 q 467 103 486 138 q 415 43 449 68 q 336 5 382 18 q 235 -8 290 -8 q 63 36 126 -8 q 0 160 0 81 q 44 270 0 226 q 161 333 88 314 q 94 380 119 349 q 68 458 68 411 q 85 530 68 497 q 134 586 103 563 q 208 622 165 610 q 303 635 251 635 q 451 595 393 635 q 510 478 510 556 q 474 382 510 421 q 375 326 438 343 q 455 274 424 308 q 486 181 486 239 m 282 381 q 346 401 321 381 q 371 458 371 421 q 346 513 371 497 q 290 529 321 529 q 229 508 254 529 q 204 450 204 486 q 226 398 204 415 q 282 381 249 381 m 240 100 q 313 126 285 100 q 340 196 340 151 q 315 260 340 240 q 253 279 289 279 q 178 251 206 279 q 151 183 151 224 q 176 121 151 142 q 240 100 201 100 z "},"":{"ha":553,"x_min":26,"x_max":522,"o":"m 522 406 q 502 256 522 331 q 440 121 482 181 q 330 24 397 61 q 169 -14 263 -14 q 26 22 75 -14 l 40 139 q 107 110 72 119 q 178 100 142 100 q 308 147 258 100 q 376 269 357 194 q 222 201 314 201 q 81 245 135 201 q 26 379 26 289 q 47 481 26 435 q 104 561 68 528 q 190 613 140 594 q 296 632 239 632 q 463 574 403 632 q 522 406 522 517 m 290 522 q 201 485 235 522 q 167 389 167 447 q 193 325 167 346 q 254 304 219 304 q 347 343 313 304 q 381 436 381 382 q 355 500 381 478 q 290 522 329 522 z "},"₀":{"ha":600,"x_min":-18,"x_max":540,"o":"m 540 253 q 519 107 540 176 q 456 -16 497 38 q 356 -101 415 -69 q 221 -133 297 -133 q 131 -119 174 -133 q 54 -74 88 -106 q 1 6 21 -43 q -18 125 -18 54 q 3 271 -18 201 q 66 394 25 340 q 166 479 107 447 q 301 511 225 511 q 392 497 349 511 q 468 452 435 483 q 521 372 501 421 q 540 253 540 322 m 132 115 q 159 10 132 40 q 226 -21 186 -21 q 303 8 272 -21 q 354 78 335 36 q 383 168 374 119 q 392 258 392 217 q 363 367 392 336 q 296 399 335 399 q 220 370 251 399 q 169 299 189 342 q 141 208 150 257 q 132 115 132 158 z "},"₁":{"ha":390,"x_min":-17,"x_max":351,"o":"m 218 -125 l 69 -125 l 168 336 l -17 201 l 15 350 l 224 503 l 351 503 l 218 -125 z "},"₂":{"ha":504,"x_min":-62,"x_max":440,"o":"m 360 -125 l -62 -125 l -36 -1 q 119 94 58 51 q 217 174 181 138 q 267 242 253 210 q 281 306 281 274 q 257 375 281 350 q 189 400 233 400 q 108 385 142 400 q 43 346 74 369 l 68 464 q 135 497 94 482 q 233 511 176 511 q 385 462 329 511 q 440 329 440 413 q 360 148 440 229 q 119 -14 279 67 l 382 -14 l 360 -125 z "},"₃":{"ha":490,"x_min":-53,"x_max":425,"o":"m 388 60 q 322 -79 388 -25 q 135 -133 257 -133 q 19 -115 64 -133 q -53 -78 -25 -97 l -28 31 q 36 -5 -4 15 q 136 -25 76 -25 q 216 1 190 -25 q 242 65 242 26 q 215 128 242 107 q 144 149 189 149 l 81 149 l 101 250 l 169 250 q 249 272 221 250 q 276 331 276 293 q 253 383 276 364 q 192 401 231 401 q 115 389 147 401 q 51 357 83 376 l 76 471 q 146 501 108 490 q 232 511 183 511 q 375 465 325 511 q 425 351 425 419 q 381 246 425 286 q 271 199 338 206 q 353 154 319 188 q 388 60 388 121 z "},"₄":{"ha":547,"x_min":-54,"x_max":468,"o":"m 364 4 l 336 -125 l 192 -125 l 219 4 l -54 4 l -33 101 l 319 503 l 468 503 l 386 110 l 465 110 l 443 4 l 364 4 m 242 110 l 292 342 l 88 110 l 242 110 z "},"₅":{"ha":486,"x_min":-51,"x_max":446,"o":"m 400 101 q 382 6 400 49 q 331 -69 364 -37 q 250 -117 297 -100 q 144 -133 203 -133 q 20 -115 65 -133 q -51 -76 -25 -96 l -28 32 q 40 -7 0 11 q 135 -25 81 -25 q 222 6 193 -25 q 251 83 251 36 q 230 151 251 128 q 168 175 208 175 q 122 166 140 175 q 94 147 104 157 l 4 147 l 81 503 l 446 503 l 422 386 l 172 386 l 146 261 q 225 279 178 279 q 294 268 263 279 q 350 235 326 257 q 387 179 374 213 q 400 101 400 146 z "},"₆":{"ha":551,"x_min":-21,"x_max":476,"o":"m 476 114 q 456 12 476 58 q 398 -68 435 -35 q 312 -120 361 -101 q 206 -139 263 -139 q 39 -81 99 -139 q -21 89 -21 -24 q -1 238 -21 164 q 62 372 19 313 q 171 469 104 432 q 332 507 238 507 q 416 497 381 507 q 476 471 451 488 l 461 354 q 394 383 429 374 q 324 393 360 393 q 194 345 243 393 q 125 225 144 297 q 279 292 188 292 q 422 247 367 292 q 476 114 476 203 m 213 -29 q 301 8 267 -29 q 335 104 335 46 q 308 168 335 147 q 247 189 282 189 q 155 149 189 189 q 121 57 121 110 q 147 -7 121 15 q 213 -29 172 -29 z "},"₇":{"ha":486,"x_min":-35,"x_max":482,"o":"m 122 -125 l -35 -125 l 297 388 l 22 388 l 47 503 l 482 503 l 463 410 l 122 -125 z "},"₈":{"ha":544,"x_min":-33,"x_max":476,"o":"m 453 56 q 434 -22 453 13 q 382 -82 415 -57 q 303 -120 349 -107 q 201 -133 257 -133 q 30 -89 93 -133 q -33 35 -33 -44 q 10 145 -33 101 q 128 208 54 189 q 60 255 86 224 q 35 333 35 286 q 52 405 35 372 q 101 461 69 438 q 175 497 132 485 q 269 510 218 510 q 418 470 360 510 q 476 353 476 431 q 440 257 476 296 q 342 201 404 218 q 422 149 390 183 q 453 56 453 114 m 249 256 q 313 276 288 256 q 338 333 338 296 q 313 388 338 372 q 257 404 288 404 q 196 383 221 404 q 171 325 171 361 q 193 273 171 290 q 249 256 215 256 m 207 -25 q 279 1 251 -25 q 307 71 307 26 q 281 135 307 115 q 219 154 256 154 q 145 126 172 154 q 118 58 118 99 q 143 -4 118 17 q 207 -25 168 -25 z "},"₉":{"ha":551,"x_min":-7,"x_max":489,"o":"m 489 281 q 469 131 489 206 q 406 -4 449 56 q 297 -101 364 -64 q 136 -139 229 -139 q -7 -103 42 -139 l 7 14 q 74 -15 39 -6 q 144 -25 108 -25 q 274 22 225 -25 q 343 144 324 69 q 189 76 281 76 q 47 120 101 76 q -7 254 -7 164 q 14 356 -7 310 q 71 436 35 403 q 156 488 107 469 q 263 507 206 507 q 429 449 369 507 q 489 281 489 392 m 257 397 q 167 360 201 397 q 133 264 133 322 q 160 200 133 221 q 221 179 186 179 q 313 218 279 179 q 347 311 347 257 q 322 375 347 353 q 257 397 296 397 z "},"₊":{"ha":540,"x_min":18,"x_max":472,"o":"m 293 163 l 257 -6 l 139 -6 l 175 163 l 18 163 l 43 271 l 197 271 l 233 438 l 351 438 l 315 271 l 472 271 l 450 163 l 293 163 z "},"₋":{"ha":540,"x_min":18,"x_max":474,"o":"m 18 176 l 43 285 l 474 285 l 450 176 l 18 176 z "},"⁰":{"ha":600,"x_min":106,"x_max":664,"o":"m 664 829 q 642 683 664 753 q 580 560 621 614 q 480 475 539 507 q 344 443 421 443 q 254 457 297 443 q 178 502 211 471 q 125 582 144 533 q 106 701 106 631 q 127 847 106 778 q 190 970 149 917 q 290 1056 231 1024 q 425 1088 349 1088 q 515 1074 472 1088 q 592 1028 558 1060 q 644 948 625 997 q 664 829 664 899 m 256 692 q 283 586 256 617 q 350 556 310 556 q 427 584 396 556 q 478 654 458 613 q 506 744 497 696 q 515 835 515 793 q 487 944 515 913 q 419 975 458 975 q 344 947 375 975 q 293 876 313 918 q 265 784 274 833 q 256 692 256 735 z "},"⁴":{"ha":547,"x_min":69,"x_max":592,"o":"m 488 581 l 460 451 l 315 451 l 343 581 l 69 581 l 90 678 l 443 1079 l 592 1079 l 510 686 l 589 686 l 567 581 l 488 581 m 365 686 l 415 918 l 211 686 l 365 686 z "},"⁵":{"ha":486,"x_min":72,"x_max":569,"o":"m 524 678 q 506 582 524 625 q 454 508 488 539 q 374 460 421 476 q 268 443 326 443 q 144 462 189 443 q 72 500 99 481 l 96 608 q 164 569 124 588 q 258 551 204 551 q 346 582 317 551 q 375 660 375 613 q 353 728 375 704 q 292 751 332 751 q 246 742 264 751 q 218 724 228 733 l 128 724 l 204 1079 l 569 1079 l 546 963 l 296 963 l 269 838 q 349 856 301 856 q 418 844 386 856 q 474 811 450 833 q 510 756 497 789 q 524 678 524 722 z "},"⁶":{"ha":551,"x_min":103,"x_max":600,"o":"m 600 690 q 579 588 600 635 q 522 508 558 542 q 435 456 485 475 q 329 438 386 438 q 163 495 222 438 q 103 665 103 553 q 123 815 103 740 q 185 949 143 889 q 294 1046 228 1008 q 456 1083 361 1083 q 540 1074 504 1083 q 600 1047 575 1064 l 585 931 q 518 960 553 950 q 447 969 483 969 q 317 922 367 969 q 249 801 268 874 q 403 868 311 868 q 545 824 490 868 q 600 690 600 779 m 336 547 q 424 585 390 547 q 458 681 458 622 q 432 744 458 724 q 371 765 406 765 q 278 726 313 765 q 244 633 244 686 q 270 569 244 592 q 336 547 296 547 z "},"⁷":{"ha":486,"x_min":89,"x_max":606,"o":"m 246 451 l 89 451 l 421 964 l 146 964 l 171 1079 l 606 1079 l 586 986 l 246 451 z "},"⁸":{"ha":544,"x_min":90,"x_max":600,"o":"m 576 632 q 558 554 576 589 q 506 494 539 519 q 426 456 472 469 q 325 443 381 443 q 153 488 217 443 q 90 611 90 532 q 134 722 90 678 q 251 785 178 765 q 184 831 210 800 q 158 910 158 863 q 176 981 158 949 q 224 1038 193 1014 q 299 1074 256 1061 q 393 1086 342 1086 q 542 1047 483 1086 q 600 929 600 1007 q 564 833 600 872 q 465 778 528 794 q 545 725 514 760 q 576 632 576 690 m 372 832 q 436 852 411 832 q 461 910 461 872 q 436 965 461 949 q 381 981 411 981 q 319 959 344 981 q 294 901 294 938 q 317 849 294 867 q 372 832 339 832 m 331 551 q 403 577 375 551 q 431 647 431 603 q 405 711 431 692 q 343 731 379 731 q 269 703 296 731 q 242 635 242 675 q 267 572 242 593 q 331 551 292 551 z "},"⁹":{"ha":551,"x_min":117,"x_max":613,"o":"m 613 857 q 592 707 613 782 q 530 572 572 632 q 420 475 488 513 q 260 438 353 438 q 117 474 165 438 l 131 590 q 197 561 163 571 q 268 551 232 551 q 398 599 349 551 q 467 721 447 646 q 313 653 404 653 q 171 697 225 653 q 117 831 117 740 q 138 933 117 886 q 194 1013 158 979 q 280 1065 231 1046 q 386 1083 329 1083 q 553 1026 493 1083 q 613 857 613 968 m 381 974 q 291 936 325 974 q 257 840 257 899 q 283 776 257 797 q 344 756 310 756 q 437 794 403 756 q 471 888 471 833 q 445 951 471 929 q 381 974 419 974 z "},"⁺":{"ha":540,"x_min":133,"x_max":588,"o":"m 408 739 l 372 571 l 254 571 l 290 739 l 133 739 l 158 847 l 313 847 l 349 1014 l 467 1014 l 431 847 l 588 847 l 565 739 l 408 739 z "},"⁻":{"ha":540,"x_min":133,"x_max":589,"o":"m 133 753 l 158 861 l 589 861 l 565 753 l 133 753 z "},"ȷ":{"ha":360,"x_min":-217,"x_max":351,"o":"m 193 -24 q 103 -197 169 -135 q -85 -260 36 -260 q -153 -253 -118 -260 q -217 -231 -189 -247 l -187 -100 q -145 -117 -169 -111 q -89 -124 -121 -124 q -6 -92 -31 -124 q 29 -3 18 -61 l 185 721 l 351 721 l 193 -24 z "},"Ё":{"ha":817,"x_min":28,"x_max":869,"o":"m 806 1165 q 778 1097 806 1125 q 711 1068 751 1068 q 644 1097 671 1068 q 617 1165 617 1125 q 644 1233 617 1206 q 711 1261 671 1261 q 778 1233 751 1261 q 806 1165 806 1206 m 521 1165 q 494 1097 521 1125 q 426 1068 467 1068 q 360 1097 386 1068 q 333 1165 333 1125 q 360 1233 333 1206 q 426 1261 386 1261 q 494 1233 467 1261 q 521 1165 521 1206 m 240 996 l 869 996 l 836 849 l 383 849 l 328 589 l 710 589 l 679 442 l 297 442 l 235 147 l 696 147 l 663 0 l 28 0 l 240 996 z "},"Ђ":{"ha":1124,"x_min":136,"x_max":1046,"o":"m 611 849 l 551 571 q 626 606 581 590 q 743 624 681 624 q 876 600 819 624 q 971 535 933 576 q 1027 438 1008 494 q 1046 317 1046 382 q 1015 124 1046 214 q 924 -32 985 35 q 772 -137 863 -99 q 560 -175 681 -175 l 588 -26 q 710 1 658 -26 q 797 73 763 28 q 849 176 832 118 q 867 294 867 233 q 858 367 867 333 q 828 425 849 400 q 776 464 808 450 q 700 478 744 478 q 604 463 650 478 q 519 425 561 447 l 429 0 l 253 0 l 435 849 l 136 849 l 168 996 l 939 996 l 907 849 l 611 849 z "},"Ѓ":{"ha":739,"x_min":28,"x_max":831,"o":"m 613 1267 l 831 1267 l 610 1078 l 458 1078 l 613 1267 m 240 996 l 828 996 l 796 851 l 385 851 l 203 0 l 28 0 l 240 996 z "},"Є":{"ha":901,"x_min":69,"x_max":918,"o":"m 529 -14 q 349 15 433 -14 q 203 100 265 43 q 106 241 142 157 q 69 436 69 325 q 108 649 69 546 q 219 833 146 753 q 399 960 292 913 q 646 1008 507 1008 q 810 988 740 1008 q 918 942 879 968 l 883 793 q 778 842 842 824 q 639 861 714 861 q 467 826 539 861 q 347 732 394 790 q 276 599 300 674 q 271 578 274 589 l 704 578 l 675 429 l 254 429 q 276 304 257 357 q 338 208 299 246 q 433 151 378 169 q 556 133 489 133 q 683 149 618 133 q 807 200 749 165 l 775 50 q 669 3 735 21 q 529 -14 604 -14 z "},"Ѕ":{"ha":832,"x_min":21,"x_max":817,"o":"m 388 -14 q 261 -3 319 -14 q 156 26 203 8 q 74 67 108 44 q 21 111 40 89 l 51 256 q 114 208 76 231 q 197 169 151 186 q 292 143 242 153 q 394 133 343 133 q 544 172 499 133 q 590 278 590 211 q 578 334 590 311 q 541 374 565 357 q 481 404 517 390 q 400 435 446 418 q 303 472 351 451 q 217 522 256 492 q 156 599 179 553 q 132 713 132 644 q 158 835 132 781 q 233 928 185 889 q 351 988 282 967 q 508 1008 421 1008 q 614 1000 565 1008 q 702 979 663 992 q 771 951 742 967 q 817 922 800 936 l 786 779 q 664 840 738 819 q 508 861 590 861 q 351 825 400 861 q 303 732 303 789 q 319 674 303 697 q 361 635 335 651 q 422 606 388 618 q 496 579 457 593 q 594 541 546 563 q 680 488 642 519 q 742 408 718 456 q 765 290 765 360 q 738 160 765 217 q 661 65 711 103 q 542 6 611 26 q 388 -14 472 -14 z "},"І":{"ha":383,"x_min":28,"x_max":415,"o":"m 415 996 l 203 0 l 28 0 l 240 996 l 415 996 z "},"Ї":{"ha":385,"x_min":28,"x_max":603,"o":"m 196 1082 q 123 1112 153 1082 q 93 1183 93 1142 q 123 1256 93 1226 q 196 1286 153 1286 q 272 1256 242 1286 q 303 1183 303 1226 q 272 1112 303 1142 q 196 1082 242 1082 m 497 1082 q 423 1112 453 1082 q 393 1183 393 1142 q 423 1256 393 1226 q 497 1286 453 1286 q 572 1256 542 1286 q 603 1183 603 1226 q 572 1112 603 1142 q 497 1082 542 1082 m 415 996 l 203 0 l 28 0 l 240 996 l 415 996 z "},"Ј":{"ha":547,"x_min":-35,"x_max":585,"o":"m 585 996 l 424 243 q 321 57 400 128 q 111 -14 242 -14 q -35 15 25 -14 l -6 157 q 103 133 46 133 q 208 169 174 133 q 257 274 243 204 l 411 996 l 585 996 z "},"Љ":{"ha":1414,"x_min":-49,"x_max":1365,"o":"m 1365 344 q 1335 199 1365 263 q 1250 91 1304 135 q 1121 24 1196 47 q 957 0 1046 0 l 588 0 l 769 851 l 478 851 q 392 481 431 640 q 303 213 353 321 q 179 51 253 106 q -10 -4 106 -4 q -29 -4 -19 -4 q -49 -3 -39 -4 l -17 151 l -1 151 q 64 163 36 151 q 112 197 92 175 q 147 248 132 218 q 178 314 163 278 q 214 426 196 364 q 251 572 232 489 q 294 758 271 654 q 347 996 318 863 l 976 996 l 900 635 l 1019 635 q 1272 563 1179 635 q 1365 344 1365 492 m 868 490 l 794 143 l 982 143 q 1130 194 1078 143 q 1182 335 1182 246 q 1133 457 1182 424 q 999 490 1083 490 l 868 490 z "},"Њ":{"ha":1475,"x_min":28,"x_max":1426,"o":"m 1426 340 q 1396 194 1426 258 q 1311 88 1365 131 q 1183 22 1257 44 q 1019 0 1108 0 l 649 0 l 751 485 l 306 485 l 203 0 l 28 0 l 240 996 l 415 996 l 336 628 l 782 628 l 861 996 l 1036 996 l 957 628 l 1086 628 q 1227 610 1164 628 q 1335 556 1290 592 q 1403 467 1379 521 q 1426 340 1426 413 m 926 483 l 854 143 l 1043 143 q 1190 194 1138 143 q 1243 331 1243 244 q 1195 450 1243 417 q 1065 483 1147 483 l 926 483 z "},"Ћ":{"ha":1138,"x_min":136,"x_max":1051,"o":"m 611 849 l 550 568 q 631 604 581 588 q 756 624 688 624 q 887 602 828 624 q 984 537 946 581 q 1037 426 1022 493 q 1033 268 1051 360 l 982 0 l 804 0 l 857 269 q 862 365 868 325 q 835 429 856 404 q 781 466 814 454 q 707 478 749 478 q 607 463 654 478 q 519 422 561 447 l 429 0 l 253 0 l 435 849 l 136 849 l 168 996 l 939 996 l 907 849 l 611 849 z "},"Ќ":{"ha":903,"x_min":28,"x_max":1007,"o":"m 396 422 l 293 422 l 203 0 l 28 0 l 240 996 l 415 996 l 324 568 l 433 568 l 814 996 l 1007 996 l 550 483 l 806 0 l 619 0 l 396 422 m 656 1267 l 874 1267 l 653 1078 l 501 1078 l 656 1267 z "},"Ў":{"ha":881,"x_min":94,"x_max":1001,"o":"m 547 272 q 466 154 506 206 q 382 67 426 103 q 285 13 338 32 q 167 -6 233 -6 q 131 -4 149 -6 q 94 0 114 -3 l 125 144 q 146 142 136 142 l 165 142 q 272 170 228 142 q 354 249 317 199 l 156 996 l 335 996 l 478 433 l 821 996 l 1001 996 l 547 272 m 572 1046 q 463 1063 508 1046 q 390 1110 417 1081 q 353 1180 363 1140 q 353 1264 343 1219 l 504 1264 q 515 1186 490 1211 q 582 1161 540 1161 q 653 1184 624 1161 q 693 1264 683 1207 l 847 1264 q 818 1177 839 1217 q 763 1108 797 1138 q 681 1063 729 1079 q 572 1046 633 1046 z "},"Џ":{"ha":988,"x_min":28,"x_max":1019,"o":"m 807 0 l 501 0 l 449 -237 l 296 -237 l 338 0 l 28 0 l 240 996 l 417 996 l 235 144 l 661 144 l 844 996 l 1019 996 l 807 0 z "},"А":{"ha":963,"x_min":-56,"x_max":864,"o":"m 506 996 l 726 996 l 864 0 l 690 0 l 656 257 l 254 257 l 110 0 l -56 0 l 506 996 m 636 403 l 579 835 l 336 403 l 636 403 z "},"Б":{"ha":869,"x_min":28,"x_max":857,"o":"m 240 996 l 857 996 l 825 851 l 385 851 l 332 607 l 465 607 q 717 540 628 607 q 806 335 806 472 q 776 193 806 256 q 692 88 746 131 q 561 23 638 46 q 392 0 485 0 l 28 0 l 240 996 m 301 463 l 233 143 l 422 143 q 572 191 522 143 q 622 324 622 239 q 577 432 622 401 q 444 463 532 463 l 301 463 z "},"В":{"ha":899,"x_min":28,"x_max":858,"o":"m 240 996 l 550 996 q 782 937 706 996 q 858 765 858 878 q 794 597 858 657 q 629 514 731 538 q 776 439 724 494 q 829 288 829 383 q 799 161 829 215 q 714 72 768 107 q 586 18 660 36 q 426 0 513 0 l 28 0 l 240 996 m 383 849 l 328 586 l 479 586 q 558 594 521 586 q 621 621 594 603 q 663 667 647 639 q 678 735 678 694 q 639 823 678 797 q 526 849 600 849 l 383 849 m 296 439 l 235 147 l 449 147 q 597 181 543 147 q 650 297 650 215 q 601 406 650 372 q 454 439 553 439 l 296 439 z "},"Г":{"ha":739,"x_min":28,"x_max":828,"o":"m 240 996 l 828 996 l 796 851 l 385 851 l 203 0 l 28 0 l 240 996 z "},"Д":{"ha":1071,"x_min":-129,"x_max":1032,"o":"m 849 138 l 979 138 l 899 -237 l 746 -237 l 783 0 l 88 0 l 22 -237 l -129 -237 l -49 138 l 40 138 q 132 231 92 171 q 208 392 172 292 q 281 639 244 492 q 360 996 317 786 l 1032 996 l 849 138 m 672 138 l 825 850 l 489 850 q 427 585 456 700 q 369 385 399 471 q 309 240 340 300 q 240 138 278 179 l 672 138 z "},"Е":{"ha":817,"x_min":28,"x_max":869,"o":"m 240 996 l 869 996 l 836 849 l 383 849 l 328 589 l 710 589 l 679 442 l 297 442 l 235 147 l 696 147 l 663 0 l 28 0 l 240 996 z "},"Ж":{"ha":1322,"x_min":-62,"x_max":1433,"o":"m 588 429 l 524 429 l 150 0 l -62 0 l 404 526 l 165 996 l 349 996 l 558 574 l 618 574 l 708 996 l 883 996 l 793 574 l 851 574 l 1238 996 l 1433 996 l 969 490 l 1229 0 l 1043 0 l 815 429 l 763 429 l 671 0 l 496 0 l 588 429 z "},"З":{"ha":840,"x_min":11,"x_max":807,"o":"m 753 297 q 723 166 753 224 q 639 69 693 108 q 509 8 585 29 q 342 -14 433 -14 q 226 -5 278 -14 q 134 17 175 4 q 63 48 93 31 q 11 82 32 65 l 43 226 q 162 162 90 190 q 344 133 233 133 q 455 147 411 133 q 526 185 499 161 q 564 240 553 208 q 575 304 575 271 q 531 406 575 372 q 390 440 486 440 l 247 440 l 278 585 l 443 585 q 578 619 526 585 q 629 724 629 654 q 576 829 629 797 q 422 861 522 861 q 283 849 349 861 q 168 814 217 836 l 201 964 q 304 994 240 981 q 447 1008 368 1008 q 713 940 618 1008 q 807 749 807 871 q 788 652 807 694 q 738 581 769 610 q 666 535 707 551 q 582 514 625 518 q 708 441 664 494 q 753 297 753 388 z "},"И":{"ha":1053,"x_min":28,"x_max":1086,"o":"m 28 0 l 240 996 l 415 996 l 257 254 l 906 996 l 1086 996 l 875 0 l 697 0 l 856 740 l 208 0 l 28 0 z "},"Й":{"ha":1053,"x_min":28,"x_max":1086,"o":"m 672 1046 q 563 1063 608 1046 q 489 1110 517 1081 q 451 1180 461 1140 q 451 1264 442 1219 l 603 1264 q 615 1186 590 1211 q 681 1161 639 1161 q 753 1184 724 1161 q 793 1264 782 1207 l 947 1264 q 918 1177 939 1217 q 863 1108 897 1138 q 781 1063 829 1079 q 672 1046 733 1046 m 28 0 l 240 996 l 415 996 l 257 254 l 906 996 l 1086 996 l 875 0 l 697 0 l 856 740 l 208 0 l 28 0 z "},"К":{"ha":903,"x_min":28,"x_max":1007,"o":"m 396 422 l 293 422 l 203 0 l 28 0 l 240 996 l 415 996 l 324 568 l 433 568 l 814 996 l 1007 996 l 550 483 l 806 0 l 619 0 l 396 422 z "},"Л":{"ha":957,"x_min":-49,"x_max":992,"o":"m 178 314 q 214 426 196 364 q 251 572 232 489 q 294 758 271 654 q 347 996 318 863 l 992 996 l 778 0 l 603 0 l 783 851 l 478 851 q 394 481 432 640 q 304 213 356 321 q 179 51 253 106 q -10 -4 106 -4 q -29 -4 -19 -4 q -49 -3 -39 -4 l -17 151 l -1 151 q 64 163 36 151 q 112 197 92 175 q 147 248 132 218 q 178 314 163 278 z "},"М":{"ha":1207,"x_min":28,"x_max":1240,"o":"m 1011 746 l 628 153 l 474 153 l 347 760 l 185 0 l 28 0 l 240 996 l 460 996 l 590 346 l 1008 996 l 1240 996 l 1029 0 l 853 0 l 1011 746 z "},"Н":{"ha":1010,"x_min":28,"x_max":1043,"o":"m 746 422 l 293 422 l 203 0 l 28 0 l 240 996 l 415 996 l 324 568 l 776 568 l 868 996 l 1043 996 l 831 0 l 656 0 l 746 422 z "},"О":{"ha":1031,"x_min":69,"x_max":1018,"o":"m 503 -14 q 327 17 407 -14 q 190 108 247 49 q 101 251 133 167 q 69 442 69 336 q 108 665 69 561 q 215 844 146 768 q 378 965 283 921 q 583 1008 472 1008 q 760 977 681 1008 q 897 887 840 946 q 986 744 954 828 q 1018 554 1018 660 q 979 330 1018 433 q 872 150 940 226 q 708 30 803 74 q 503 -14 614 -14 m 254 443 q 274 306 254 364 q 328 209 293 247 q 410 152 363 171 q 514 133 458 133 q 647 167 588 133 q 749 258 707 200 q 813 391 790 315 q 835 553 835 467 q 815 690 835 632 q 761 787 796 749 q 678 843 726 825 q 575 861 631 861 q 442 828 501 861 q 340 737 382 794 q 276 603 299 679 q 254 443 254 528 z "},"П":{"ha":986,"x_min":28,"x_max":1019,"o":"m 240 996 l 1019 996 l 806 0 l 629 0 l 813 851 l 385 851 l 203 0 l 28 0 l 240 996 z "},"Р":{"ha":854,"x_min":28,"x_max":888,"o":"m 240 996 l 547 996 q 688 978 625 996 q 796 924 751 960 q 864 835 840 889 q 888 710 888 782 q 856 563 888 628 q 770 453 825 497 q 639 385 715 408 q 472 361 563 361 l 279 361 l 203 0 l 28 0 l 240 996 m 383 849 l 311 508 l 504 508 q 651 559 599 508 q 704 700 704 610 q 692 772 704 743 q 656 817 679 800 q 600 842 633 835 q 526 849 567 849 l 383 849 z "},"С":{"ha":901,"x_min":69,"x_max":918,"o":"m 529 -14 q 349 15 433 -14 q 203 100 265 43 q 106 241 142 157 q 69 436 69 325 q 108 649 69 546 q 219 833 146 753 q 399 960 292 913 q 646 1008 507 1008 q 810 988 740 1008 q 918 942 879 968 l 883 793 q 778 842 842 824 q 639 861 714 861 q 467 826 539 861 q 347 732 394 790 q 277 599 300 674 q 254 447 254 525 q 276 305 254 364 q 338 208 299 246 q 433 151 378 169 q 556 133 489 133 q 683 149 618 133 q 807 200 749 165 l 775 50 q 669 3 735 21 q 529 -14 604 -14 z "},"Т":{"ha":839,"x_min":136,"x_max":939,"o":"m 611 849 l 429 0 l 253 0 l 435 849 l 136 849 l 168 996 l 939 996 l 907 849 l 611 849 z "},"У":{"ha":881,"x_min":94,"x_max":1001,"o":"m 547 272 q 466 154 506 206 q 382 67 426 103 q 285 13 338 32 q 167 -6 233 -6 q 131 -4 149 -6 q 94 0 114 -3 l 125 144 q 146 142 136 142 q 165 142 156 142 q 272 170 228 142 q 354 249 317 199 l 156 996 l 335 996 l 478 433 l 821 996 l 1001 996 l 547 272 z "},"Ф":{"ha":1136,"x_min":68,"x_max":1128,"o":"m 1128 538 q 1090 367 1128 443 q 984 235 1053 290 q 819 149 915 181 q 604 115 722 118 l 576 -14 l 401 -14 l 429 115 q 289 144 354 121 q 174 209 224 167 q 97 312 125 251 q 68 453 68 372 q 106 622 68 546 q 212 754 143 699 q 377 841 281 810 q 592 876 474 872 l 619 1007 l 794 1007 l 767 876 q 908 847 842 871 q 1022 782 974 824 q 1099 679 1071 740 q 1128 538 1128 618 m 949 529 q 931 626 949 586 q 883 690 913 665 q 815 726 853 714 q 738 742 776 739 l 632 249 q 761 273 703 253 q 861 328 819 293 q 926 414 903 364 q 949 529 949 464 m 247 461 q 265 364 247 403 q 313 300 283 325 q 381 263 343 275 q 457 249 418 251 l 563 742 q 433 717 492 738 q 334 662 375 697 q 270 576 293 626 q 247 461 247 525 z "},"Х":{"ha":885,"x_min":-65,"x_max":993,"o":"m 442 383 l 125 0 l -65 0 l 376 519 l 168 996 l 354 996 l 514 635 l 804 996 l 993 996 l 576 499 l 793 0 l 606 0 l 442 383 z "},"Ц":{"ha":1057,"x_min":28,"x_max":1019,"o":"m 771 0 l 28 0 l 240 996 l 415 996 l 232 136 l 660 136 l 844 996 l 1019 996 l 835 136 l 965 136 l 886 -237 l 733 -237 l 771 0 z "},"Ч":{"ha":954,"x_min":144,"x_max":986,"o":"m 774 0 l 599 0 l 686 415 q 442 360 581 360 q 304 385 364 360 q 207 456 244 410 q 157 572 169 503 q 164 728 144 640 l 221 996 l 396 996 l 339 726 q 329 636 328 676 q 347 567 331 596 q 397 522 364 538 q 482 506 431 506 q 609 519 551 506 q 718 565 667 533 l 810 996 l 986 996 l 774 0 z "},"Ш":{"ha":1315,"x_min":28,"x_max":1347,"o":"m 1136 0 l 28 0 l 240 996 l 415 996 l 232 136 l 522 136 l 707 996 l 882 996 l 699 136 l 990 136 l 1172 996 l 1347 996 l 1136 0 z "},"Щ":{"ha":1386,"x_min":28,"x_max":1347,"o":"m 1165 136 l 1293 136 l 1214 -237 l 1063 -237 l 1100 0 l 28 0 l 240 996 l 415 996 l 232 136 l 522 136 l 707 996 l 882 996 l 699 136 l 990 136 l 1172 996 l 1347 996 l 1165 136 z "}}}
